STARTFONT 2.3
FONT -FontForge-Open Sans-Book-R-Normal-Sans--16-160-72-72-P-92-ISO10646-1
SIZE 16 72 72  4
FONTBOUNDINGBOX 29 22 -9 -4
COMMENT "Generated by fontforge, http://fontforge.sourceforge.net"
COMMENT "Digitized data copyright (c) 2010-2011, Google Corporation."
STARTPROPERTIES 41
FOUNDRY "FontForge"
FAMILY_NAME "Open Sans"
WEIGHT_NAME "Book"
SLANT "R"
SETWIDTH_NAME "Normal"
ADD_STYLE_NAME "Sans"
PIXEL_SIZE 16
POINT_SIZE 160
RESOLUTION_X 72
RESOLUTION_Y 72
SPACING "P"
AVERAGE_WIDTH 92
CHARSET_REGISTRY "ISO10646"
CHARSET_ENCODING "1"
FONTNAME_REGISTRY ""
CHARSET_COLLECTIONS "ISO8859-2 ISO8859-5 ISO8859-7 ISO8859-9 ISO8859-4 ISO10646-1"
BITS_PER_PIXEL 4
FONT_NAME "OpenSans-Regular"
FACE_NAME "Open Sans Regular"
COPYRIGHT "Digitized data copyright (c) 2010-2011, Google Corporation."
FONT_VERSION "1.10"
FONT_ASCENT 13
FONT_DESCENT 3
UNDERLINE_POSITION -2
UNDERLINE_THICKNESS 1
X_HEIGHT 8
CAP_HEIGHT 11
RAW_ASCENT 799
RAW_DESCENT 200
NORM_SPACE 4
RELATIVE_WEIGHT 40
RELATIVE_SETWIDTH 50
SUPERSCRIPT_X 0
SUPERSCRIPT_Y 7
SUPERSCRIPT_SIZE 10
SUBSCRIPT_X 0
SUBSCRIPT_Y 2
SUBSCRIPT_SIZE 10
FIGURE_WIDTH 9
AVG_LOWERCASE_WIDTH 91
AVG_UPPERCASE_WIDTH 106
ENDPROPERTIES
CHARS 938
STARTCHAR space
ENCODING 32
SWIDTH 259 0
DWIDTH 4 0
BBX 1 1 0 0
BITMAP
00
ENDCHAR
STARTCHAR exclam
ENCODING 33
SWIDTH 267 0
DWIDTH 4 0
BBX 2 12 1 0
BITMAP
AE
9D
8D
8C
7B
6B
6A
59
49
01
BE
9D
ENDCHAR
STARTCHAR quotedbl
ENCODING 34
SWIDTH 400 0
DWIDTH 6 0
BBX 5 4 1 8
BITMAP
E71F50
C60E40
B50D30
A30C20
ENDCHAR
STARTCHAR numbersign
ENCODING 35
SWIDTH 645 0
DWIDTH 10 0
BBX 10 12 0 0
BITMAP
0001F00970
0004D00C40
0006A00E20
0009802E00
0FFFFFFFFE
000E208800
003D00C400
9FFFFFFFF5
009703D000
00C405B000
00E2088000
01E00A6000
ENDCHAR
STARTCHAR dollar
ENCODING 36
SWIDTH 571 0
DWIDTH 9 0
BBX 8 13 1 -1
BITMAP
000E1000
07DFEC70
8D4E3540
C80E1000
9D2E1000
1BFF6100
003EEE40
000E19E0
000E14F1
842E5CA0
9DEFC710
000E1000
000E1000
ENDCHAR
STARTCHAR percent
ENCODING 37
SWIDTH 823 0
DWIDTH 13 0
BBX 13 12 0 0
BITMAP
04DE60001E2000
0D42E200980000
1E00A502E10000
2E00970A700000
1E00A63E100000
0C42E2B75DD500
03DE74D1E33E10
00000B63D00C40
00004D04C00B50
0000C503D00C40
0005C000E32E10
000D40004DD500
ENDCHAR
STARTCHAR ampersand
ENCODING 38
SWIDTH 729 0
DWIDTH 12 0
BBX 12 12 0 0
BITMAP
002BEE800000
00CA24E50000
00F400B80000
00D802E50000
004F8E900000
002DF9000000
03E98F4008C0
0CA008F40D70
1F40008F9E10
0F60000BF800
09E6349FBE40
018DFEA309E3
ENDCHAR
STARTCHAR quotesingle
ENCODING 39
SWIDTH 221 0
DWIDTH 4 0
BBX 2 4 1 8
BITMAP
E7
C6
B5
A3
ENDCHAR
STARTCHAR parenleft
ENCODING 40
SWIDTH 295 0
DWIDTH 5 0
BBX 5 15 0 -3
BITMAP
005E10
01D600
06E000
0B9000
0F5000
3F2000
4F1000
5F0000
4F1000
3F2000
1F5000
0C9000
06E000
01E600
005E10
ENDCHAR
STARTCHAR parenright
ENCODING 41
SWIDTH 295 0
DWIDTH 5 0
BBX 5 15 0 -3
BITMAP
3E2000
0AA000
03F200
00D700
009B00
006E00
005F00
004F10
005F00
006E00
009B00
00D800
03F200
0AB000
3E2000
ENDCHAR
STARTCHAR asterisk
ENCODING 42
SWIDTH 551 0
DWIDTH 9 0
BBX 9 7 0 6
BITMAP
0005F10000
0003E00000
2A63D37A00
29BDFCA910
001DBA0000
00AC1E7000
01A5079000
ENDCHAR
STARTCHAR plus
ENCODING 43
SWIDTH 571 0
DWIDTH 9 0
BBX 9 9 0 1
BITMAP
0000510000
0000F20000
0000F20000
0000F20000
3FFFFFFF50
0111F31100
0000F20000
0000F20000
0000610000
ENDCHAR
STARTCHAR comma
ENCODING 44
SWIDTH 245 0
DWIDTH 4 0
BBX 3 4 0 -2
BITMAP
0CB0
0E70
2F10
6A00
ENDCHAR
STARTCHAR hyphen
ENCODING 45
SWIDTH 321 0
DWIDTH 5 0
BBX 5 2 0 3
BITMAP
5FFF80
133310
ENDCHAR
STARTCHAR period
ENCODING 46
SWIDTH 266 0
DWIDTH 4 0
BBX 2 3 1 0
BITMAP
01
AE
9D
ENDCHAR
STARTCHAR slash
ENCODING 47
SWIDTH 367 0
DWIDTH 6 0
BBX 6 12 0 0
BITMAP
0000B8
0002F3
0007C0
000C70
003F20
008B00
00D600
04F100
09A000
0E5000
5E1000
A90000
ENDCHAR
STARTCHAR zero
ENCODING 48
SWIDTH 571 0
DWIDTH 9 0
BBX 9 12 0 0
BITMAP
005CFD6000
04F726E500
0B90007C00
0F50003F20
2F30001F40
3F20000F50
3F20000F50
2F30001F40
0E50003F20
0A90007D00
03F725E600
004CFD6000
ENDCHAR
STARTCHAR one
ENCODING 49
SWIDTH 571 0
DWIDTH 9 0
BBX 5 12 1 0
BITMAP
004E90
09DC90
4B1A90
000A90
000A90
000A90
000A90
000A90
000A90
000A90
000A90
000A90
ENDCHAR
STARTCHAR two
ENCODING 50
SWIDTH 571 0
DWIDTH 9 0
BBX 9 12 0 0
BITMAP
029EEC5000
0C9426F500
010000AA00
0000009B00
000000C800
000005F200
00003E7000
0002D90000
002D900000
01D9000000
1CC3333310
3FFFFFFF40
ENDCHAR
STARTCHAR three
ENCODING 51
SWIDTH 571 0
DWIDTH 9 0
BBX 9 12 0 0
BITMAP
03AEFD7000
1C8425E700
0000008C00
000000AB00
000027E400
008FFD5000
001237E700
0000005F10
0000003F30
0000006F10
394236E900
29DFEC6000
ENDCHAR
STARTCHAR four
ENCODING 52
SWIDTH 571 0
DWIDTH 9 0
BBX 9 12 0 0
BITMAP
000009F200
00004DF200
0001D6F200
0009A2F200
004E12F200
01D502F200
0AA002F200
5E1002F200
AFFFFFFFC0
233334F520
000002F200
000002F200
ENDCHAR
STARTCHAR five
ENCODING 53
SWIDTH 571 0
DWIDTH 9 0
BBX 8 12 1 0
BITMAP
4FFFFF60
5D333310
7B000000
8A000000
99000000
AEEED710
14236EB0
000005F2
000002F3
000005F1
95336E80
8DEEC500
ENDCHAR
STARTCHAR six
ENCODING 54
SWIDTH 571 0
DWIDTH 9 0
BBX 9 12 0 0
BITMAP
0005CEF600
008E622200
04F4000000
0AB0000000
0D70000000
0F6AEEA200
1FD612AD00
1F60001F40
0E50000E50
0A90002F30
02E824CB00
003BFD9100
ENDCHAR
STARTCHAR seven
ENCODING 55
SWIDTH 571 0
DWIDTH 9 0
BBX 9 12 0 0
BITMAP
4FFFFFFF50
1333336F30
0000009B00
000001E500
000007D000
00000D7000
00005E1000
0000C90000
0003F30000
000AB00000
002F500000
008D000000
ENDCHAR
STARTCHAR eight
ENCODING 56
SWIDTH 571 0
DWIDTH 9 0
BBX 9 12 0 0
BITMAP
007DFD8100
07E414D900
0B80006D00
0AA0008C00
03E927E300
003FFF3000
03E94AE400
0D80007E10
2F20000F40
1F40002F30
0AC413CB00
018DFD9100
ENDCHAR
STARTCHAR nine
ENCODING 57
SWIDTH 571 0
DWIDTH 9 0
BBX 9 12 0 0
BITMAP
007DEC5000
07E526E500
0E50006D00
2F20001F20
1F40002F40
0AC314CF40
019EEB4F30
0000004F10
0000008D00
000001E700
01225DB000
04FFC70000
ENDCHAR
STARTCHAR colon
ENCODING 58
SWIDTH 266 0
DWIDTH 4 0
BBX 2 9 1 0
BITMAP
AD
AE
01
00
00
00
01
AE
9D
ENDCHAR
STARTCHAR semicolon
ENCODING 59
SWIDTH 266 0
DWIDTH 4 0
BBX 3 11 0 -2
BITMAP
0AD0
0AE0
0010
0000
0000
0000
0000
0BB0
0E70
2F10
6A00
ENDCHAR
STARTCHAR less
ENCODING 60
SWIDTH 571 0
DWIDTH 9 0
BBX 9 8 0 2
BITMAP
0000002940
000018E910
0018E92000
18E8100000
2EB4000000
006CD61000
00004BE810
0000003950
ENDCHAR
STARTCHAR equal
ENCODING 61
SWIDTH 571 0
DWIDTH 9 0
BBX 9 4 0 4
BITMAP
1FFFFFFF30
0111111100
0111111100
1FFFFFFF30
ENDCHAR
STARTCHAR greater
ENCODING 62
SWIDTH 571 0
DWIDTH 9 0
BBX 9 8 0 2
BITMAP
3A20000000
18E9200000
0018E92000
000017E910
000003AE30
0005CD7100
17EC500000
3A40000000
ENDCHAR
STARTCHAR question
ENCODING 63
SWIDTH 429 0
DWIDTH 7 0
BBX 7 12 0 0
BITMAP
4BEEC400
68438E20
00000D60
00000D60
00006F20
0005F500
003E5000
00980000
00B40000
00100000
01E90000
01D80000
ENDCHAR
STARTCHAR at
ENCODING 64
SWIDTH 898 0
DWIDTH 14 0
BBX 13 13 1 -1
BITMAP
0004ADEEB50000
009D62015DA000
09A1000001B700
4D104CFEA02E00
9702E505D00C40
D3099005D00A60
F10B6006C00A60
F10B6008B00D30
E307C12CD15D00
A801AED37EC200
3E300000000000
06E73113730000
0039DFED920000
ENDCHAR
STARTCHAR A
ENCODING 65
SWIDTH 632 0
DWIDTH 10 0
BBX 10 12 0 0
BITMAP
0000AC0000
0001FE3000
0006CA9000
000C75E000
003F20E500
008B009A00
00E6004F10
05FFFFFF70
0AA33339C0
1F400003F3
7D000000C8
C80000007E
ENDCHAR
STARTCHAR B
ENCODING 66
SWIDTH 647 0
DWIDTH 10 0
BBX 9 12 1 0
BITMAP
6FFFFD9100
6E2236EB00
6E00006F10
6E00005F00
6E0013C800
6FFFFF8000
6E2225CB00
6E00002F50
6E00000F70
6E00003F50
6E2235DD10
6FFFFD9100
ENDCHAR
STARTCHAR C
ENCODING 67
SWIDTH 630 0
DWIDTH 10 0
BBX 9 12 1 0
BITMAP
003ADFEB40
06FA535930
2F80000000
9D00000000
D900000000
F700000000
F700000000
D800000000
AD00000000
4F70000000
08FA434710
005BEFEB10
ENDCHAR
STARTCHAR D
ENCODING 68
SWIDTH 729 0
DWIDTH 12 0
BBX 10 12 1 0
BITMAP
6FFFFD8100
6E2236CE30
6E00000BD0
6E000002F5
6E000000D8
6E000000BA
6E000000BA
6E000000D8
6E000003F4
6E00001CC0
6E2237DD20
6FFFEC7100
ENDCHAR
STARTCHAR E
ENCODING 69
SWIDTH 556 0
DWIDTH 9 0
BBX 7 12 1 0
BITMAP
6FFFFFE0
6E333330
6E000000
6E000000
6E000000
6FFFFFA0
6E333320
6E000000
6E000000
6E000000
6E333330
6FFFFFE0
ENDCHAR
STARTCHAR F
ENCODING 70
SWIDTH 516 0
DWIDTH 8 0
BBX 7 12 1 0
BITMAP
6FFFFFE0
6E333330
6E000000
6E000000
6E000000
6E000000
6FFFFFA0
6E333320
6E000000
6E000000
6E000000
6E000000
ENDCHAR
STARTCHAR G
ENCODING 71
SWIDTH 728 0
DWIDTH 12 0
BBX 10 12 1 0
BITMAP
0028DEED91
04EB5346A0
2E90000000
8D00000000
D800000000
E600000000
F60006FFF7
D8000133D7
AD000000D7
3F700000D7
07FA5335E7
004AEFEDA3
ENDCHAR
STARTCHAR H
ENCODING 72
SWIDTH 737 0
DWIDTH 12 0
BBX 10 12 1 0
BITMAP
6E000001F4
6E000001F4
6E000001F4
6E000001F4
6E000001F4
6FFFFFFFF4
6E333334F4
6E000001F4
6E000001F4
6E000001F4
6E000001F4
6E000001F4
ENDCHAR
STARTCHAR I
ENCODING 73
SWIDTH 278 0
DWIDTH 4 0
BBX 2 12 1 0
BITMAP
6E
6E
6E
6E
6E
6E
6E
6E
6E
6E
6E
6E
ENDCHAR
STARTCHAR J
ENCODING 74
SWIDTH 267 0
DWIDTH 4 0
BBX 5 15 -2 -3
BITMAP
0008C0
0008C0
0008C0
0008C0
0008C0
0008C0
0008C0
0008C0
0008C0
0008C0
0008C0
0008C0
0009B0
145E60
3EE800
ENDCHAR
STARTCHAR K
ENCODING 75
SWIDTH 613 0
DWIDTH 10 0
BBX 9 12 1 0
BITMAP
6E00005F40
6E0004F500
6E002E7000
6E01D90000
6E1CA00000
6EAF400000
6FBAD10000
6E01DA0000
6E004F6000
6E0008E200
6E0000CB00
6E00002E70
ENDCHAR
STARTCHAR L
ENCODING 76
SWIDTH 519 0
DWIDTH 8 0
BBX 7 12 1 0
BITMAP
6E000000
6E000000
6E000000
6E000000
6E000000
6E000000
6E000000
6E000000
6E000000
6E000000
6E333330
6FFFFFE0
ENDCHAR
STARTCHAR M
ENCODING 77
SWIDTH 902 0
DWIDTH 14 0
BBX 12 12 1 0
BITMAP
6FB0000004FD
6DF200000ADD
6BD700001E9D
6C7D00006C6D
6C2F3000B77D
6C0B9002F27D
6C06E007B07D
6C01E50D507D
6C00AA3E107D
6C004FA9007D
6C000EF4007D
6C0008D0007D
ENDCHAR
STARTCHAR N
ENCODING 78
SWIDTH 753 0
DWIDTH 12 0
BBX 10 12 1 0
BITMAP
6F600000B8
6FE10000B8
6BD90000B8
6B4F4000B8
6C0AD000B8
6C02E700B8
6C006F20B8
6C000CB0B8
6C0003F5B8
6C00009EB8
6C00001DF8
6C000005F8
ENDCHAR
STARTCHAR O
ENCODING 79
SWIDTH 778 0
DWIDTH 12 0
BBX 11 12 1 0
BITMAP
005BEFD81000
08F9436CD100
4F500001CA00
AC0000005F20
D80000001F50
F60000000E70
F60000000E70
D80000001F50
AC0000005F20
4F500001CA00
08F8435CD100
005BEFD81000
ENDCHAR
STARTCHAR P
ENCODING 80
SWIDTH 602 0
DWIDTH 10 0
BBX 8 12 1 0
BITMAP
6FFFEB40
6E234AF4
6E0000CA
6E00009C
6E0000CA
6E0129F3
6FFFFC40
6E221000
6E000000
6E000000
6E000000
6E000000
ENDCHAR
STARTCHAR Q
ENCODING 81
SWIDTH 778 0
DWIDTH 12 0
BBX 11 15 1 -3
BITMAP
005BEFD81000
08F9436CD100
4F500001CA00
AC0000005F20
D80000001F50
F60000000E70
F60000000E60
D80000001F50
AC0000005F10
4F500001CA00
08F8435CD100
005BEFF91000
000001DB0000
0000003F9000
00000007F600
ENDCHAR
STARTCHAR R
ENCODING 82
SWIDTH 618 0
DWIDTH 10 0
BBX 9 12 1 0
BITMAP
6FFFEC5000
6E3349F400
6E0000CA00
6E00009C00
6E0000BA00
6E0017F300
6FFFFD3000
6E228E1000
6E001E8000
6E0006F200
6E0000CB00
6E00004F50
ENDCHAR
STARTCHAR S
ENCODING 83
SWIDTH 548 0
DWIDTH 9 0
BBX 8 12 0 0
BITMAP
007DFEB5
09E63485
0E700000
0E700000
0AD30000
01AFB500
00039FC2
000002DB
0000006F
0000007E
295337E7
1ADFEC50
ENDCHAR
STARTCHAR T
ENCODING 84
SWIDTH 553 0
DWIDTH 9 0
BBX 9 12 0 0
BITMAP
DFFFFFFFB0
2336F43320
0004F10000
0004F10000
0004F10000
0004F10000
0004F10000
0004F10000
0004F10000
0004F10000
0004F10000
0004F10000
ENDCHAR
STARTCHAR U
ENCODING 85
SWIDTH 728 0
DWIDTH 12 0
BBX 10 12 1 0
BITMAP
8C000002F3
8C000002F3
8C000002F3
8C000002F3
8C000002F3
8C000002F3
8C000002F3
8C000002F3
7D000004F2
3F400009D0
0AE7349F40
007DFEB400
ENDCHAR
STARTCHAR V
ENCODING 86
SWIDTH 595 0
DWIDTH 10 0
BBX 10 12 0 0
BITMAP
C9000001F5
7E000006E1
2F40000BA0
0C90002F50
07E0006E10
02F400CA00
00C902F400
007E07E000
002F3B9000
000B8F4000
0006EE0000
0001F90000
ENDCHAR
STARTCHAR W
ENCODING 87
SWIDTH 925 0
DWIDTH 15 0
BBX 15 12 0 0
BITMAP
AB00008F30000E70
6E0000CF70003F30
2F3001F9C0006E00
0D7005E3F100AB00
0AB009A0E500E700
06E00E60AA02F300
02F33F205E06E000
00D77C001F49A000
00AAA8000C7D7000
006DD40007BF3000
002FE00003FE0000
000DB00000EA0000
ENDCHAR
STARTCHAR X
ENCODING 88
SWIDTH 577 0
DWIDTH 9 0
BBX 9 12 0 0
BITMAP
5F20000C90
0BA0006E10
02F401E500
008D09B000
001DAE2000
0005F80000
0009EC0000
003F3E7000
00C806E200
06D100CA00
1E50003F40
AB000009D0
ENDCHAR
STARTCHAR Y
ENCODING 89
SWIDTH 560 0
DWIDTH 9 0
BBX 9 12 0 0
BITMAP
BB00000BB0
3F30003F30
0BB000BA00
03F304F200
00AB0B9000
003F7F2000
000AF90000
0003F30000
0003F20000
0003F20000
0003F20000
0003F20000
ENDCHAR
STARTCHAR Z
ENCODING 90
SWIDTH 570 0
DWIDTH 9 0
BBX 9 12 0 0
BITMAP
3FFFFFFF50
033333AE20
000002F700
00000BC000
00005F3000
0001E90000
0009D10000
004F500000
00DB000000
07E2000000
2F93333320
5FFFFFFF80
ENDCHAR
STARTCHAR bracketleft
ENCODING 91
SWIDTH 329 0
DWIDTH 5 0
BBX 4 15 1 -3
BITMAP
BFFD
BA11
B900
B900
B900
B900
B900
B900
B900
B900
B900
B900
B900
BA21
BFFD
ENDCHAR
STARTCHAR backslash
ENCODING 92
SWIDTH 367 0
DWIDTH 6 0
BBX 6 12 0 0
BITMAP
AA0000
4E1000
0E5000
09B000
03F100
00D600
008C00
002F20
000C70
0007D0
0002F3
0000B8
ENDCHAR
STARTCHAR bracketright
ENCODING 93
SWIDTH 329 0
DWIDTH 5 0
BBX 4 15 0 -3
BITMAP
9FFF
116F
005F
005F
005F
005F
005F
005F
005F
005F
005F
005F
005F
126F
9FFF
ENDCHAR
STARTCHAR asciicircum
ENCODING 94
SWIDTH 541 0
DWIDTH 9 0
BBX 9 8 0 4
BITMAP
0006C00000
000DE40000
004C6B0000
00B60E3000
02E107A000
089001E200
1E30009900
6C00002E10
ENDCHAR
STARTCHAR underscore
ENCODING 95
SWIDTH 448 0
DWIDTH 7 0
BBX 8 1 0 -2
BITMAP
FFFFFFF3
ENDCHAR
STARTCHAR grave
ENCODING 96
SWIDTH 577 0
DWIDTH 9 0
BBX 4 3 3 10
BITMAP
BD00
2E60
03D1
ENDCHAR
STARTCHAR a
ENCODING 97
SWIDTH 556 0
DWIDTH 9 0
BBX 8 9 0 0
BITMAP
019DED70
019426F5
000000C8
000000A9
029CEEF9
1DA300B9
3F2000D9
1F823AF9
05DFD779
ENDCHAR
STARTCHAR b
ENCODING 98
SWIDTH 612 0
DWIDTH 10 0
BBX 8 13 1 0
BITMAP
9A000000
9A000000
9A000000
9A000000
9A7DFC40
9EA328F2
9E0000C9
9B00008C
9A00007D
9B00008C
9E0000C9
9EB328F2
967DFC40
ENDCHAR
STARTCHAR c
ENCODING 99
SWIDTH 476 0
DWIDTH 8 0
BBX 7 9 0 0
BITMAP
004CFEB0
04F83460
0CA00000
0F500000
1F400000
0F500000
0CA00000
05F83360
005CFEA0
ENDCHAR
STARTCHAR d
ENCODING 100
SWIDTH 612 0
DWIDTH 10 0
BBX 9 13 0 0
BITMAP
0000000D70
0000000D70
0000000D70
0000000D70
006DFD5C70
05F724CE70
0CA0003F70
0F50000E70
1F40000D70
0F50000E70
0C90002F70
05F724CE70
006DFD5A70
ENDCHAR
STARTCHAR e
ENCODING 101
SWIDTH 561 0
DWIDTH 9 0
BBX 9 9 0 0
BITMAP
004CFD7000
04F725E600
0BA0008D00
0F60005F10
1FFFFFFF20
0F61111100
0C90000000
04F8335700
004BEFD700
ENDCHAR
STARTCHAR f
ENCODING 102
SWIDTH 338 0
DWIDTH 5 0
BBX 6 13 0 0
BITMAP
003CED
00D923
02F200
03F100
7EFEE3
14F210
04F100
04F100
04F100
04F100
04F100
04F100
04F100
ENDCHAR
STARTCHAR g
ENCODING 103
SWIDTH 547 0
DWIDTH 9 0
BBX 9 13 0 -4
BITMAP
019DFFFE50
09C107E100
0E5000F400
0E5000F400
0AB107D100
01DFEB3000
04D1000000
07B1000000
03FFFFD600
3D53337F20
9900001F40
7D3013AD00
08DFFD9100
ENDCHAR
STARTCHAR h
ENCODING 104
SWIDTH 613 0
DWIDTH 10 0
BBX 8 13 1 0
BITMAP
9A000000
9A000000
9A000000
9A000000
9A6DEC50
9EB328F3
9E1000D6
9B0000C8
9A0000C8
9A0000C8
9A0000C8
9A0000C8
9A0000C8
ENDCHAR
STARTCHAR i
ENCODING 105
SWIDTH 252 0
DWIDTH 4 0
BBX 2 12 1 0
BITMAP
56
89
00
9A
9A
9A
9A
9A
9A
9A
9A
9A
ENDCHAR
STARTCHAR j
ENCODING 106
SWIDTH 252 0
DWIDTH 4 0
BBX 4 16 -1 -4
BITMAP
0056
0089
0000
009A
009A
009A
009A
009A
009A
009A
009A
009A
009A
00AA
22D7
CEB1
ENDCHAR
STARTCHAR k
ENCODING 107
SWIDTH 524 0
DWIDTH 8 0
BBX 8 13 1 0
BITMAP
9A000000
9A000000
9A000000
9A000000
9A001D80
9A01C900
9A0AB000
9A8C1000
9DFE1000
9D4DB000
9A04F700
9A007F30
9A000BD1
ENDCHAR
STARTCHAR l
ENCODING 108
SWIDTH 252 0
DWIDTH 4 0
BBX 2 13 1 0
BITMAP
9A
9A
9A
9A
9A
9A
9A
9A
9A
9A
9A
9A
9A
ENDCHAR
STARTCHAR m
ENCODING 109
SWIDTH 930 0
DWIDTH 15 0
BBX 13 9 1 0
BITMAP
999EFC45CFD700
9FA33CFE526F40
9E1004F6000C80
9B0003F3000B90
9A0003F2000B90
9A0003F2000B90
9A0003F2000B90
9A0003F2000B90
9A0003F2000B90
ENDCHAR
STARTCHAR n
ENCODING 110
SWIDTH 613 0
DWIDTH 10 0
BBX 8 9 1 0
BITMAP
986DFC50
9EB428F3
9E1000D6
9B0000C8
9A0000C8
9A0000C8
9A0000C8
9A0000C8
9A0000C8
ENDCHAR
STARTCHAR o
ENCODING 111
SWIDTH 604 0
DWIDTH 10 0
BBX 9 9 0 0
BITMAP
004CFEA100
04F834BD10
0CA0001E60
0F50000AA0
1F400009B0
0F50000AA0
0BA0001E60
03F823BD10
004BEEA200
ENDCHAR
STARTCHAR p
ENCODING 112
SWIDTH 612 0
DWIDTH 10 0
BBX 8 13 1 -4
BITMAP
987DFC40
9EA339F2
9E1000C9
9B00008C
9A00007D
9B00008C
9E0000D9
9EB339F2
997DFC40
9A000000
9A000000
9A000000
9A000000
ENDCHAR
STARTCHAR q
ENCODING 113
SWIDTH 612 0
DWIDTH 10 0
BBX 9 13 0 -4
BITMAP
006DFC5A70
04F724CE70
0CA0003F70
0F50000E70
1F40000D70
0F50000E70
0C90002F70
05F724CE70
006DFC5D70
0000000D70
0000000D70
0000000D70
0000000D70
ENDCHAR
STARTCHAR r
ENCODING 114
SWIDTH 408 0
DWIDTH 7 0
BBX 6 9 1 0
BITMAP
974DF3
9BD541
9F3000
9C0000
9A0000
9A0000
9A0000
9A0000
9A0000
ENDCHAR
STARTCHAR s
ENCODING 115
SWIDTH 477 0
DWIDTH 8 0
BBX 7 9 0 0
BITMAP
03BEEC50
0E822640
1F300000
0BD61000
006DE800
00004D90
000006D0
2A423C90
1ADFD910
ENDCHAR
STARTCHAR t
ENCODING 116
SWIDTH 353 0
DWIDTH 6 0
BBX 6 11 0 0
BITMAP
02B000
07C000
9FFFF4
08C000
08C000
08C000
08C000
08C000
07C000
05F421
009EE4
ENDCHAR
STARTCHAR u
ENCODING 117
SWIDTH 613 0
DWIDTH 10 0
BBX 8 9 1 0
BITMAP
B90000D7
B90000D7
B90000D7
B90000D7
B90000D7
B90000E7
9B0003F7
5F624CE7
07DFC5A7
ENDCHAR
STARTCHAR v
ENCODING 118
SWIDTH 500 0
DWIDTH 8 0
BBX 8 9 0 0
BITMAP
C800008D
7D0000D7
2F4004F2
0B9009B0
06E00E60
01E44F10
00A99A00
004ED500
000EE000
ENDCHAR
STARTCHAR w
ENCODING 119
SWIDTH 777 0
DWIDTH 12 0
BBX 13 9 0 0
BITMAP
AA0009F2003F20
6E000EE6007D00
2F203E8A00A900
0E608B4E00E500
0AA0C60E43F200
06D2F20A96D000
02F8C006DA9000
00DE7001FE5000
009F3000CF1000
ENDCHAR
STARTCHAR x
ENCODING 120
SWIDTH 523 0
DWIDTH 8 0
BBX 8 9 0 0
BITMAP
3F4000D9
08D108D1
00C93F30
003FD800
000BF200
005ECA00
01E72E50
0AC006E2
5E2000BB
ENDCHAR
STARTCHAR y
ENCODING 121
SWIDTH 503 0
DWIDTH 8 0
BBX 8 13 0 -4
BITMAP
C900008D
6E0000D8
1F5003F2
0AA008C0
04F10D60
00D63F10
008B8B00
002FD500
000BE100
000AA000
002F4000
22BB0000
CEB10000
ENDCHAR
STARTCHAR z
ENCODING 122
SWIDTH 467 0
DWIDTH 7 0
BBX 7 9 0 0
BITMAP
1FFFFFB0
00002E70
0000AC00
0005E200
001E7000
00AC0000
05E20000
1E700000
5FFFFFD0
ENDCHAR
STARTCHAR braceleft
ENCODING 123
SWIDTH 378 0
DWIDTH 6 0
BBX 6 15 0 -3
BITMAP
0006D7
004F72
008C00
009B00
009B00
009A00
14E600
8F8000
14E600
00AA00
009B00
009B00
008C00
004F72
0006D7
ENDCHAR
STARTCHAR bar
ENCODING 124
SWIDTH 550 0
DWIDTH 9 0
BBX 2 17 3 -4
BITMAP
2F
2F
2F
2F
2F
2F
2F
2F
2F
2F
2F
2F
2F
2F
2F
2F
2F
ENDCHAR
STARTCHAR braceright
ENCODING 125
SWIDTH 378 0
DWIDTH 6 0
BBX 6 15 0 -3
BITMAP
6D7000
16F500
00B900
00AA00
00AA00
009A00
005E51
0007F9
005E51
009A00
00AA00
00AA00
00B900
16F500
6D7000
ENDCHAR
STARTCHAR asciitilde
ENCODING 126
SWIDTH 571 0
DWIDTH 9 0
BBX 9 2 0 5
BITMAP
19EE942740
38249DEB10
ENDCHAR
STARTCHAR nonbreakingspace
ENCODING 160
SWIDTH 259 0
DWIDTH 4 0
BBX 1 1 0 0
BITMAP
00
ENDCHAR
STARTCHAR exclamdown
ENCODING 161
SWIDTH 267 0
DWIDTH 4 0
BBX 2 12 1 -3
BITMAP
9D
AE
01
58
59
6A
7A
7B
8C
9C
9D
AE
ENDCHAR
STARTCHAR cent
ENCODING 162
SWIDTH 571 0
DWIDTH 9 0
BBX 7 12 1 0
BITMAP
0006A000
018EFD60
0BD53530
3F300000
6E000000
7D000000
6E000000
3F300000
0CD53550
019EFD60
00069000
00069000
ENDCHAR
STARTCHAR sterling
ENCODING 163
SWIDTH 571 0
DWIDTH 9 0
BBX 9 12 0 0
BITMAP
0007DED900
006E424700
00C8000000
00E6000000
00E6000000
00E6000000
7FFFFFB000
00E6000000
00E6000000
01F4000000
1AC3333320
8FFFFFFF80
ENDCHAR
STARTCHAR currency
ENCODING 164
SWIDTH 571 0
DWIDTH 9 0
BBX 7 8 1 2
BITMAP
30000030
BBCECAC0
2E503D50
78000690
780006A0
2E514D50
ABCFDAC0
30000040
ENDCHAR
STARTCHAR yen
ENCODING 165
SWIDTH 571 0
DWIDTH 9 0
BBX 9 12 0 0
BITMAP
7D00000B90
1E60004F20
06D100C800
00D704E100
005E1C7000
000CBD0000
08FFFFFA00
0001F30000
0001F30000
08FFFFFA00
0001F30000
0001F30000
ENDCHAR
STARTCHAR brokenbar
ENCODING 166
SWIDTH 550 0
DWIDTH 9 0
BBX 2 17 3 -4
BITMAP
2F
2F
2F
2F
2F
2F
00
00
00
00
00
2F
2F
2F
2F
2F
2F
ENDCHAR
STARTCHAR section
ENCODING 167
SWIDTH 516 0
DWIDTH 8 0
BBX 7 13 1 0
BITMAP
1AEFD900
AA213500
C8000000
5FA40000
3DBEC200
C601AD00
D5001F20
7E604E00
06DEF500
0005DC00
00003F20
73129D00
AEFEA200
ENDCHAR
STARTCHAR dieresis
ENCODING 168
SWIDTH 577 0
DWIDTH 9 0
BBX 5 2 2 10
BITMAP
6A07A0
6A0690
ENDCHAR
STARTCHAR copyright
ENCODING 169
SWIDTH 832 0
DWIDTH 13 0
BBX 13 12 0 0
BITMAP
00018CCCA30000
004D60003B7000
02C219EE80A500
0A409B21301C00
0C01F300000850
2A03F000000570
2A03F000000570
0C01F200000850
0A40AA11201C00
02C21AEE70A600
004C50003B7000
00018CCCA30000
ENDCHAR
STARTCHAR ordfeminine
ENCODING 170
SWIDTH 354 0
DWIDTH 6 0
BBX 5 5 0 7
BITMAP
0BCD60
0102D0
1ABBD0
6903D0
2DC9D0
ENDCHAR
STARTCHAR guillemotleft
ENCODING 171
SWIDTH 497 0
DWIDTH 8 0
BBX 8 6 0 1
BITMAP
003C12C1
02E51D60
2D61C800
2D71C800
02E51D70
003C12C1
ENDCHAR
STARTCHAR logicalnot
ENCODING 172
SWIDTH 571 0
DWIDTH 9 0
BBX 9 4 0 2
BITMAP
3FFFFFFF50
0111111C50
0000000B50
0000000B50
ENDCHAR
STARTCHAR uni00AD
ENCODING 173
SWIDTH 321 0
DWIDTH 5 0
BBX 5 2 0 3
BITMAP
5FFF80
133310
ENDCHAR
STARTCHAR registered
ENCODING 174
SWIDTH 832 0
DWIDTH 13 0
BBX 13 12 0 0
BITMAP
00018CCCA30000
004D60003B7000
02C28FFD40A500
0A408A07D01C00
0C008A02F00850
2A008A08C00570
2A008FFE200570
0C008A1E400850
0A408A07C01C00
02C28A01E6A600
004C50003B7000
00018CCCA30000
ENDCHAR
STARTCHAR overscore
ENCODING 175
SWIDTH 500 0
DWIDTH 8 0
BBX 10 1 -1 12
BITMAP
1FFFFFFFF1
ENDCHAR
STARTCHAR degree
ENCODING 176
SWIDTH 428 0
DWIDTH 7 0
BBX 5 5 1 7
BITMAP
2BEA10
B50790
D001C0
B50790
2CEB10
ENDCHAR
STARTCHAR plusminus
ENCODING 177
SWIDTH 571 0
DWIDTH 9 0
BBX 9 11 0 -1
BITMAP
0000510000
0000F20000
0000F20000
0000F20000
3FFFFFFF50
0111F31100
0000F20000
0000F20000
0000610000
3FFFFFFF50
0111111100
ENDCHAR
STARTCHAR twosuperior
ENCODING 178
SWIDTH 347 0
DWIDTH 6 0
BBX 6 7 0 5
BITMAP
2BDD40
2405C0
0004B0
001C40
01C500
1C4000
9FEEE2
ENDCHAR
STARTCHAR threesuperior
ENCODING 179
SWIDTH 347 0
DWIDTH 6 0
BBX 6 7 0 5
BITMAP
4CDD50
2205D0
0007A0
09DE50
0003F1
3003E0
8DDC40
ENDCHAR
STARTCHAR acute
ENCODING 180
SWIDTH 577 0
DWIDTH 9 0
BBX 4 3 3 10
BITMAP
0AD1
3F40
B600
ENDCHAR
STARTCHAR mu
ENCODING 181
SWIDTH 619 0
DWIDTH 10 0
BBX 8 13 1 -4
BITMAP
9A0000C8
9A0000C8
9A0000C8
9A0000C8
9A0000C8
9A0000D8
9C0002F8
9F724CF8
9BCFD798
9A000000
9A000000
9A000000
9A000000
ENDCHAR
STARTCHAR paragraph
ENCODING 182
SWIDTH 654 0
DWIDTH 10 0
BBX 9 15 0 -2
BITMAP
008DFFDDB0
09FFFF32B0
0EFFFF32B0
1FFFFF32B0
1FFFFF32B0
0EFFFF32B0
09FFFF32B0
019DEE32B0
00000B32B0
00000B32B0
00000B32B0
00000B32B0
00000B32B0
00000B32B0
00000B32B0
ENDCHAR
STARTCHAR periodcentered
ENCODING 183
SWIDTH 266 0
DWIDTH 4 0
BBX 2 3 1 4
BITMAP
9D
AE
01
ENDCHAR
STARTCHAR cedilla
ENCODING 184
SWIDTH 227 0
DWIDTH 4 0
BBX 4 4 0 -4
BITMAP
0A30
09C2
00B5
9CA1
ENDCHAR
STARTCHAR onesuperior
ENCODING 185
SWIDTH 347 0
DWIDTH 6 0
BBX 4 7 0 5
BITMAP
04DC
2B6C
004C
004C
004C
004C
004C
ENDCHAR
STARTCHAR ordmasculine
ENCODING 186
SWIDTH 375 0
DWIDTH 6 0
BBX 6 5 0 7
BITMAP
08CC80
4B00B4
770087
4B00B4
08CC80
ENDCHAR
STARTCHAR guillemotright
ENCODING 187
SWIDTH 497 0
DWIDTH 8 0
BBX 8 6 0 1
BITMAP
2C21C200
07D16D20
008C17D1
009C18D1
07D16D20
2C21C200
ENDCHAR
STARTCHAR onequarter
ENCODING 188
SWIDTH 779 0
DWIDTH 12 0
BBX 12 12 0 0
BITMAP
04DB00004D00
3B6B0000D400
004B0007A000
004B001E2000
004B00980000
004B03D10CA0
004B0C508CA0
00006B05A7A0
0001D32C17A0
0008808EEEF9
002D100007A0
00B6000007A0
ENDCHAR
STARTCHAR onehalf
ENCODING 189
SWIDTH 779 0
DWIDTH 12 0
BBX 12 12 0 0
BITMAP
06E80000C500
69880006B000
0088001D3000
008800880000
008802D10000
00880B65CDB1
00885C0410B6
0001D30000A5
0008900005C0
002E10004C10
00A70005C100
04D0000FEEEA
ENDCHAR
STARTCHAR threequarters
ENCODING 190
SWIDTH 779 0
DWIDTH 12 0
BBX 13 12 0 0
BITMAP
5CDD4000089000
3206C0002E1000
00189000B60000
0ADE4005C00000
0003E00D300000
3004E07A03F400
8DDC42E11CD400
00000A70A4D400
00004D0770D400
0000C40DEEFE40
0006A00000D400
001E200000D400
ENDCHAR
STARTCHAR questiondown
ENCODING 191
SWIDTH 429 0
DWIDTH 7 0
BBX 7 12 0 -3
BITMAP
000AC000
000BD000
00001000
00069000
000A7000
007E2000
07E30000
3F400000
8B000000
8B000000
3F734840
05CFDA30
ENDCHAR
STARTCHAR Agrave
ENCODING 192
SWIDTH 632 0
DWIDTH 10 0
BBX 10 16 0 0
BITMAP
003F600000
0008D00000
0000A70000
0000000000
0000AC0000
0001FE3000
0006CA9000
000C75E000
003F20E500
008B009A00
00E6004F10
05FFFFFF70
0AA33339C0
1F400003F3
7D000000C8
C80000007E
ENDCHAR
STARTCHAR Aacute
ENCODING 193
SWIDTH 632 0
DWIDTH 10 0
BBX 10 16 0 0
BITMAP
00000AE100
00002F4000
0000B70000
0000000000
0000AC0000
0001FE3000
0006CA9000
000C75E000
003F20E500
008B009A00
00E6004F10
05FFFFFF70
0AA33339C0
1F400003F3
7D000000C8
C80000007E
ENDCHAR
STARTCHAR Acircumflex
ENCODING 194
SWIDTH 632 0
DWIDTH 10 0
BBX 10 16 0 0
BITMAP
0001ED1000
0009AA9000
006B11B600
0000000000
0000AC0000
0001FE3000
0006CA9000
000C75E000
003F20E500
008B009A00
00E6004F10
05FFFFFF70
0AA33339C0
1F400003F3
7D000000C8
C80000007E
ENDCHAR
STARTCHAR Atilde
ENCODING 195
SWIDTH 632 0
DWIDTH 10 0
BBX 10 15 0 0
BITMAP
004EC53C00
00C35CE400
0000000000
0000AC0000
0001FE3000
0006CA9000
000C75E000
003F20E500
008B009A00
00E6004F10
05FFFFFF70
0AA33339C0
1F400003F3
7D000000C8
C80000007E
ENDCHAR
STARTCHAR Adieresis
ENCODING 196
SWIDTH 632 0
DWIDTH 10 0
BBX 10 15 0 0
BITMAP
001D21D200
001D21D200
0000000000
0000AC0000
0001FE3000
0006CA9000
000C75E000
003F20E500
008B009A00
00E6004F10
05FFFFFF70
0AA33339C0
1F400003F3
7D000000C8
C80000007E
ENDCHAR
STARTCHAR Aring
ENCODING 197
SWIDTH 632 0
DWIDTH 10 0
BBX 10 14 0 0
BITMAP
0004CC5000
000942B000
0004FF5000
0001FE3000
0006CA9000
000C75E000
003F20E500
008B009A00
00E6004F10
05FFFFFF70
0AA33339C0
1F400003F3
7D000000C8
C80000007E
ENDCHAR
STARTCHAR AE
ENCODING 198
SWIDTH 873 0
DWIDTH 14 0
BBX 13 12 0 0
BITMAP
00000CFFFFFFF0
00004F4D933330
0000BA0D700000
0002F30D700000
0009C00D700000
001F500DFFFFB0
008D000D933320
01EFFFFF700000
06E3333D700000
0D80000D700000
5F10000D933330
C900000DFFFFF0
ENDCHAR
STARTCHAR Ccedilla
ENCODING 199
SWIDTH 630 0
DWIDTH 10 0
BBX 9 16 1 -4
BITMAP
003ADFEB40
06FA535930
2F80000000
9D00000000
D900000000
F700000000
F700000000
D800000000
AD00000000
4F70000000
08FA434710
005BEFEB10
0000A40000
00009C2000
00000B5000
0009CB1000
ENDCHAR
STARTCHAR Egrave
ENCODING 200
SWIDTH 556 0
DWIDTH 9 0
BBX 7 16 1 0
BITMAP
04F50000
009C0000
000B6000
00000000
6FFFFFE0
6E333330
6E000000
6E000000
6E000000
6FFFFFA0
6E333320
6E000000
6E000000
6E000000
6E333330
6FFFFFE0
ENDCHAR
STARTCHAR Eacute
ENCODING 201
SWIDTH 556 0
DWIDTH 9 0
BBX 7 16 1 0
BITMAP
0003F600
000AB000
004D1000
00000000
6FFFFFE0
6E333330
6E000000
6E000000
6E000000
6FFFFFA0
6E333320
6E000000
6E000000
6E000000
6E333330
6FFFFFE0
ENDCHAR
STARTCHAR Ecircumflex
ENCODING 202
SWIDTH 556 0
DWIDTH 9 0
BBX 7 16 1 0
BITMAP
004F9000
01D7D400
0B703D20
00000000
6FFFFFE0
6E333330
6E000000
6E000000
6E000000
6FFFFFA0
6E333320
6E000000
6E000000
6E000000
6E333330
6FFFFFE0
ENDCHAR
STARTCHAR Edieresis
ENCODING 203
SWIDTH 556 0
DWIDTH 9 0
BBX 7 15 1 0
BITMAP
04C05C00
04C04B00
00000000
6FFFFFE0
6E333330
6E000000
6E000000
6E000000
6FFFFFA0
6E333320
6E000000
6E000000
6E000000
6E333330
6FFFFFE0
ENDCHAR
STARTCHAR Igrave
ENCODING 204
SWIDTH 278 0
DWIDTH 4 0
BBX 3 16 0 0
BITMAP
BD00
2E50
04D0
0000
06E0
06E0
06E0
06E0
06E0
06E0
06E0
06E0
06E0
06E0
06E0
06E0
ENDCHAR
STARTCHAR Iacute
ENCODING 205
SWIDTH 278 0
DWIDTH 4 0
BBX 4 16 1 0
BITMAP
05F4
0D80
6B00
0000
6E00
6E00
6E00
6E00
6E00
6E00
6E00
6E00
6E00
6E00
6E00
6E00
ENDCHAR
STARTCHAR Icircumflex
ENCODING 206
SWIDTH 278 0
DWIDTH 4 0
BBX 6 16 -1 0
BITMAP
00CF20
07C8C0
3D1098
000000
006E00
006E00
006E00
006E00
006E00
006E00
006E00
006E00
006E00
006E00
006E00
006E00
ENDCHAR
STARTCHAR Idieresis
ENCODING 207
SWIDTH 278 0
DWIDTH 4 0
BBX 5 15 0 0
BITMAP
C50C40
B40C40
000000
06E000
06E000
06E000
06E000
06E000
06E000
06E000
06E000
06E000
06E000
06E000
06E000
ENDCHAR
STARTCHAR Eth
ENCODING 208
SWIDTH 722 0
DWIDTH 12 0
BBX 11 12 0 0
BITMAP
06FFFEC81000
06E2236DD200
06E00001CB00
06E000004F30
06E000000F70
9FFFFD000D80
28E332000D80
06E000001F60
06E000005F20
06E00002DA00
06E2347EC100
06FFFEC71000
ENDCHAR
STARTCHAR Ntilde
ENCODING 209
SWIDTH 753 0
DWIDTH 12 0
BBX 10 15 1 0
BITMAP
003DD62D00
00A54BE600
0000000000
6F600000B8
6FE10000B8
6BD90000B8
6B4F4000B8
6C0AD000B8
6C02E700B8
6C006F20B8
6C000CB0B8
6C0003F5B8
6C00009EB8
6C00001DF8
6C000005F8
ENDCHAR
STARTCHAR Ograve
ENCODING 210
SWIDTH 778 0
DWIDTH 12 0
BBX 11 16 1 0
BITMAP
000BD0000000
0002E5000000
00004D000000
000000000000
005BEFD81000
08F9436CD100
4F500001CA00
AC0000005F20
D80000001F50
F60000000E70
F60000000E70
D80000001F50
AC0000005F20
4F500001CA00
08F8435CD100
005BEFD81000
ENDCHAR
STARTCHAR Oacute
ENCODING 211
SWIDTH 778 0
DWIDTH 12 0
BBX 11 16 1 0
BITMAP
000009E10000
00002F500000
0000A7000000
000000000000
005BEFD81000
08F9436CD100
4F500001CA00
AC0000005F20
D80000001F50
F60000000E70
F60000000E70
D80000001F50
AC0000005F20
4F500001CA00
08F8435CD100
005BEFD81000
ENDCHAR
STARTCHAR Ocircumflex
ENCODING 212
SWIDTH 778 0
DWIDTH 12 0
BBX 11 16 1 0
BITMAP
0000CE200000
0007B9B00000
004C10A80000
000000000000
005BEFD81000
08F9436CD100
4F500001CA00
AC0000005F20
D80000001F50
F60000000E70
F60000000E70
D80000001F50
AC0000005F20
4F500001CA00
08F8435CD100
005BEFD81000
ENDCHAR
STARTCHAR Otilde
ENCODING 213
SWIDTH 778 0
DWIDTH 12 0
BBX 11 15 1 0
BITMAP
002DD62D0000
00954BE60000
000000000000
005BEFD81000
08F9436CD100
4F500001CA00
AC0000005F20
D80000001F50
F60000000E70
F60000000E70
D80000001F50
AC0000005F20
4F500001CA00
08F8435CD100
005BEFD81000
ENDCHAR
STARTCHAR Odieresis
ENCODING 214
SWIDTH 778 0
DWIDTH 12 0
BBX 11 15 1 0
BITMAP
000B50C50000
000B50B40000
000000000000
005BEFD81000
08F9436CD100
4F500001CA00
AC0000005F20
D80000001F50
F60000000E70
F60000000E70
D80000001F50
AC0000005F20
4F500001CA00
08F8435CD100
005BEFD81000
ENDCHAR
STARTCHAR multiply
ENCODING 215
SWIDTH 571 0
DWIDTH 9 0
BBX 7 7 1 2
BITMAP
950004B0
4E504E50
04E8E500
007F9000
04E8E500
4E604E50
960004B0
ENDCHAR
STARTCHAR Oslash
ENCODING 216
SWIDTH 778 0
DWIDTH 12 0
BBX 11 12 1 0
BITMAP
005BEED89700
08F9436DF300
4F50002EEA00
AC0000C96F20
D80007D11F50
F6003E300F70
F700D8000E70
D808C0001F50
AD4E20005F20
4FE60001CA00
0CF9435CD100
3C5BEFD81000
ENDCHAR
STARTCHAR Ugrave
ENCODING 217
SWIDTH 728 0
DWIDTH 12 0
BBX 10 16 1 0
BITMAP
003F700000
0007D10000
0000A70000
0000000000
8C000002F3
8C000002F3
8C000002F3
8C000002F3
8C000002F3
8C000002F3
8C000002F3
8C000002F3
7D000004F2
3F400009D0
0AE7349F40
007DFEB400
ENDCHAR
STARTCHAR Uacute
ENCODING 218
SWIDTH 728 0
DWIDTH 12 0
BBX 10 16 1 0
BITMAP
00001E8000
00008C0000
0002D20000
0000000000
8C000002F3
8C000002F3
8C000002F3
8C000002F3
8C000002F3
8C000002F3
8C000002F3
8C000002F3
7D000004F2
3F400009D0
0AE7349F40
007DFEB400
ENDCHAR
STARTCHAR Ucircumflex
ENCODING 219
SWIDTH 728 0
DWIDTH 12 0
BBX 10 16 1 0
BITMAP
0004FA0000
001D7D5000
00A703D200
0000000000
8C000002F3
8C000002F3
8C000002F3
8C000002F3
8C000002F3
8C000002F3
8C000002F3
8C000002F3
7D000004F2
3F400009D0
0AE7349F40
007DFEB400
ENDCHAR
STARTCHAR Udieresis
ENCODING 220
SWIDTH 728 0
DWIDTH 12 0
BBX 10 15 1 0
BITMAP
004D04C000
003C04C000
0000000000
8C000002F3
8C000002F3
8C000002F3
8C000002F3
8C000002F3
8C000002F3
8C000002F3
8C000002F3
7D000004F2
3F400009D0
0AE7349F40
007DFEB400
ENDCHAR
STARTCHAR Yacute
ENCODING 221
SWIDTH 560 0
DWIDTH 9 0
BBX 9 16 0 0
BITMAP
00004F5000
0000C90000
0005B00000
0000000000
BB00000BB0
3F30003F30
0BB000BA00
03F304F200
00AB0B9000
003F7F2000
000AF90000
0003F30000
0003F20000
0003F20000
0003F20000
0003F20000
ENDCHAR
STARTCHAR Thorn
ENCODING 222
SWIDTH 610 0
DWIDTH 10 0
BBX 8 12 1 0
BITMAP
6E000000
6E000000
6FFFEC50
6E2349F6
6E0000AD
6E00007E
6E0000AC
6E0027F5
6FFFFC50
6E221000
6E000000
6E000000
ENDCHAR
STARTCHAR germandbls
ENCODING 223
SWIDTH 622 0
DWIDTH 10 0
BBX 9 13 1 0
BITMAP
05CEEB3000
4F623AE000
8B0003F200
9A0009D000
9A009E3000
9A03F20000
9A03F40000
9A008F7000
9A0005E800
9A00005F10
9A00001F30
9A0A428E00
9A09EEC300
ENDCHAR
STARTCHAR agrave
ENCODING 224
SWIDTH 556 0
DWIDTH 9 0
BBX 8 13 0 0
BITMAP
009E1000
001D7000
0002D200
00000000
019DED70
019426F5
000000C8
000000A9
029CEEF9
1DA300B9
3F2000D9
1F823AF9
05DFD779
ENDCHAR
STARTCHAR aacute
ENCODING 225
SWIDTH 556 0
DWIDTH 9 0
BBX 8 13 0 0
BITMAP
00005F40
0000C800
0006B000
00000000
019DED70
019426F5
000000C8
000000A9
029CEEF9
1DA300B9
3F2000D9
1F823AF9
05DFD779
ENDCHAR
STARTCHAR acircumflex
ENCODING 226
SWIDTH 556 0
DWIDTH 9 0
BBX 8 13 0 0
BITMAP
0008F500
003E6E20
01D406C0
00000000
019DED70
019426F5
000000C8
000000A9
029CEEF9
1DA300B9
3F2000D9
1F823AF9
05DFD779
ENDCHAR
STARTCHAR atilde
ENCODING 227
SWIDTH 556 0
DWIDTH 9 0
BBX 8 12 0 0
BITMAP
00BE82A3
05939EA0
00000000
019DED70
019426F5
000000C8
000000A9
029CEEF9
1DA300B9
3F2000D9
1F823AF9
05DFD779
ENDCHAR
STARTCHAR adieresis
ENCODING 228
SWIDTH 556 0
DWIDTH 9 0
BBX 8 12 0 0
BITMAP
00A70A60
00960A60
00000000
019DED70
019426F5
000000C8
000000A9
029CEEF9
1DA300B9
3F2000D9
1F823AF9
05DFD779
ENDCHAR
STARTCHAR aring
ENCODING 229
SWIDTH 556 0
DWIDTH 9 0
BBX 8 13 0 0
BITMAP
000ACB00
002B0A30
000ACB10
00000000
019DED70
019426F5
000000C8
000000A9
029CEEF9
1DA300B9
3F2000D9
1F823AF9
05DFD779
ENDCHAR
STARTCHAR ae
ENCODING 230
SWIDTH 857 0
DWIDTH 14 0
BBX 13 9 0 0
BITMAP
03ADFC33CFD500
037329DD726F30
000001FC000BA0
000000E80008C0
029DEEFFFFFFE0
0DA200E8111110
3F2002FB000000
1F824C9F833550
05DFD604BEEC40
ENDCHAR
STARTCHAR ccedilla
ENCODING 231
SWIDTH 476 0
DWIDTH 8 0
BBX 7 13 0 -4
BITMAP
004CFEB0
04F83460
0CA00000
0F500000
1F400000
0F500000
0CA00000
05F83360
005CFEA0
0002B000
0004C700
00003D00
002CC600
ENDCHAR
STARTCHAR egrave
ENCODING 232
SWIDTH 561 0
DWIDTH 9 0
BBX 9 13 0 0
BITMAP
005F400000
0009C00000
0000B50000
0000000000
004CFD7000
04F725E600
0BA0008D00
0F60005F10
1FFFFFFF20
0F61111100
0C90000000
04F8335700
004BEFD700
ENDCHAR
STARTCHAR eacute
ENCODING 233
SWIDTH 561 0
DWIDTH 9 0
BBX 9 13 0 0
BITMAP
00002F8000
00009C0000
0002D20000
0000000000
004CFD7000
04F725E600
0BA0008D00
0F60005F10
1FFFFFFF20
0F61111100
0C90000000
04F8335700
004BEFD700
ENDCHAR
STARTCHAR ecircumflex
ENCODING 234
SWIDTH 561 0
DWIDTH 9 0
BBX 9 13 0 0
BITMAP
0005F90000
001D6E4000
00B603D200
0000000000
004CFD7000
04F725E600
0BA0008D00
0F60005F10
1FFFFFFF20
0F61111100
0C90000000
04F8335700
004BEFD700
ENDCHAR
STARTCHAR edieresis
ENCODING 235
SWIDTH 561 0
DWIDTH 9 0
BBX 9 12 0 0
BITMAP
005B06B000
005B05A000
0000000000
004CFD7000
04F725E600
0BA0008D00
0F60005F10
1FFFFFFF20
0F61111100
0C90000000
04F8335700
004BEFD700
ENDCHAR
STARTCHAR igrave
ENCODING 236
SWIDTH 252 0
DWIDTH 4 0
BBX 4 13 -1 0
BITMAP
2E80
06E1
0089
0000
009A
009A
009A
009A
009A
009A
009A
009A
009A
ENDCHAR
STARTCHAR iacute
ENCODING 237
SWIDTH 252 0
DWIDTH 4 0
BBX 4 13 1 0
BITMAP
07F3
1D70
8A00
0000
9A00
9A00
9A00
9A00
9A00
9A00
9A00
9A00
9A00
ENDCHAR
STARTCHAR icircumflex
ENCODING 238
SWIDTH 252 0
DWIDTH 4 0
BBX 6 13 -1 0
BITMAP
01DE10
09AA90
5B11B6
000000
009A00
009A00
009A00
009A00
009A00
009A00
009A00
009A00
009A00
ENDCHAR
STARTCHAR idieresis
ENCODING 239
SWIDTH 252 0
DWIDTH 4 0
BBX 6 12 -1 0
BITMAP
1D21D2
1D21D1
000000
009A00
009A00
009A00
009A00
009A00
009A00
009A00
009A00
009A00
ENDCHAR
STARTCHAR eth
ENCODING 240
SWIDTH 596 0
DWIDTH 10 0
BBX 9 13 0 0
BITMAP
000B606800
0005EEC300
0019EDB000
003A11E700
0000005E10
006DFD8E50
06E623AF90
0D80000CA0
1F400009B0
1F40000AA0
0D80000D60
05F723AD10
005CFEA200
ENDCHAR
STARTCHAR ntilde
ENCODING 241
SWIDTH 613 0
DWIDTH 10 0
BBX 8 12 1 0
BITMAP
03ED63C0
0B45CE50
00000000
986DFC50
9EB428F3
9E1000D6
9B0000C8
9A0000C8
9A0000C8
9A0000C8
9A0000C8
9A0000C8
ENDCHAR
STARTCHAR ograve
ENCODING 242
SWIDTH 604 0
DWIDTH 10 0
BBX 9 13 0 0
BITMAP
002E800000
0006E10000
0000890000
0000000000
004CFEA100
04F834BD10
0CA0001E60
0F50000AA0
1F400009B0
0F50000AA0
0BA0001E60
03F823BD10
004BEEA200
ENDCHAR
STARTCHAR oacute
ENCODING 243
SWIDTH 604 0
DWIDTH 10 0
BBX 9 13 0 0
BITMAP
00001E9000
00008D1000
0002D20000
0000000000
004CFEA100
04F834BD10
0CA0001E60
0F50000AA0
1F400009B0
0F50000AA0
0BA0001E60
03F823BD10
004BEEA200
ENDCHAR
STARTCHAR ocircumflex
ENCODING 244
SWIDTH 604 0
DWIDTH 10 0
BBX 9 13 0 0
BITMAP
0002FB0000
000C8C7000
008902D300
0000000000
004CFEA100
04F834BD10
0CA0001E60
0F50000AA0
1F400009B0
0F50000AA0
0BA0001E60
03F823BD10
004BEEA200
ENDCHAR
STARTCHAR otilde
ENCODING 245
SWIDTH 604 0
DWIDTH 10 0
BBX 9 12 0 0
BITMAP
006EB45A00
00D36DD300
0000000000
004CFEA100
04F834BD10
0CA0001E60
0F50000AA0
1F400009B0
0F50000AA0
0BA0001E60
03F823BD10
004BEEA200
ENDCHAR
STARTCHAR odieresis
ENCODING 246
SWIDTH 604 0
DWIDTH 10 0
BBX 9 12 0 0
BITMAP
003D04D000
003C03C000
0000000000
004CFEA100
04F834BD10
0CA0001E60
0F50000AA0
1F400009B0
0F50000AA0
0BA0001E60
03F823BD10
004BEEA200
ENDCHAR
STARTCHAR divide
ENCODING 247
SWIDTH 571 0
DWIDTH 9 0
BBX 9 7 0 2
BITMAP
0002E40000
0002C30000
0000000000
3FFFFFFF50
0111111100
0002C30000
0002E40000
ENDCHAR
STARTCHAR oslash
ENCODING 248
SWIDTH 604 0
DWIDTH 10 0
BBX 9 9 0 0
BITMAP
004CFE9C30
04F833EE00
0CA006DE60
0F502E4A90
1F40C809B0
0E58C00AA0
0BCE201E60
04FA23BD10
07ACEEA200
ENDCHAR
STARTCHAR ugrave
ENCODING 249
SWIDTH 613 0
DWIDTH 10 0
BBX 8 13 1 0
BITMAP
03F60000
007D0000
000A7000
00000000
B90000D7
B90000D7
B90000D7
B90000D7
B90000D7
B90000E7
9B0003F7
5F624CE7
07DFC5A7
ENDCHAR
STARTCHAR uacute
ENCODING 250
SWIDTH 613 0
DWIDTH 10 0
BBX 8 13 1 0
BITMAP
0000CC00
0004E200
000D5000
00000000
B90000D7
B90000D7
B90000D7
B90000D7
B90000D7
B90000E7
9B0003F7
5F624CE7
07DFC5A7
ENDCHAR
STARTCHAR ucircumflex
ENCODING 251
SWIDTH 613 0
DWIDTH 10 0
BBX 8 13 1 0
BITMAP
002FC000
00B8C700
08A01C40
00000000
B90000D7
B90000D7
B90000D7
B90000D7
B90000D7
B90000E7
9B0003F7
5F624CE7
07DFC5A7
ENDCHAR
STARTCHAR udieresis
ENCODING 252
SWIDTH 613 0
DWIDTH 10 0
BBX 8 12 1 0
BITMAP
03D13D00
02D03D00
00000000
B90000D7
B90000D7
B90000D7
B90000D7
B90000D7
B90000E7
9B0003F7
5F624CE7
07DFC5A7
ENDCHAR
STARTCHAR yacute
ENCODING 253
SWIDTH 503 0
DWIDTH 8 0
BBX 8 17 0 -4
BITMAP
00008E20
0001E500
00098000
00000000
C900008D
6E0000D8
1F5003F2
0AA008C0
04F10D60
00D63F10
008B8B00
002FD500
000BE100
000AA000
002F4000
22BB0000
CEB10000
ENDCHAR
STARTCHAR thorn
ENCODING 254
SWIDTH 612 0
DWIDTH 10 0
BBX 8 17 1 -4
BITMAP
9A000000
9A000000
9A000000
9A000000
9A7DFC40
9EA338F2
9E1000C9
9B00008C
9A00007D
9B00008C
9E0000C9
9EB328F2
9A7DFC40
9A000000
9A000000
9A000000
9A000000
ENDCHAR
STARTCHAR ydieresis
ENCODING 255
SWIDTH 503 0
DWIDTH 8 0
BBX 8 16 0 -4
BITMAP
01D22D20
01D21D10
00000000
C900008D
6E0000D8
1F5003F2
0AA008C0
04F10D60
00D63F10
008B8B00
002FD500
000BE100
000AA000
002F4000
22BB0000
CEB10000
ENDCHAR
STARTCHAR Amacron
ENCODING 256
SWIDTH 632 0
DWIDTH 10 0
BBX 10 15 0 0
BITMAP
0001111000
002FFFF800
0000000000
0000AC0000
0001FE3000
0006CA9000
000C75E000
003F20E500
008B009A00
00E6004F10
05FFFFFF70
0AA33339C0
1F400003F3
7D000000C8
C80000007E
ENDCHAR
STARTCHAR amacron
ENCODING 257
SWIDTH 556 0
DWIDTH 9 0
BBX 8 12 0 0
BITMAP
00111110
00BFFFE0
00000000
019DED70
019426F5
000000C8
000000A9
029CEEF9
1DA300B9
3F2000D9
1F823AF9
05DFD779
ENDCHAR
STARTCHAR Abreve
ENCODING 258
SWIDTH 632 0
DWIDTH 10 0
BBX 10 15 0 0
BITMAP
003B229500
0008EE9000
0000000000
0000AC0000
0001FE3000
0006CA9000
000C75E000
003F20E500
008B009A00
00E6004F10
05FFFFFF70
0AA33339C0
1F400003F3
7D000000C8
C80000007E
ENDCHAR
STARTCHAR abreve
ENCODING 259
SWIDTH 556 0
DWIDTH 9 0
BBX 8 12 0 0
BITMAP
00C414B0
003CFC30
00000000
019DED70
019426F5
000000C8
000000A9
029CEEF9
1DA300B9
3F2000D9
1F823AF9
05DFD779
ENDCHAR
STARTCHAR Aogonek
ENCODING 260
SWIDTH 632 0
DWIDTH 10 0
BBX 11 15 0 -3
BITMAP
0000AC000000
0001FE300000
0006CA900000
000C75E00000
003F20E50000
008B009A0000
00E6004F1000
05FFFFFF7000
0AA33339C000
1F400003F300
7D000000C800
C8000000AF00
00000002C100
00000006B000
00000002DD20
ENDCHAR
STARTCHAR aogonek
ENCODING 261
SWIDTH 556 0
DWIDTH 9 0
BBX 8 12 0 -3
BITMAP
019DED70
019426F5
000000C8
000000A9
029CEEF9
1DA300B9
3F2000D9
1F823AF9
05DFD7BC
000003C0
00000890
000004ED
ENDCHAR
STARTCHAR Cacute
ENCODING 262
SWIDTH 630 0
DWIDTH 10 0
BBX 9 16 1 0
BITMAP
000009E100
00002F4000
0000A70000
0000000000
003ADFEB40
06FA535930
2F80000000
9D00000000
D900000000
F700000000
F700000000
D800000000
AD00000000
4F70000000
08FA434710
005BEFEB10
ENDCHAR
STARTCHAR cacute
ENCODING 263
SWIDTH 476 0
DWIDTH 8 0
BBX 7 13 0 0
BITMAP
00002F70
0000AB00
0003D100
00000000
004CFEB0
04F83460
0CA00000
0F500000
1F400000
0F500000
0CA00000
05F83360
005CFEA0
ENDCHAR
STARTCHAR Ccircumflex
ENCODING 264
SWIDTH 630 0
DWIDTH 10 0
BBX 9 16 1 0
BITMAP
0000DE1000
0008B9A000
005C10B700
0000000000
003ADFEB40
06FA535930
2F80000000
9D00000000
D900000000
F700000000
F700000000
D800000000
AD00000000
4F70000000
08FA434710
005BEFEB10
ENDCHAR
STARTCHAR ccircumflex
ENCODING 265
SWIDTH 476 0
DWIDTH 8 0
BBX 7 13 0 0
BITMAP
0009F500
004E6D10
01D306B0
00000000
004CFEB0
04F83460
0CA00000
0F500000
1F400000
0F500000
0CA00000
05F83360
005CFEA0
ENDCHAR
STARTCHAR Cdot
ENCODING 266
SWIDTH 630 0
DWIDTH 10 0
BBX 9 15 1 0
BITMAP
00005C0000
00005C0000
0000000000
003ADFEB40
06FA535930
2F80000000
9D00000000
D900000000
F700000000
F700000000
D800000000
AD00000000
4F70000000
08FA434710
005BEFEB10
ENDCHAR
STARTCHAR cdot
ENCODING 267
SWIDTH 476 0
DWIDTH 8 0
BBX 7 12 0 0
BITMAP
0001D400
0000D400
00000000
004CFEB0
04F83460
0CA00000
0F500000
1F400000
0F500000
0CA00000
05F83360
005CFEA0
ENDCHAR
STARTCHAR Ccaron
ENCODING 268
SWIDTH 630 0
DWIDTH 10 0
BBX 9 16 1 0
BITMAP
003D208900
0006D7C100
0000BF3000
0000000000
003ADFEB40
06FA535930
2F80000000
9D00000000
D900000000
F700000000
F700000000
D800000000
AD00000000
4F70000000
08FA434710
005BEFEB10
ENDCHAR
STARTCHAR ccaron
ENCODING 269
SWIDTH 476 0
DWIDTH 8 0
BBX 8 13 0 0
BITMAP
00C603D1
002E6E40
0005F800
00000000
004CFEB0
04F83460
0CA00000
0F500000
1F400000
0F500000
0CA00000
05F83360
005CFEA0
ENDCHAR
STARTCHAR Dcaron
ENCODING 270
SWIDTH 729 0
DWIDTH 12 0
BBX 10 16 1 0
BITMAP
01D406C000
004E6E2000
0008F50000
0000000000
6FFFFD8100
6E2236CE30
6E00000BD0
6E000002F5
6E000000D8
6E000000BA
6E000000BA
6E000000D8
6E000003F4
6E00001CC0
6E2237DD20
6FFFEC7100
ENDCHAR
STARTCHAR dcaron
ENCODING 271
SWIDTH 612 0
DWIDTH 10 0
BBX 11 13 0 0
BITMAP
0000000D76E0
0000000D7890
0000000D7B20
0000000D7000
006DFD5C7000
05F724CE7000
0CA0003F7000
0F50000E7000
1F40000D7000
0F50000E7000
0C90002F7000
05F724CE7000
006DFD5A7000
ENDCHAR
STARTCHAR Dcroat
ENCODING 272
SWIDTH 722 0
DWIDTH 12 0
BBX 11 12 0 0
BITMAP
06FFFEC81000
06E2236DD200
06E00001CB00
06E000004F30
06E000000F70
9FFFFD000D80
28E332000D80
06E000001F60
06E000005F20
06E00002DA00
06E2347EC100
06FFFEC71000
ENDCHAR
STARTCHAR dcroat
ENCODING 273
SWIDTH 612 0
DWIDTH 10 0
BBX 10 13 0 0
BITMAP
0000000D70
0000000D70
0005FFFFFA
0000000D70
006DFD5C70
05F724CE70
0CA0003F70
0F50000E70
1F40000D70
0F50000E70
0C90002F70
05F724CE70
006DFD5A70
ENDCHAR
STARTCHAR Emacron
ENCODING 274
SWIDTH 556 0
DWIDTH 9 0
BBX 7 15 1 0
BITMAP
00111100
08FFFF30
00000000
6FFFFFE0
6E333330
6E000000
6E000000
6E000000
6FFFFFA0
6E333320
6E000000
6E000000
6E000000
6E333330
6FFFFFE0
ENDCHAR
STARTCHAR emacron
ENCODING 275
SWIDTH 561 0
DWIDTH 9 0
BBX 9 12 0 0
BITMAP
0011111000
008FFFF200
0000000000
004CFD7000
04F725E600
0BA0008D00
0F60005F10
1FFFFFFF20
0F61111100
0C90000000
04F8335700
004BEFD700
ENDCHAR
STARTCHAR Ebreve
ENCODING 276
SWIDTH 556 0
DWIDTH 9 0
BBX 7 15 1 0
BITMAP
07812C20
01AED600
00000000
6FFFFFE0
6E333330
6E000000
6E000000
6E000000
6FFFFFA0
6E333320
6E000000
6E000000
6E000000
6E333330
6FFFFFE0
ENDCHAR
STARTCHAR ebreve
ENCODING 277
SWIDTH 561 0
DWIDTH 9 0
BBX 9 12 0 0
BITMAP
009613D000
002CFD4000
0000000000
004CFD7000
04F725E600
0BA0008D00
0F60005F10
1FFFFFFF20
0F61111100
0C90000000
04F8335700
004BEFD700
ENDCHAR
STARTCHAR Edotaccent
ENCODING 278
SWIDTH 556 0
DWIDTH 9 0
BBX 7 15 1 0
BITMAP
000A7000
000A7000
00000000
6FFFFFE0
6E333330
6E000000
6E000000
6E000000
6FFFFFA0
6E333320
6E000000
6E000000
6E000000
6E333330
6FFFFFE0
ENDCHAR
STARTCHAR edotaccent
ENCODING 279
SWIDTH 561 0
DWIDTH 9 0
BBX 9 12 0 0
BITMAP
0000D40000
0000D40000
0000000000
004CFD7000
04F725E600
0BA0008D00
0F60005F10
1FFFFFFF20
0F61111100
0C90000000
04F8335700
004BEFD700
ENDCHAR
STARTCHAR Eogonek
ENCODING 280
SWIDTH 556 0
DWIDTH 9 0
BBX 7 15 1 -3
BITMAP
6FFFFFE0
6E333330
6E000000
6E000000
6E000000
6FFFFFA0
6E333320
6E000000
6E000000
6E000000
6E333330
6FFFFFF0
00006900
0000B600
00006EA0
ENDCHAR
STARTCHAR eogonek
ENCODING 281
SWIDTH 561 0
DWIDTH 9 0
BBX 9 12 0 -3
BITMAP
004CFD7000
04F725E600
0BA0008D00
0F60005F10
1FFFFFFF20
0F61111100
0C90000000
04F8335700
004BEFF700
0000087000
00000D4000
000008E900
ENDCHAR
STARTCHAR Ecaron
ENCODING 282
SWIDTH 556 0
DWIDTH 9 0
BBX 7 16 1 0
BITMAP
08901C40
00C8C700
002FC000
00000000
6FFFFFE0
6E333330
6E000000
6E000000
6E000000
6FFFFFA0
6E333320
6E000000
6E000000
6E000000
6E333330
6FFFFFE0
ENDCHAR
STARTCHAR ecaron
ENCODING 283
SWIDTH 561 0
DWIDTH 9 0
BBX 9 13 0 0
BITMAP
00B703D200
001D6D4000
0004F90000
0000000000
004CFD7000
04F725E600
0BA0008D00
0F60005F10
1FFFFFFF20
0F61111100
0C90000000
04F8335700
004BEFD700
ENDCHAR
STARTCHAR Gcircumflex
ENCODING 284
SWIDTH 728 0
DWIDTH 12 0
BBX 10 16 1 0
BITMAP
00006F7000
0002E6E300
000C504D10
0000000000
0028DEED91
04EB5346A0
2E90000000
8D00000000
D800000000
E600000000
F60006FFF7
D8000133D7
AD000000D7
3F700000D7
07FA5335E7
004AEFEDA3
ENDCHAR
STARTCHAR gcircumflex
ENCODING 285
SWIDTH 547 0
DWIDTH 9 0
BBX 9 17 0 -4
BITMAP
000AF40000
005D7D1000
02D207A000
0000000000
019DFFFE50
09C107E100
0E5000F400
0E5000F400
0AB107D100
01DFEB3000
04D1000000
07B1000000
03FFFFD600
3D53337F20
9900001F40
7D3013AD00
08DFFD9100
ENDCHAR
STARTCHAR Gbreve
ENCODING 286
SWIDTH 728 0
DWIDTH 12 0
BBX 10 15 1 0
BITMAP
0009613D10
0002BED500
0000000000
0028DEED91
04EB5346A0
2E90000000
8D00000000
D800000000
E600000000
F60006FFF7
D8000133D7
AD000000D7
3F700000D7
07FA5335E7
004AEFEDA3
ENDCHAR
STARTCHAR gbreve
ENCODING 287
SWIDTH 547 0
DWIDTH 9 0
BBX 9 16 0 -4
BITMAP
00D3169000
005DEB1000
0000000000
019DFFFE50
09C107E100
0E5000F400
0E5000F400
0AB107D100
01DFEB3000
04D1000000
07B1000000
03FFFFD600
3D53337F20
9900001F40
7D3013AD00
08DFFD9100
ENDCHAR
STARTCHAR Gdot
ENCODING 288
SWIDTH 728 0
DWIDTH 12 0
BBX 10 15 1 0
BITMAP
00000C6000
00000B6000
0000000000
0028DEED91
04EB5346A0
2E90000000
8D00000000
D800000000
E600000000
F60006FFF7
D8000133D7
AD000000D7
3F700000D7
07FA5335E7
004AEFEDA3
ENDCHAR
STARTCHAR gdot
ENCODING 289
SWIDTH 547 0
DWIDTH 9 0
BBX 9 16 0 -4
BITMAP
0005D00000
0004C00000
0000000000
019DFFFE50
09C107E100
0E5000F400
0E5000F400
0AB107D100
01DFEB3000
04D1000000
07B1000000
03FFFFD600
3D53337F20
9900001F40
7D3013AD00
08DFFD9100
ENDCHAR
STARTCHAR Gcommaaccent
ENCODING 290
SWIDTH 728 0
DWIDTH 12 0
BBX 10 16 1 -4
BITMAP
0028DEED91
04EB5346A0
2E90000000
8D00000000
D800000000
E600000000
F60006FFF7
D8000133D7
AD000000D7
3F700000D7
07FA5335E7
004AEFEDA3
0000000000
00003F1000
00006B0000
0000A30000
ENDCHAR
STARTCHAR gcommaaccent
ENCODING 291
SWIDTH 547 0
DWIDTH 9 0
BBX 9 17 0 -4
BITMAP
0000760000
0001E20000
0005E00000
0000000000
019DFFFE50
09C107E100
0E5000F400
0E5000F400
0AB107D100
01DFEB3000
04D1000000
07B1000000
03FFFFD600
3D53337F20
9900001F40
7D3013AD00
08DFFD9100
ENDCHAR
STARTCHAR Hcircumflex
ENCODING 292
SWIDTH 737 0
DWIDTH 12 0
BBX 10 16 1 0
BITMAP
0002EC0000
000B9C8000
007A01C400
0000000000
6E000001F4
6E000001F4
6E000001F4
6E000001F4
6E000001F4
6FFFFFFFF4
6E333334F4
6E000001F4
6E000001F4
6E000001F4
6E000001F4
6E000001F4
ENDCHAR
STARTCHAR hcircumflex
ENCODING 293
SWIDTH 613 0
DWIDTH 10 0
BBX 8 17 1 0
BITMAP
001ED000
00A9B900
06B01C50
00000000
9A000000
9A000000
9A000000
9A000000
9A6DEC50
9EB328F3
9E1000D6
9B0000C8
9A0000C8
9A0000C8
9A0000C8
9A0000C8
9A0000C8
ENDCHAR
STARTCHAR Hbar
ENCODING 294
SWIDTH 737 0
DWIDTH 12 0
BBX 12 12 0 0
BITMAP
06E000001F40
06E000001F40
FFFFFFFFFFFC
27E222223F51
06E000001F40
06FFFFFFFF40
06E333334F40
06E000001F40
06E000001F40
06E000001F40
06E000001F40
06E000001F40
ENDCHAR
STARTCHAR hbar
ENCODING 295
SWIDTH 613 0
DWIDTH 10 0
BBX 9 13 0 0
BITMAP
09A0000000
09A0000000
DFFFFF3000
09A0000000
09A9EFC500
09FB428F20
09E1000D60
09B0000C80
09A0000C80
09A0000C80
09A0000C80
09A0000C80
09A0000C80
ENDCHAR
STARTCHAR Itilde
ENCODING 296
SWIDTH 278 0
DWIDTH 4 0
BBX 7 15 -1 0
BITMAP
2DD72C10
864BE700
00000000
006E0000
006E0000
006E0000
006E0000
006E0000
006E0000
006E0000
006E0000
006E0000
006E0000
006E0000
006E0000
ENDCHAR
STARTCHAR itilde
ENCODING 297
SWIDTH 252 0
DWIDTH 4 0
BBX 6 12 -1 0
BITMAP
4EC53C
B45CE5
000000
009A00
009A00
009A00
009A00
009A00
009A00
009A00
009A00
009A00
ENDCHAR
STARTCHAR Imacron
ENCODING 298
SWIDTH 278 0
DWIDTH 4 0
BBX 6 15 -1 0
BITMAP
011111
1FFFF9
000000
006E00
006E00
006E00
006E00
006E00
006E00
006E00
006E00
006E00
006E00
006E00
006E00
ENDCHAR
STARTCHAR imacron
ENCODING 299
SWIDTH 252 0
DWIDTH 4 0
BBX 6 12 -1 0
BITMAP
011110
4FFFF6
000000
009A00
009A00
009A00
009A00
009A00
009A00
009A00
009A00
009A00
ENDCHAR
STARTCHAR Ibreve
ENCODING 300
SWIDTH 278 0
DWIDTH 4 0
BBX 6 15 -1 0
BITMAP
1C2178
06EEA1
000000
006E00
006E00
006E00
006E00
006E00
006E00
006E00
006E00
006E00
006E00
006E00
006E00
ENDCHAR
STARTCHAR ibreve
ENCODING 301
SWIDTH 252 0
DWIDTH 4 0
BBX 6 12 -1 0
BITMAP
4A12A4
09EE80
000000
009A00
009A00
009A00
009A00
009A00
009A00
009A00
009A00
009A00
ENDCHAR
STARTCHAR Iogonek
ENCODING 302
SWIDTH 278 0
DWIDTH 4 0
BBX 4 15 0 -3
BITMAP
06E0
06E0
06E0
06E0
06E0
06E0
06E0
06E0
06E0
06E0
06E0
09F0
1D20
4D00
1CE4
ENDCHAR
STARTCHAR iogonek
ENCODING 303
SWIDTH 252 0
DWIDTH 4 0
BBX 3 15 0 -3
BITMAP
0560
0890
0000
09A0
09A0
09A0
09A0
09A0
09A0
09A0
09A0
0ED0
3C00
8900
4ED0
ENDCHAR
STARTCHAR Idotaccent
ENCODING 304
SWIDTH 278 0
DWIDTH 4 0
BBX 2 15 1 0
BITMAP
5C
5C
00
6E
6E
6E
6E
6E
6E
6E
6E
6E
6E
6E
6E
ENDCHAR
STARTCHAR dotlessi
ENCODING 305
SWIDTH 252 0
DWIDTH 4 0
BBX 2 9 1 0
BITMAP
9A
9A
9A
9A
9A
9A
9A
9A
9A
ENDCHAR
STARTCHAR IJ
ENCODING 306
SWIDTH 545 0
DWIDTH 9 0
BBX 7 15 1 -3
BITMAP
6E001F40
6E001F40
6E001F40
6E001F40
6E001F40
6E001F40
6E001F40
6E001F40
6E001F40
6E001F40
6E001F40
6E001F40
00002F30
0033AD00
00BEC300
ENDCHAR
STARTCHAR ij
ENCODING 307
SWIDTH 505 0
DWIDTH 8 0
BBX 6 16 1 -4
BITMAP
560057
89008A
000000
9A009B
9A009B
9A009B
9A009B
9A009B
9A009B
9A009B
9A009B
9A009B
00009B
00009A
0022D8
00BFB1
ENDCHAR
STARTCHAR Jcircumflex
ENCODING 308
SWIDTH 267 0
DWIDTH 4 0
BBX 7 19 -2 -3
BITMAP
000CE200
007C8B00
04C10A80
00000000
0008C000
0008C000
0008C000
0008C000
0008C000
0008C000
0008C000
0008C000
0008C000
0008C000
0008C000
0008C000
0009B000
145E6000
3EE80000
ENDCHAR
STARTCHAR jcircumflex
ENCODING 309
SWIDTH 252 0
DWIDTH 4 0
BBX 6 17 -1 -4
BITMAP
01ED00
0A9B90
6B01C5
000000
009A00
009A00
009A00
009A00
009A00
009A00
009A00
009A00
009A00
009A00
00AA00
22D700
CEB100
ENDCHAR
STARTCHAR Kcommaaccent
ENCODING 310
SWIDTH 613 0
DWIDTH 10 0
BBX 9 16 1 -4
BITMAP
6E00005F40
6E0004F500
6E002E7000
6E01D90000
6E1CA00000
6EAF400000
6FBAD10000
6E01DA0000
6E004F6000
6E0008E200
6E0000CB00
6E00002E70
0000000000
0007D00000
000A700000
000D100000
ENDCHAR
STARTCHAR kcommaaccent
ENCODING 311
SWIDTH 524 0
DWIDTH 8 0
BBX 8 17 1 -4
BITMAP
9A000000
9A000000
9A000000
9A000000
9A001D80
9A01C900
9A0AB000
9A8C1000
9DFE1000
9D4DB000
9A04F700
9A007F30
9A000BD1
00000000
003F2000
006B0000
00A40000
ENDCHAR
STARTCHAR kgreenlandic
ENCODING 312
SWIDTH 518 0
DWIDTH 8 0
BBX 7 9 1 0
BITMAP
9C002E90
9C00CB00
9B09D100
9B6E3000
9DEE2000
9E3BC000
9C02E700
9C006F30
9C000AD0
ENDCHAR
STARTCHAR Lacute
ENCODING 313
SWIDTH 519 0
DWIDTH 8 0
BBX 7 16 1 0
BITMAP
00DA0000
06D10000
1D300000
00000000
6E000000
6E000000
6E000000
6E000000
6E000000
6E000000
6E000000
6E000000
6E000000
6E000000
6E333330
6FFFFFE0
ENDCHAR
STARTCHAR lacute
ENCODING 314
SWIDTH 252 0
DWIDTH 4 0
BBX 4 17 1 0
BITMAP
07F2
1E60
8900
0000
9A00
9A00
9A00
9A00
9A00
9A00
9A00
9A00
9A00
9A00
9A00
9A00
9A00
ENDCHAR
STARTCHAR Lcommaaccent
ENCODING 315
SWIDTH 519 0
DWIDTH 8 0
BBX 7 16 1 -4
BITMAP
6E000000
6E000000
6E000000
6E000000
6E000000
6E000000
6E000000
6E000000
6E000000
6E000000
6E333330
6FFFFFE0
00000000
002F2000
005C0000
00940000
ENDCHAR
STARTCHAR lcommaaccent
ENCODING 316
SWIDTH 252 0
DWIDTH 4 0
BBX 3 17 0 -4
BITMAP
09A0
09A0
09A0
09A0
09A0
09A0
09A0
09A0
09A0
09A0
09A0
09A0
09A0
0000
0B90
0E30
3B00
ENDCHAR
STARTCHAR Lcaron
ENCODING 317
SWIDTH 519 0
DWIDTH 8 0
BBX 7 12 1 0
BITMAP
6E004F10
6E006B00
6E009400
6E000000
6E000000
6E000000
6E000000
6E000000
6E000000
6E000000
6E333330
6FFFFFE0
ENDCHAR
STARTCHAR lcaron
ENCODING 318
SWIDTH 252 0
DWIDTH 4 0
BBX 5 13 1 0
BITMAP
9A2F30
9A4C00
9A7500
9A0000
9A0000
9A0000
9A0000
9A0000
9A0000
9A0000
9A0000
9A0000
9A0000
ENDCHAR
STARTCHAR Ldot
ENCODING 319
SWIDTH 519 0
DWIDTH 8 0
BBX 7 12 1 0
BITMAP
6E000000
6E000000
6E000000
6E000000
6E000000
6E008A00
6E007900
6E000000
6E000000
6E000000
6E333330
6FFFFFE0
ENDCHAR
STARTCHAR ldot
ENCODING 320
SWIDTH 313 0
DWIDTH 5 0
BBX 5 13 1 0
BITMAP
9A0000
9A0000
9A0000
9A0000
9A0000
9A0000
9A0000
9A2D30
9A1D20
9A0000
9A0000
9A0000
9A0000
ENDCHAR
STARTCHAR Lslash
ENCODING 321
SWIDTH 522 0
DWIDTH 8 0
BBX 8 12 0 0
BITMAP
06E00000
06E00000
06E00000
06E00000
06E18700
06EDB200
2BF50000
7CE00000
06E00000
06E00000
06E33333
06FFFFFE
ENDCHAR
STARTCHAR lslash
ENCODING 322
SWIDTH 261 0
DWIDTH 4 0
BBX 5 13 0 0
BITMAP
09A000
09A000
09A000
09A000
09A000
09BB10
0AFA10
7FB000
ACA000
09A000
09A000
09A000
09A000
ENDCHAR
STARTCHAR Nacute
ENCODING 323
SWIDTH 753 0
DWIDTH 12 0
BBX 10 16 1 0
BITMAP
00000AD100
00003F4000
0000B60000
0000000000
6F600000B8
6FE10000B8
6BD90000B8
6B4F4000B8
6C0AD000B8
6C02E700B8
6C006F20B8
6C000CB0B8
6C0003F5B8
6C00009EB8
6C00001DF8
6C000005F8
ENDCHAR
STARTCHAR nacute
ENCODING 324
SWIDTH 613 0
DWIDTH 10 0
BBX 8 13 1 0
BITMAP
0000BD00
0004F300
000C5000
00000000
986DFC50
9EB428F3
9E1000D6
9B0000C8
9A0000C8
9A0000C8
9A0000C8
9A0000C8
9A0000C8
ENDCHAR
STARTCHAR Ncommaaccent
ENCODING 325
SWIDTH 753 0
DWIDTH 12 0
BBX 10 16 1 -4
BITMAP
6F600000B8
6FE10000B8
6BD90000B8
6B4F4000B8
6C0AD000B8
6C02E700B8
6C006F20B8
6C000CB0B8
6C0003F5B8
6C00009EB8
6C00001DF8
6C000005F8
0000000000
0000E60000
0002E10000
0006800000
ENDCHAR
STARTCHAR ncommaaccent
ENCODING 326
SWIDTH 613 0
DWIDTH 10 0
BBX 8 13 1 -4
BITMAP
986DFC50
9EB428F3
9E1000D6
9B0000C8
9A0000C8
9A0000C8
9A0000C8
9A0000C8
9A0000C8
00000000
000D7000
001F1000
00590000
ENDCHAR
STARTCHAR Ncaron
ENCODING 327
SWIDTH 753 0
DWIDTH 12 0
BBX 10 16 1 0
BITMAP
006B10B600
0009AAA000
0001DE1000
0000000000
6F600000B8
6FE10000B8
6BD90000B8
6B4F4000B8
6C0AD000B8
6C02E700B8
6C006F20B8
6C000CB0B8
6C0003F5B8
6C00009EB8
6C00001DF8
6C000005F8
ENDCHAR
STARTCHAR ncaron
ENCODING 328
SWIDTH 613 0
DWIDTH 10 0
BBX 8 13 1 0
BITMAP
06B01C50
00A9A900
001ED000
00000000
986DFC50
9EB428F3
9E1000D6
9B0000C8
9A0000C8
9A0000C8
9A0000C8
9A0000C8
9A0000C8
ENDCHAR
STARTCHAR napostrophe
ENCODING 329
SWIDTH 681 0
DWIDTH 11 0
BBX 10 12 0 0
BITMAP
4F30000000
7E00000000
A800000000
D2895DFD60
008EB427F3
008F1000C7
008C0000B9
008B0000B9
008B0000B9
008B0000B9
008B0000B9
008B0000B9
ENDCHAR
STARTCHAR Eng
ENCODING 330
SWIDTH 753 0
DWIDTH 12 0
BBX 10 15 1 -3
BITMAP
6F600000B8
6FE10000B8
6BDA0000B8
6B4F4000B8
6C09D100B8
6C01D800B8
6C004F30B8
6C000AC0B8
6C0001E7B8
6C00005EC8
6C00000AF8
6C000002E7
00000000D6
00000338F2
000008FD50
ENDCHAR
STARTCHAR eng
ENCODING 331
SWIDTH 613 0
DWIDTH 10 0
BBX 8 13 1 -4
BITMAP
987DFC50
9EB428F3
9E1000D6
9B0000C8
9A0000C8
9A0000C8
9A0000C8
9A0000C8
9A0000C8
000000C8
000000C8
000023E5
0000BEA0
ENDCHAR
STARTCHAR Omacron
ENCODING 332
SWIDTH 778 0
DWIDTH 12 0
BBX 11 15 1 0
BITMAP
000111110000
001FFFF90000
000000000000
005BEFD81000
08F9436CD100
4F500001CA00
AC0000005F20
D80000001F50
F60000000E70
F60000000E70
D80000001F50
AC0000005F20
4F500001CA00
08F8435CD100
005BEFD81000
ENDCHAR
STARTCHAR omacron
ENCODING 333
SWIDTH 604 0
DWIDTH 10 0
BBX 9 12 0 0
BITMAP
0001111000
008FFFF300
0000000000
004CFEA100
04F834BD10
0CA0001E60
0F50000AA0
1F400009B0
0F50000AA0
0BA0001E60
03F823BD10
004BEEA200
ENDCHAR
STARTCHAR Obreve
ENCODING 334
SWIDTH 778 0
DWIDTH 12 0
BBX 11 15 1 0
BITMAP
001C21780000
0006EEA10000
000000000000
005BEFD81000
08F9436CD100
4F500001CA00
AC0000005F20
D80000001F50
F60000000E70
F60000000E70
D80000001F50
AC0000005F20
4F500001CA00
08F8435CD100
005BEFD81000
ENDCHAR
STARTCHAR obreve
ENCODING 335
SWIDTH 604 0
DWIDTH 10 0
BBX 9 12 0 0
BITMAP
007812C200
001BED6000
0000000000
004CFEA100
04F834BD10
0CA0001E60
0F50000AA0
1F400009B0
0F50000AA0
0BA0001E60
03F823BD10
004BEEA200
ENDCHAR
STARTCHAR Ohungarumlaut
ENCODING 336
SWIDTH 778 0
DWIDTH 12 0
BBX 11 16 1 0
BITMAP
0000D92F6000
0005D18B0000
000C32D10000
000000000000
005BEFD81000
08F9436CD100
4F500001CA00
AC0000005F20
D80000001F50
F60000000E70
F60000000E70
D80000001F50
AC0000005F20
4F500001CA00
08F8435CD100
005BEFD81000
ENDCHAR
STARTCHAR ohungarumlaut
ENCODING 337
SWIDTH 604 0
DWIDTH 10 0
BBX 9 13 0 0
BITMAP
0005F28D10
000C81E400
005B087000
0000000000
004CFEA100
04F834BD10
0CA0001E60
0F50000AA0
1F400009B0
0F50000AA0
0BA0001E60
03F823BD10
004BEEA200
ENDCHAR
STARTCHAR OE
ENCODING 338
SWIDTH 922 0
DWIDTH 15 0
BBX 13 12 1 0
BITMAP
005BEFFFFFFFC0
08F9437F533320
4F50002F300000
AC00002F300000
D800002F300000
F600002FFFFF80
F600002F533310
D800002F300000
AC00002F300000
4F50002F300000
08F8436F533320
005BEFFFFFFFC0
ENDCHAR
STARTCHAR oe
ENCODING 339
SWIDTH 941 0
DWIDTH 15 0
BBX 15 9 0 0
BITMAP
005CFD701AEE8000
05F724C8CA24E800
0C90003FD0006E00
1F50000EA0003F20
1F40000CFFFFFF40
0F50000DA1111100
0C90002FD0000000
04F724CBDA434700
004CFE912AEFD800
ENDCHAR
STARTCHAR Racute
ENCODING 340
SWIDTH 618 0
DWIDTH 10 0
BBX 9 16 1 0
BITMAP
0000BD0000
0004F30000
000C500000
0000000000
6FFFEC5000
6E3349F400
6E0000CA00
6E00009C00
6E0000BA00
6E0017F300
6FFFFD3000
6E228E1000
6E001E8000
6E0006F200
6E0000CB00
6E00004F50
ENDCHAR
STARTCHAR racute
ENCODING 341
SWIDTH 408 0
DWIDTH 7 0
BBX 6 13 1 0
BITMAP
001EA0
007D10
01D300
000000
974DF3
9BD541
9F3000
9C0000
9A0000
9A0000
9A0000
9A0000
9A0000
ENDCHAR
STARTCHAR Rcommaaccent
ENCODING 342
SWIDTH 618 0
DWIDTH 10 0
BBX 9 16 1 -4
BITMAP
6FFFEC5000
6E3349F400
6E0000CA00
6E00009C00
6E0000BA00
6E0017F300
6FFFFD3000
6E228E1000
6E001E8000
6E0006F200
6E0000CB00
6E00004F50
0000000000
0008B00000
000B600000
001D000000
ENDCHAR
STARTCHAR rcommaaccent
ENCODING 343
SWIDTH 408 0
DWIDTH 7 0
BBX 7 13 0 -4
BITMAP
0974DF30
09BD5410
09F30000
09C00000
09A00000
09A00000
09A00000
09A00000
09A00000
00000000
0AA00000
0D400000
2B000000
ENDCHAR
STARTCHAR Rcaron
ENCODING 344
SWIDTH 618 0
DWIDTH 10 0
BBX 9 16 1 0
BITMAP
07B01C5000
00A9B80000
001ED00000
0000000000
6FFFEC5000
6E3349F400
6E0000CA00
6E00009C00
6E0000BA00
6E0017F300
6FFFFD3000
6E228E1000
6E001E8000
6E0006F200
6E0000CB00
6E00004F50
ENDCHAR
STARTCHAR rcaron
ENCODING 345
SWIDTH 408 0
DWIDTH 7 0
BBX 6 13 1 0
BITMAP
B603D2
1E6E40
05F900
000000
974DF3
9BD541
9F3000
9C0000
9A0000
9A0000
9A0000
9A0000
9A0000
ENDCHAR
STARTCHAR Sacute
ENCODING 346
SWIDTH 548 0
DWIDTH 9 0
BBX 8 16 0 0
BITMAP
00001E80
00008C00
0002D200
00000000
007DFEB5
09E63485
0E700000
0E700000
0AD30000
01AFB500
00039FC2
000002DB
0000006F
0000007E
295337E7
1ADFEC50
ENDCHAR
STARTCHAR sacute
ENCODING 347
SWIDTH 477 0
DWIDTH 8 0
BBX 7 13 0 0
BITMAP
0000DB00
0005E200
000D4000
00000000
03BEEC50
0E822640
1F300000
0BD61000
006DE800
00004D90
000006D0
2A423C90
1ADFD910
ENDCHAR
STARTCHAR Scircumflex
ENCODING 348
SWIDTH 548 0
DWIDTH 9 0
BBX 8 16 0 0
BITMAP
0006F700
002E6E30
00C504D1
00000000
007DFEB5
09E63485
0E700000
0E700000
0AD30000
01AFB500
00039FC2
000002DB
0000006F
0000007E
295337E7
1ADFEC50
ENDCHAR
STARTCHAR scircumflex
ENCODING 349
SWIDTH 477 0
DWIDTH 8 0
BBX 7 13 0 0
BITMAP
002EC000
00B9C800
07A01C40
00000000
03BEEC50
0E822640
1F300000
0BD61000
006DE800
00004D90
000006D0
2A423C90
1ADFD910
ENDCHAR
STARTCHAR Scedilla
ENCODING 350
SWIDTH 548 0
DWIDTH 9 0
BBX 8 16 0 -4
BITMAP
007DFEB5
09E63485
0E700000
0E700000
0AD30000
01AFB500
00039FC2
000002DB
0000006F
0000007E
295337E7
1ADFEC50
00058000
0006C500
00006A00
005CC300
ENDCHAR
STARTCHAR scedilla
ENCODING 351
SWIDTH 477 0
DWIDTH 8 0
BBX 7 13 0 -4
BITMAP
03BEEC50
0E822640
1F300000
0BD61000
006DE800
00004D90
000006D0
2A423C90
1ADFD910
001C0000
003B9000
0001F000
00CD7000
ENDCHAR
STARTCHAR Scaron
ENCODING 352
SWIDTH 548 0
DWIDTH 9 0
BBX 8 16 0 0
BITMAP
01C505C1
003E6E20
0007F700
00000000
007DFEB5
09E63485
0E700000
0E700000
0AD30000
01AFB500
00039FC2
000002DB
0000006F
0000007E
295337E7
1ADFEC50
ENDCHAR
STARTCHAR scaron
ENCODING 353
SWIDTH 477 0
DWIDTH 8 0
BBX 7 13 0 0
BITMAP
07A01C50
00B9B800
002EC000
00000000
03BEEC50
0E822640
1F300000
0BD61000
006DE800
00004D90
000006D0
2A423C90
1ADFD910
ENDCHAR
STARTCHAR Tcedilla
ENCODING 354
SWIDTH 553 0
DWIDTH 9 0
BBX 9 16 0 -4
BITMAP
DFFFFFFFB0
2336F43320
0004F10000
0004F10000
0004F10000
0004F10000
0004F10000
0004F10000
0004F10000
0004F10000
0004F10000
0004F10000
0002B00000
0004C70000
00003D0000
003CC50000
ENDCHAR
STARTCHAR tcedilla
ENCODING 355
SWIDTH 353 0
DWIDTH 6 0
BBX 6 15 0 -4
BITMAP
02B000
07C000
9FFFF4
08C000
08C000
08C000
08C000
08C000
07C000
05F421
009EE4
002B00
004C70
0003D0
02CC60
ENDCHAR
STARTCHAR Tcaron
ENCODING 356
SWIDTH 553 0
DWIDTH 9 0
BBX 9 16 0 0
BITMAP
01D405C000
003E6E2000
0008F60000
0000000000
DFFFFFFFB0
2336F43320
0004F10000
0004F10000
0004F10000
0004F10000
0004F10000
0004F10000
0004F10000
0004F10000
0004F10000
0004F10000
ENDCHAR
STARTCHAR tcaron
ENCODING 357
SWIDTH 353 0
DWIDTH 6 0
BBX 6 13 0 0
BITMAP
0000B9
0000D4
02B1C0
07C000
9FFFF4
08C000
08C000
08C000
08C000
08C000
07C000
05F421
009EE4
ENDCHAR
STARTCHAR Tbar
ENCODING 358
SWIDTH 553 0
DWIDTH 9 0
BBX 9 12 0 0
BITMAP
DFFFFFFFB0
2336F43320
0004F10000
0004F10000
0004F10000
0AFFFFF800
0125F32100
0004F10000
0004F10000
0004F10000
0004F10000
0004F10000
ENDCHAR
STARTCHAR tbar
ENCODING 359
SWIDTH 353 0
DWIDTH 6 0
BBX 6 11 0 0
BITMAP
02B000
07C000
9FFFF4
08C000
08C000
9FFFF2
08C000
08C000
07C000
04F521
009EE4
ENDCHAR
STARTCHAR Utilde
ENCODING 360
SWIDTH 728 0
DWIDTH 12 0
BBX 10 15 1 0
BITMAP
006EB45A00
00D36DD300
0000000000
8C000002F3
8C000002F3
8C000002F3
8C000002F3
8C000002F3
8C000002F3
8C000002F3
8C000002F3
7D000004F2
3F400009D0
0AE7349F40
007DFEB400
ENDCHAR
STARTCHAR utilde
ENCODING 361
SWIDTH 613 0
DWIDTH 10 0
BBX 8 12 1 0
BITMAP
05EC44A0
0C36DD30
00000000
B90000D7
B90000D7
B90000D7
B90000D7
B90000D7
B90000E7
9B0003F7
5F624CE7
07DFC5A7
ENDCHAR
STARTCHAR Umacron
ENCODING 362
SWIDTH 728 0
DWIDTH 12 0
BBX 10 15 1 0
BITMAP
0001111000
008FFFF300
0000000000
8C000002F3
8C000002F3
8C000002F3
8C000002F3
8C000002F3
8C000002F3
8C000002F3
8C000002F3
7D000004F2
3F400009D0
0AE7349F40
007DFEB400
ENDCHAR
STARTCHAR umacron
ENCODING 363
SWIDTH 613 0
DWIDTH 10 0
BBX 8 12 1 0
BITMAP
00111100
07FFFF40
00000000
B90000D7
B90000D7
B90000D7
B90000D7
B90000D7
B90000E7
9B0003F7
5F624CE7
07DFC5A7
ENDCHAR
STARTCHAR Ubreve
ENCODING 364
SWIDTH 728 0
DWIDTH 12 0
BBX 10 15 1 0
BITMAP
007812C200
001BED6000
0000000000
8C000002F3
8C000002F3
8C000002F3
8C000002F3
8C000002F3
8C000002F3
8C000002F3
8C000002F3
7D000004F2
3F400009D0
0AE7349F40
007DFEB400
ENDCHAR
STARTCHAR ubreve
ENCODING 365
SWIDTH 613 0
DWIDTH 10 0
BBX 8 12 1 0
BITMAP
07812C20
01AEE600
00000000
B90000D7
B90000D7
B90000D7
B90000D7
B90000D7
B90000E7
9B0003F7
5F624CE7
07DFC5A7
ENDCHAR
STARTCHAR Uring
ENCODING 366
SWIDTH 728 0
DWIDTH 12 0
BBX 10 16 1 0
BITMAP
0007CC3000
000D158000
0007CC3000
0000000000
8C000002F3
8C000002F3
8C000002F3
8C000002F3
8C000002F3
8C000002F3
8C000002F3
8C000002F3
7D000004F2
3F400009D0
0AE7349F40
007DFEB400
ENDCHAR
STARTCHAR uring
ENCODING 367
SWIDTH 613 0
DWIDTH 10 0
BBX 8 13 1 0
BITMAP
006CC300
00C14900
006CC300
00000000
B90000D7
B90000D7
B90000D7
B90000D7
B90000D7
B90000E7
9B0003F7
5F624CE7
07DFC5A7
ENDCHAR
STARTCHAR Uhungarumlaut
ENCODING 368
SWIDTH 728 0
DWIDTH 12 0
BBX 10 16 1 0
BITMAP
0004F37E10
000B81E500
004B078000
0000000000
8C000002F3
8C000002F3
8C000002F3
8C000002F3
8C000002F3
8C000002F3
8C000002F3
8C000002F3
7D000004F2
3F400009D0
0AE7349F40
007DFEB400
ENDCHAR
STARTCHAR uhungarumlaut
ENCODING 369
SWIDTH 613 0
DWIDTH 10 0
BBX 8 13 1 0
BITMAP
003F46E1
00A90D60
03C17900
00000000
B90000D7
B90000D7
B90000D7
B90000D7
B90000D7
B90000E7
9B0003F7
5F624CE7
07DFC5A7
ENDCHAR
STARTCHAR Uogonek
ENCODING 370
SWIDTH 728 0
DWIDTH 12 0
BBX 10 15 1 -3
BITMAP
8C000002F3
8C000002F3
8C000002F3
8C000002F3
8C000002F3
8C000002F3
8C000002F3
8C000002F3
7D000004F2
3F400009D0
0AE7349F40
007DFFB400
0002D10000
0006B00000
0002DD2000
ENDCHAR
STARTCHAR uogonek
ENCODING 371
SWIDTH 613 0
DWIDTH 10 0
BBX 8 12 1 -3
BITMAP
B90000D7
B90000D7
B90000D7
B90000D7
B90000D7
B90000E7
9B0003F7
5F624CE7
07DFC5F8
00000690
00000B60
000006EA
ENDCHAR
STARTCHAR Wcircumflex
ENCODING 372
SWIDTH 925 0
DWIDTH 15 0
BBX 15 16 0 0
BITMAP
0000009F50000000
000004E6D1000000
00001D306B000000
0000000000000000
AB00008F30000E70
6E0000CF70003F30
2F3001F9C0006E00
0D7005E3F100AB00
0AB009A0E500E700
06E00E60AA02F300
02F33F205E06E000
00D77C001F49A000
00AAA8000C7D7000
006DD40007BF3000
002FE00003FE0000
000DB00000EA0000
ENDCHAR
STARTCHAR wcircumflex
ENCODING 373
SWIDTH 777 0
DWIDTH 12 0
BBX 13 13 0 0
BITMAP
00000BF3000000
00006D8C100000
0003D208900000
00000000000000
AA0009F2003F20
6E000EE6007D00
2F203E8A00A900
0E608B4E00E500
0AA0C60E43F200
06D2F20A96D000
02F8C006DA9000
00DE7001FE5000
009F3000CF1000
ENDCHAR
STARTCHAR Ycircumflex
ENCODING 374
SWIDTH 560 0
DWIDTH 9 0
BBX 9 16 0 0
BITMAP
0007F60000
003E6E2000
01C405C000
0000000000
BB00000BB0
3F30003F30
0BB000BA00
03F304F200
00AB0B9000
003F7F2000
000AF90000
0003F30000
0003F20000
0003F20000
0003F20000
0003F20000
ENDCHAR
STARTCHAR ycircumflex
ENCODING 375
SWIDTH 503 0
DWIDTH 8 0
BBX 8 17 0 -4
BITMAP
000DE100
008B9A00
05C10B70
00000000
C900008D
6E0000D8
1F5003F2
0AA008C0
04F10D60
00D63F10
008B8B00
002FD500
000BE100
000AA000
002F4000
22BB0000
CEB10000
ENDCHAR
STARTCHAR Ydieresis
ENCODING 376
SWIDTH 560 0
DWIDTH 9 0
BBX 9 15 0 0
BITMAP
0088098000
0088087000
0000000000
BB00000BB0
3F30003F30
0BB000BA00
03F304F200
00AB0B9000
003F7F2000
000AF90000
0003F30000
0003F20000
0003F20000
0003F20000
0003F20000
ENDCHAR
STARTCHAR Zacute
ENCODING 377
SWIDTH 570 0
DWIDTH 9 0
BBX 9 16 0 0
BITMAP
00003F7000
0000AB0000
0004D10000
0000000000
3FFFFFFF50
033333AE20
000002F700
00000BC000
00005F3000
0001E90000
0009D10000
004F500000
00DB000000
07E2000000
2F93333320
5FFFFFFF80
ENDCHAR
STARTCHAR zacute
ENCODING 378
SWIDTH 467 0
DWIDTH 7 0
BBX 7 13 0 0
BITMAP
0000DB00
0006E200
001D4000
00000000
1FFFFFB0
00002E70
0000AC00
0005E200
001E7000
00AC0000
05E20000
1E700000
5FFFFFD0
ENDCHAR
STARTCHAR Zdotaccent
ENCODING 379
SWIDTH 570 0
DWIDTH 9 0
BBX 9 15 0 0
BITMAP
0001D30000
0001D20000
0000000000
3FFFFFFF50
033333AE20
000002F700
00000BC000
00005F3000
0001E90000
0009D10000
004F500000
00DB000000
07E2000000
2F93333320
5FFFFFFF80
ENDCHAR
STARTCHAR zdotaccent
ENCODING 380
SWIDTH 467 0
DWIDTH 7 0
BBX 7 12 0 0
BITMAP
000C6000
000C5000
00000000
1FFFFFB0
00002E70
0000AC00
0005E200
001E7000
00AC0000
05E20000
1E700000
5FFFFFD0
ENDCHAR
STARTCHAR Zcaron
ENCODING 381
SWIDTH 570 0
DWIDTH 9 0
BBX 9 16 0 0
BITMAP
00C504D100
002E6E3000
0006F70000
0000000000
3FFFFFFF50
033333AE20
000002F700
00000BC000
00005F3000
0001E90000
0009D10000
004F500000
00DB000000
07E2000000
2F93333320
5FFFFFFF80
ENDCHAR
STARTCHAR zcaron
ENCODING 382
SWIDTH 467 0
DWIDTH 7 0
BBX 7 13 0 0
BITMAP
09802D30
01D7D600
003FB000
00000000
1FFFFFB0
00002E70
0000AC00
0005E200
001E7000
00AC0000
05E20000
1E700000
5FFFFFD0
ENDCHAR
STARTCHAR longs
ENCODING 383
SWIDTH 319 0
DWIDTH 5 0
BBX 5 13 1 0
BITMAP
07DF80
4F4220
8B0000
9A0000
9A0000
9A0000
9A0000
9A0000
9A0000
9A0000
9A0000
9A0000
9A0000
ENDCHAR
STARTCHAR florin
ENCODING 402
SWIDTH 577 0
DWIDTH 9 0
BBX 8 16 1 -4
BITMAP
0004CFD1
000D9230
001F3000
002F3000
08DFEE60
012F4100
002F3000
002F3000
002F3000
002F3000
002F3000
002F3000
002F3000
002F2000
128E0000
6ED50000
ENDCHAR
STARTCHAR Ohorn
ENCODING 416
SWIDTH 779 0
DWIDTH 12 0
BBX 12 13 1 0
BITMAP
0000000000CA
005BEFD810D7
08F9436CD8D1
4F500001CD10
AC0000005F10
D80000001F50
F60000000F60
F60000000F70
D80000001F50
AC0000005F20
4F500001CA00
08F8435CD100
005BEFD81000
ENDCHAR
STARTCHAR ohorn
ENCODING 417
SWIDTH 608 0
DWIDTH 10 0
BBX 11 10 0 0
BITMAP
000000005F10
004CFEA2AB00
04F734BFC200
0C90001E6000
0F50000AA000
1F400009B000
0F50000AA000
0B90000E7000
03E723AD1000
004BEEA20000
ENDCHAR
STARTCHAR Uhorn
ENCODING 431
SWIDTH 768 0
DWIDTH 12 0
BBX 12 13 1 0
BITMAP
00000000009D
8C000002F3B9
8C000002FAE2
8C000002F810
8C000002F300
8C000002F300
8C000002F300
8C000002F300
8C000002F300
7D000004F200
3F400009D000
0AE7349F5000
007CFEB50000
ENDCHAR
STARTCHAR uhorn
ENCODING 432
SWIDTH 665 0
DWIDTH 11 0
BBX 11 10 1 0
BITMAP
000000006F10
B90000D7BA00
B90000DEA100
B90000D70000
B90000D70000
B90000D70000
B90000E70000
9B0003F70000
5F624CF70000
07DFD6B70000
ENDCHAR
STARTCHAR uni01F0
ENCODING 496
SWIDTH 252 0
DWIDTH 4 0
BBX 6 17 -1 -4
BITMAP
5C10B6
09AAA0
01DE10
000000
009A00
009A00
009A00
009A00
009A00
009A00
009A00
009A00
009A00
009A00
00AA00
22D700
CEB100
ENDCHAR
STARTCHAR Aringacute
ENCODING 506
SWIDTH 634 0
DWIDTH 10 0
BBX 10 15 0 0
BITMAP
00000AD100
00006B1000
0003CC4000
000942B000
0007879000
0001EF2000
0005DA8000
000C85E000
003F20E500
00AB008C00
01F5002F30
07FFFFFFA0
0E933338F1
5F100001E8
C90000007E
ENDCHAR
STARTCHAR aringacute
ENCODING 507
SWIDTH 556 0
DWIDTH 9 0
BBX 8 15 0 0
BITMAP
00019B50
00000000
000ACB00
003B0A30
000ACB10
00000000
04ADFD70
047326F4
000000C8
000000A9
028CEEF9
1DA300B9
3F2000D9
1F823AE9
05DFD779
ENDCHAR
STARTCHAR AEacute
ENCODING 508
SWIDTH 873 0
DWIDTH 14 0
BBX 13 16 0 0
BITMAP
000000002F8000
000000009C0000
00000003D20000
00000000000000
00000CFFFFFFF0
00004F4D933330
0000BA0D700000
0002F30D700000
0009C00D700000
001F500DFFFFB0
008D000D933320
01EFFFFF700000
06E3333D700000
0D80000D700000
5F10000D933330
C900000DFFFFF0
ENDCHAR
STARTCHAR aeacute
ENCODING 509
SWIDTH 857 0
DWIDTH 14 0
BBX 13 13 0 0
BITMAP
0000000AE10000
0000002F400000
000000B7000000
00000000000000
03ADFC33CFD500
037329DD726F30
000001FC000BA0
000000E80008C0
029DEEFFFFFFE0
0DA200E8111110
3F2002FB000000
1F824C9F833550
05DFD604BEEC40
ENDCHAR
STARTCHAR Oslashacute
ENCODING 510
SWIDTH 778 0
DWIDTH 12 0
BBX 11 16 1 0
BITMAP
000007F20000
00001E600000
000089000000
000000000000
005BEED89700
08F9436DF300
4F50002EEA00
AC0000C96F20
D80007D11F50
F6003E300F70
F700D8000E70
D808C0001F50
AD4E20005F20
4FE60001CA00
0CF9435CD100
3C5BEFD81000
ENDCHAR
STARTCHAR oslashacute
ENCODING 511
SWIDTH 604 0
DWIDTH 10 0
BBX 9 13 0 0
BITMAP
00001E9000
00008D1000
0002D20000
0000000000
004CFE9C30
04F833EE00
0CA006DE60
0F502E4A90
1F40C809B0
0E58C00AA0
0BCE201E60
04FA23BD10
07ACEEA200
ENDCHAR
STARTCHAR Scommaaccent
ENCODING 536
SWIDTH 548 0
DWIDTH 9 0
BBX 8 16 0 -4
BITMAP
007DFEB5
09E63485
0E700000
0E700000
0AD30000
01AFB500
00039FC2
000002DB
0000006F
0000007E
295337E7
1ADFEC50
00000000
0007C000
000A7000
000D1000
ENDCHAR
STARTCHAR scommaaccent
ENCODING 537
SWIDTH 477 0
DWIDTH 8 0
BBX 7 13 0 -4
BITMAP
03BEEC50
0E822640
1F300000
0BD61000
006DE800
00004D90
000006D0
2A423C90
1ADFD910
00000000
001F3000
004D0000
00950000
ENDCHAR
STARTCHAR Tcommaaccent
ENCODING 538
SWIDTH 553 0
DWIDTH 9 0
BBX 9 16 0 -4
BITMAP
DFFFFFFFB0
2336F43320
0004F10000
0004F10000
0004F10000
0004F10000
0004F10000
0004F10000
0004F10000
0004F10000
0004F10000
0004F10000
0000000000
0005E00000
0008900000
000C200000
ENDCHAR
STARTCHAR tcommaaccent
ENCODING 539
SWIDTH 353 0
DWIDTH 6 0
BBX 6 15 0 -4
BITMAP
02B000
07C000
9FFFF4
08C000
08C000
08C000
08C000
08C000
07C000
05F421
009EE4
000000
008C00
00B600
01D100
ENDCHAR
STARTCHAR dotlessj
ENCODING 567
SWIDTH 252 0
DWIDTH 4 0
BBX 4 13 -1 -4
BITMAP
009A
009A
009A
009A
009A
009A
009A
009A
009A
009A
00AA
22D7
CEB1
ENDCHAR
STARTCHAR uni02BC
ENCODING 700
SWIDTH 169 0
DWIDTH 3 0
BBX 3 4 0 8
BITMAP
1F60
4F20
7B00
A500
ENDCHAR
STARTCHAR circumflex
ENCODING 710
SWIDTH 591 0
DWIDTH 9 0
BBX 6 3 2 10
BITMAP
04FA00
1D7D50
A702D2
ENDCHAR
STARTCHAR caron
ENCODING 711
SWIDTH 591 0
DWIDTH 9 0
BBX 6 3 2 10
BITMAP
A802D2
1D7D50
04FA00
ENDCHAR
STARTCHAR macron
ENCODING 713
SWIDTH 586 0
DWIDTH 9 0
BBX 6 2 2 10
BITMAP
111110
AFFFF1
ENDCHAR
STARTCHAR breve
ENCODING 728
SWIDTH 591 0
DWIDTH 9 0
BBX 6 2 2 10
BITMAP
9613D1
2BED50
ENDCHAR
STARTCHAR dotaccent
ENCODING 729
SWIDTH 252 0
DWIDTH 4 0
BBX 2 2 1 10
BITMAP
89
89
ENDCHAR
STARTCHAR ring
ENCODING 730
SWIDTH 577 0
DWIDTH 9 0
BBX 5 3 2 10
BITMAP
09CB10
1C0950
09CB10
ENDCHAR
STARTCHAR ogonek
ENCODING 731
SWIDTH 196 0
DWIDTH 3 0
BBX 3 4 0 -3
BITMAP
0520
5A00
A700
5EB0
ENDCHAR
STARTCHAR tilde
ENCODING 732
SWIDTH 591 0
DWIDTH 9 0
BBX 6 2 2 10
BITMAP
5EC53B
C35CE4
ENDCHAR
STARTCHAR hungarumlaut
ENCODING 733
SWIDTH 577 0
DWIDTH 9 0
BBX 7 3 1 10
BITMAP
01E74F30
08C0B900
1D24B000
ENDCHAR
STARTCHAR uni02F3
ENCODING 755
SWIDTH 333 0
DWIDTH 5 0
BBX 4 3 1 -4
BITMAP
9CB1
D086
9CB1
ENDCHAR
STARTCHAR uni0300
ENCODING 768
SWIDTH 0 0
DWIDTH 0 0
BBX 4 3 -8 10
BITMAP
2F70
07E1
0098
ENDCHAR
STARTCHAR uni0301
ENCODING 769
SWIDTH 0 0
DWIDTH 0 0
BBX 4 3 -6 10
BITMAP
0AE1
3F40
B600
ENDCHAR
STARTCHAR uni0303
ENCODING 771
SWIDTH 0 0
DWIDTH 0 0
BBX 6 2 -8 10
BITMAP
3DD62C
A44CE5
ENDCHAR
STARTCHAR hook
ENCODING 777
SWIDTH 0 0
DWIDTH 0 0
BBX 3 4 -6 9
BITMAP
BD60
03D0
3C70
5800
ENDCHAR
STARTCHAR uni030F
ENCODING 783
SWIDTH 0 0
DWIDTH 0 0
BBX 7 3 -9 10
BITMAP
1E73F400
06D19B00
00970B40
ENDCHAR
STARTCHAR dotbelow
ENCODING 803
SWIDTH 0 0
DWIDTH 0 0
BBX 2 2 -6 -3
BITMAP
6C
5C
ENDCHAR
STARTCHAR tonos
ENCODING 900
SWIDTH 577 0
DWIDTH 9 0
BBX 3 3 4 10
BITMAP
6E10
A900
D200
ENDCHAR
STARTCHAR dieresistonos
ENCODING 901
SWIDTH 577 0
DWIDTH 9 0
BBX 5 3 2 10
BITMAP
006D10
00B300
9603C0
ENDCHAR
STARTCHAR Alphatonos
ENCODING 902
SWIDTH 632 0
DWIDTH 10 0
BBX 10 13 0 0
BITMAP
2F40000000
6D00AC0000
A501FE3000
0006CA9000
000C75E000
003F20E500
008B009A00
00E6004F10
05FFFFFF70
0AA33339C0
1F400003F3
7D000000C8
C80000007E
ENDCHAR
STARTCHAR anoteleia
ENCODING 903
SWIDTH 266 0
DWIDTH 4 0
BBX 2 3 1 4
BITMAP
9D
AE
01
ENDCHAR
STARTCHAR Epsilontonos
ENCODING 904
SWIDTH 618 0
DWIDTH 10 0
BBX 10 13 -1 0
BITMAP
0BA0000000
0E47FFFFFE
4B07E33333
0007D00000
0007D00000
0007D00000
0007FFFFF9
0007E33332
0007D00000
0007D00000
0007D00000
0007E33333
0007FFFFFE
ENDCHAR
STARTCHAR Etatonos
ENCODING 905
SWIDTH 811 0
DWIDTH 13 0
BBX 13 13 -1 0
BITMAP
0BA00000000000
0E44F100000E60
4B04F100000E60
0004F100000E60
0004F100000E60
0004F100000E60
0004FFFFFFFF60
0004F433333E60
0004F100000E60
0004F100000E60
0004F100000E60
0004F100000E60
0004F100000E60
ENDCHAR
STARTCHAR Iotatonos
ENCODING 906
SWIDTH 361 0
DWIDTH 6 0
BBX 6 13 -1 0
BITMAP
09C000
0C61F4
2D01F4
0001F4
0001F4
0001F4
0001F4
0001F4
0001F4
0001F4
0001F4
0001F4
0001F4
ENDCHAR
STARTCHAR Omicrontonos
ENCODING 908
SWIDTH 812 0
DWIDTH 13 0
BBX 13 13 -1 0
BITMAP
09C00000000000
0C6018DFEB5000
2D02DD6348F700
000BD100005F30
002F5000000CA0
005F10000008D0
007E00000006F0
007E00000006F0
005F10000008D0
002F5000000CA0
000BC100005F30
0002DC5348F700
000018DFEB5000
ENDCHAR
STARTCHAR Upsilontonos
ENCODING 910
SWIDTH 689 0
DWIDTH 11 0
BBX 12 13 -1 0
BITMAP
0BA000000000
0E4AC00000AC
4B02F40002F4
0000AC000AB0
00002F403F30
000009C0AB00
000002F7F300
0000009FA000
0000002F4000
0000002F4000
0000002F4000
0000002F4000
0000002F4000
ENDCHAR
STARTCHAR Omegatonos
ENCODING 911
SWIDTH 812 0
DWIDTH 13 0
BBX 14 13 -1 0
BITMAP
09C00000000000
0C6029DFEB6000
2D03EC5348E900
000CB000003F50
003F3000000BB0
006F00000007E0
006F00000007E0
005F10000008D0
002F4000000BA0
000CA000002F40
0003F40000BB00
00238E400AE431
00DFFFB03FFFF6
ENDCHAR
STARTCHAR iotadieresistonos
ENCODING 912
SWIDTH 338 0
DWIDTH 5 0
BBX 7 13 -1 0
BITMAP
000C8000
003A0000
1D109700
00000000
00A90000
00A90000
00A90000
00A90000
00A90000
00A90000
00AA0000
007D2200
001BEE20
ENDCHAR
STARTCHAR Alpha
ENCODING 913
SWIDTH 632 0
DWIDTH 10 0
BBX 10 12 0 0
BITMAP
0000AC0000
0001FE3000
0006CA9000
000C75E000
003F20E500
008B009A00
00E6004F10
05FFFFFF70
0AA33339C0
1F400003F3
7D000000C8
C80000007E
ENDCHAR
STARTCHAR Beta
ENCODING 914
SWIDTH 647 0
DWIDTH 10 0
BBX 9 12 1 0
BITMAP
6FFFFD9100
6E2236EB00
6E00006F10
6E00005F00
6E0013C800
6FFFFF8000
6E2225CB00
6E00002F50
6E00000F70
6E00003F50
6E2235DD10
6FFFFD9100
ENDCHAR
STARTCHAR Gamma
ENCODING 915
SWIDTH 520 0
DWIDTH 8 0
BBX 7 12 1 0
BITMAP
6FFFFFE0
6E333330
6E000000
6E000000
6E000000
6E000000
6E000000
6E000000
6E000000
6E000000
6E000000
6E000000
ENDCHAR
STARTCHAR uni0394
ENCODING 916
SWIDTH 571 0
DWIDTH 9 0
BBX 9 12 0 0
BITMAP
0003F60000
0008EB0000
000D8F1000
003F1E6000
008B0AA000
00D705F100
03F201F500
08C000AA00
0C70006E10
2F30001F50
7E33333CA0
AFFFFFFFD0
ENDCHAR
STARTCHAR Epsilon
ENCODING 917
SWIDTH 556 0
DWIDTH 9 0
BBX 7 12 1 0
BITMAP
6FFFFFE0
6E333330
6E000000
6E000000
6E000000
6FFFFFA0
6E333320
6E000000
6E000000
6E000000
6E333330
6FFFFFE0
ENDCHAR
STARTCHAR Zeta
ENCODING 918
SWIDTH 570 0
DWIDTH 9 0
BBX 9 12 0 0
BITMAP
3FFFFFFF50
033333AE20
000002F700
00000BC000
00005F3000
0001E90000
0009D10000
004F500000
00DB000000
07E2000000
2F93333320
5FFFFFFF80
ENDCHAR
STARTCHAR Eta
ENCODING 919
SWIDTH 737 0
DWIDTH 12 0
BBX 10 12 1 0
BITMAP
6E000001F4
6E000001F4
6E000001F4
6E000001F4
6E000001F4
6FFFFFFFF4
6E333334F4
6E000001F4
6E000001F4
6E000001F4
6E000001F4
6E000001F4
ENDCHAR
STARTCHAR Theta
ENCODING 920
SWIDTH 778 0
DWIDTH 12 0
BBX 11 12 1 0
BITMAP
005BEFD81000
08F9436CD100
4F500001CA00
AC0000005F20
D80000001F50
F63FFFFA0E70
F61333320E70
D80000001F50
AC0000005F20
4F500001CA00
08F8435CD100
005BEFD81000
ENDCHAR
STARTCHAR Iota
ENCODING 921
SWIDTH 278 0
DWIDTH 4 0
BBX 2 12 1 0
BITMAP
6E
6E
6E
6E
6E
6E
6E
6E
6E
6E
6E
6E
ENDCHAR
STARTCHAR Kappa
ENCODING 922
SWIDTH 613 0
DWIDTH 10 0
BBX 9 12 1 0
BITMAP
6E00005F40
6E0004F500
6E002E7000
6E01D90000
6E1CA00000
6EAF400000
6FBAD10000
6E01DA0000
6E004F6000
6E0008E200
6E0000CB00
6E00002E70
ENDCHAR
STARTCHAR Lambda
ENCODING 923
SWIDTH 603 0
DWIDTH 10 0
BBX 10 12 0 0
BITMAP
0001FA0000
0006EF1000
000B9E6000
001F4AB000
006E05F100
00C900E600
02F4009B00
07E0004F20
0C90000E70
2F400009C0
7E000004F2
C9000000E7
ENDCHAR
STARTCHAR Mu
ENCODING 924
SWIDTH 902 0
DWIDTH 14 0
BBX 12 12 1 0
BITMAP
6FB0000004FD
6DF200000ADD
6BD700001E9D
6C7D00006C6D
6C2F3000B77D
6C0B9002F27D
6C06E007B07D
6C01E50D507D
6C00AA3E107D
6C004FA9007D
6C000EF4007D
6C0008D0007D
ENDCHAR
STARTCHAR Nu
ENCODING 925
SWIDTH 753 0
DWIDTH 12 0
BBX 10 12 1 0
BITMAP
6F600000B8
6FE10000B8
6BD90000B8
6B4F4000B8
6C0AD000B8
6C02E700B8
6C006F20B8
6C000CB0B8
6C0003F5B8
6C00009EB8
6C00001DF8
6C000005F8
ENDCHAR
STARTCHAR Xi
ENCODING 926
SWIDTH 553 0
DWIDTH 9 0
BBX 9 12 0 0
BITMAP
2FFFFFFF00
0333333300
0000000000
0000000000
0000000000
07FFFFF500
0133333100
0000000000
0000000000
0000000000
1333333310
7FFFFFFF40
ENDCHAR
STARTCHAR Omicron
ENCODING 927
SWIDTH 778 0
DWIDTH 12 0
BBX 11 12 1 0
BITMAP
005BEFD81000
08F9436CD100
4F500001CA00
AC0000005F20
D80000001F50
F60000000E70
F60000000E70
D80000001F50
AC0000005F20
4F500001CA00
08F8435CD100
005BEFD81000
ENDCHAR
STARTCHAR Pi
ENCODING 928
SWIDTH 729 0
DWIDTH 12 0
BBX 10 12 1 0
BITMAP
6FFFFFFFF1
6E333336F1
6E000004F1
6E000004F1
6E000004F1
6E000004F1
6E000004F1
6E000004F1
6E000004F1
6E000004F1
6E000004F1
6E000004F1
ENDCHAR
STARTCHAR Rho
ENCODING 929
SWIDTH 602 0
DWIDTH 10 0
BBX 8 12 1 0
BITMAP
6FFFEB40
6E234AF4
6E0000CA
6E00009C
6E0000CA
6E0129F3
6FFFFC40
6E221000
6E000000
6E000000
6E000000
6E000000
ENDCHAR
STARTCHAR Sigma
ENCODING 931
SWIDTH 566 0
DWIDTH 9 0
BBX 9 12 0 0
BITMAP
5FFFFFFF40
2EA3333310
04F4000000
007E200000
000AC10000
0001D90000
0004F40000
001D800000
00AB000000
07E2000000
3F73333320
6FFFFFFFB0
ENDCHAR
STARTCHAR Tau
ENCODING 932
SWIDTH 553 0
DWIDTH 9 0
BBX 9 12 0 0
BITMAP
DFFFFFFFB0
2336F43320
0004F10000
0004F10000
0004F10000
0004F10000
0004F10000
0004F10000
0004F10000
0004F10000
0004F10000
0004F10000
ENDCHAR
STARTCHAR Upsilon
ENCODING 933
SWIDTH 560 0
DWIDTH 9 0
BBX 9 12 0 0
BITMAP
BB00000BB0
3F30003F30
0BB000BA00
03F304F200
00AB0B9000
003F7F2000
000AF90000
0003F30000
0003F20000
0003F20000
0003F20000
0003F20000
ENDCHAR
STARTCHAR Phi
ENCODING 934
SWIDTH 797 0
DWIDTH 13 0
BBX 12 12 0 0
BITMAP
000004F10000
003AEFFFD910
03EB46F35CD1
0BB004F101E8
1F5004F1009C
2F4004F1007E
1F6004F1009C
0BC004F101E7
03EB46F35DD1
002AEFFFD810
000004F10000
000004F10000
ENDCHAR
STARTCHAR Chi
ENCODING 935
SWIDTH 577 0
DWIDTH 9 0
BBX 9 12 0 0
BITMAP
5F20000C90
0BA0006E10
02F401E500
008D09B000
001DAE2000
0005F80000
0009EC0000
003F3E7000
00C806E200
06D100CA00
1E50003F40
AB000009D0
ENDCHAR
STARTCHAR Psi
ENCODING 936
SWIDTH 795 0
DWIDTH 13 0
BBX 12 12 0 0
BITMAP
2F3004F0007D
2F3004F0007D
2F3004F0007D
2F3004F0007D
1F5004F0009C
0D9004F000D9
05F825F13AE2
005DFFFFFB30
000016F21000
000004F00000
000004F00000
000004F00000
ENDCHAR
STARTCHAR uni03A9
ENCODING 937
SWIDTH 782 0
DWIDTH 13 0
BBX 12 12 0 0
BITMAP
0005BEFD9200
009E8435BE30
05F400000BD0
0AB0000003F3
0D80000000F6
0E70000000E7
0D80000001F6
09C0000004F2
04F2000009C0
00AB00004F40
134DA004E833
6FFFF30AFFFE
ENDCHAR
STARTCHAR Iotadieresis
ENCODING 938
SWIDTH 278 0
DWIDTH 4 0
BBX 5 15 0 0
BITMAP
C50C40
B40C40
000000
06E000
06E000
06E000
06E000
06E000
06E000
06E000
06E000
06E000
06E000
06E000
06E000
ENDCHAR
STARTCHAR Upsilondieresis
ENCODING 939
SWIDTH 560 0
DWIDTH 9 0
BBX 9 15 0 0
BITMAP
0088098000
0088087000
0000000000
BB00000BB0
3F30003F30
0BB000BA00
03F304F200
00AB0B9000
003F7F2000
000AF90000
0003F30000
0003F20000
0003F20000
0003F20000
0003F20000
ENDCHAR
STARTCHAR alphatonos
ENCODING 940
SWIDTH 610 0
DWIDTH 10 0
BBX 10 13 0 0
BITMAP
00003F4000
00006C0000
0000A40000
0000000000
006DFD67A0
04F724DE80
0C90003F70
0F50000E60
1F40000D60
0F50000E60
0C90003F60
05F624CE91
006DFD56E7
ENDCHAR
STARTCHAR epsilontonos
ENCODING 941
SWIDTH 475 0
DWIDTH 8 0
BBX 7 13 0 0
BITMAP
0000D900
0001F200
00059000
00000000
01AEFD80
0BB32460
0F500000
0BB20000
01CFF900
1D932100
4F100000
1E922380
03BEFD90
ENDCHAR
STARTCHAR etatonos
ENCODING 942
SWIDTH 613 0
DWIDTH 10 0
BBX 8 17 1 -4
BITMAP
0000E700
0002F100
00078000
00000000
987DFC50
9EB428F3
9E1000D6
9B0000C8
9A0000C8
9A0000C8
9A0000C8
9A0000C8
9A0000C8
000000C8
000000C8
000000C8
000000C8
ENDCHAR
STARTCHAR iotatonos
ENCODING 943
SWIDTH 338 0
DWIDTH 5 0
BBX 5 13 1 0
BITMAP
0D8000
2F2000
690000
000000
A90000
A90000
A90000
A90000
A90000
A90000
AA0000
7D2200
1BEE20
ENDCHAR
STARTCHAR upsilondieresistonos
ENCODING 944
SWIDTH 608 0
DWIDTH 10 0
BBX 8 13 1 0
BITMAP
0000E600
00059000
02D00B50
00000000
B90000C8
B900009A
B900008C
B900007D
B900007D
AA00008C
8D0000D8
2F933AE2
03BEEB30
ENDCHAR
STARTCHAR alpha
ENCODING 945
SWIDTH 610 0
DWIDTH 10 0
BBX 10 9 0 0
BITMAP
006DFD67A0
04F724DE80
0C90003F70
0F50000E60
1F40000D60
0F50000E60
0C90003F60
05F624CE91
006DFD56E7
ENDCHAR
STARTCHAR beta
ENCODING 946
SWIDTH 627 0
DWIDTH 10 0
BBX 9 17 1 -4
BITMAP
02AEEC5000
1DA327F500
6E0000BA00
8B00009B00
9A0000B800
9A00169100
9A0BFD9100
9A0125DC00
9A00004F30
9A00000F40
9A00003F30
9E7324CB00
9B8DED8100
9A00000000
9A00000000
9A00000000
9A00000000
ENDCHAR
STARTCHAR gamma
ENCODING 947
SWIDTH 512 0
DWIDTH 8 0
BBX 8 13 0 -4
BITMAP
B900006E
5E0000B9
0E5001F3
08B006D0
02F10B70
00B71F20
005C6B00
000EB600
0008F100
0009B000
000D7000
001F4000
003F3000
ENDCHAR
STARTCHAR delta
ENCODING 948
SWIDTH 580 0
DWIDTH 9 0
BBX 9 13 0 0
BITMAP
0019EEC810
008D325B10
00AA000000
006E400000
0008F81000
0018EDD200
02D9109D10
0AB0000D70
0F50000AA0
1F40000AB0
0E80001E70
06F723BE10
006CFEA200
ENDCHAR
STARTCHAR epsilon
ENCODING 949
SWIDTH 475 0
DWIDTH 8 0
BBX 7 9 0 0
BITMAP
01AEFD80
0BB32460
0F500000
0BB20000
01CFF900
1D932100
4F100000
1E922380
03BEFD90
ENDCHAR
STARTCHAR zeta
ENCODING 950
SWIDTH 482 0
DWIDTH 8 0
BBX 8 16 0 -3
BITMAP
09FFFFF4
01222CA0
0001BA00
000BB000
008D1000
02F40000
09B00000
0E600000
1F400000
0F500000
0CB10000
04EE9500
0027BFC1
000003F3
000004F1
00000B80
ENDCHAR
STARTCHAR eta
ENCODING 951
SWIDTH 613 0
DWIDTH 10 0
BBX 8 13 1 -4
BITMAP
987DFC50
9EB428F3
9E1000D6
9B0000C8
9A0000C8
9A0000C8
9A0000C8
9A0000C8
9A0000C8
000000C8
000000C8
000000C8
000000C8
ENDCHAR
STARTCHAR theta
ENCODING 952
SWIDTH 591 0
DWIDTH 9 0
BBX 9 13 0 0
BITMAP
003CFD7000
02E924E700
08C0006E10
0C80001F40
0F50000D70
1F40000C80
1FFFFFFF90
1F52222C80
0E40000C70
0C70000F40
08B0005E10
01E824D800
003BFE8000
ENDCHAR
STARTCHAR iota
ENCODING 953
SWIDTH 338 0
DWIDTH 5 0
BBX 5 9 1 0
BITMAP
A90000
A90000
A90000
A90000
A90000
A90000
AA0000
7D2200
1BEE20
ENDCHAR
STARTCHAR kappa
ENCODING 954
SWIDTH 518 0
DWIDTH 8 0
BBX 7 9 1 0
BITMAP
9C002E90
9C00CB00
9B09D100
9B6E3000
9DEE2000
9E3BC000
9C02E700
9C006F30
9C000AD0
ENDCHAR
STARTCHAR lambda
ENCODING 955
SWIDTH 534 0
DWIDTH 9 0
BBX 9 13 0 0
BITMAP
4ED4000000
128E100000
000E600000
0009B00000
0009F10000
001ED60000
006C8B0000
00D73F2000
04F10D7000
0AA008C000
1F4003F200
7D0000C910
D700005E70
ENDCHAR
STARTCHAR uni03BC
ENCODING 956
SWIDTH 619 0
DWIDTH 10 0
BBX 8 13 1 -4
BITMAP
9A0000C8
9A0000C8
9A0000C8
9A0000C8
9A0000C8
9A0000D8
9C0002F8
9F724CF8
9BCFD798
9A000000
9A000000
9A000000
9A000000
ENDCHAR
STARTCHAR nu
ENCODING 957
SWIDTH 541 0
DWIDTH 9 0
BBX 8 9 0 0
BITMAP
C800005F
7D00006E
2F30007C
0B9000A9
06E000D5
01F405E1
00B91C70
005EAC10
001EE200
ENDCHAR
STARTCHAR xi
ENCODING 958
SWIDTH 475 0
DWIDTH 8 0
BBX 8 16 0 -3
BITMAP
09FFFFC0
017B6200
05E10000
08B00000
04E51000
005FFFA0
03E82000
0C900000
1F500000
1F600000
0CD30000
03DFD820
00049DE1
000001F3
000003E1
00000A90
ENDCHAR
STARTCHAR omicron
ENCODING 959
SWIDTH 604 0
DWIDTH 10 0
BBX 9 9 0 0
BITMAP
004CFEA100
04F834BD10
0CA0001E60
0F50000AA0
1F400009B0
0F50000AA0
0BA0001E60
03F823BD10
004BEEA200
ENDCHAR
STARTCHAR pi
ENCODING 960
SWIDTH 649 0
DWIDTH 10 0
BBX 10 9 0 0
BITMAP
8FFFFFFFFE
13F5222F51
01F3001F40
01F3001F40
01F3001F40
01F3001F40
01F3001F40
01F3000F71
01F30007E9
ENDCHAR
STARTCHAR rho
ENCODING 961
SWIDTH 604 0
DWIDTH 10 0
BBX 8 13 1 -4
BITMAP
02AEEB20
0DA33AD1
6E1000E6
9B0000AA
A900009B
B90000A9
B90000E6
BE633AD1
BBBEEB20
B9000000
B9000000
B9000000
B9000000
ENDCHAR
STARTCHAR sigma1
ENCODING 962
SWIDTH 481 0
DWIDTH 8 0
BBX 8 12 0 -3
BITMAP
003BEEC1
03F94360
0BA00000
0F600000
1F400000
0F500000
0CA00000
04EC6200
0039DFB0
000004F3
000002F1
00000990
ENDCHAR
STARTCHAR sigma
ENCODING 963
SWIDTH 612 0
DWIDTH 10 0
BBX 10 9 0 0
BITMAP
003AEFFFF6
03FA42AB21
0BB0002F40
0F60000B90
1F400009B0
0F50000AA0
0CA0001E60
05F723BD10
005CFEA100
ENDCHAR
STARTCHAR tau
ENCODING 964
SWIDTH 473 0
DWIDTH 8 0
BBX 8 9 0 0
BITMAP
9FFFFFF2
129C2220
008C0000
008C0000
008C0000
008C0000
007C0000
004F5120
0008EF90
ENDCHAR
STARTCHAR upsilon
ENCODING 965
SWIDTH 608 0
DWIDTH 10 0
BBX 8 9 1 0
BITMAP
B90000C8
B900009A
B900008C
B900007D
B900007D
AA00008C
8D0000D8
2F933AE2
03BEEB30
ENDCHAR
STARTCHAR phi
ENCODING 966
SWIDTH 717 0
DWIDTH 11 0
BBX 11 13 0 -4
BITMAP
00B302BEC300
06E20AB3AD00
0C900E501F50
0F500F500C70
1F400F500C80
0F500F500E70
0BB00F505F20
04FA3F67F800
003BEFEC5000
00000F500000
00000F500000
00000F500000
00000F500000
ENDCHAR
STARTCHAR chi
ENCODING 967
SWIDTH 545 0
DWIDTH 9 0
BBX 9 13 0 -4
BITMAP
7E60006E10
17F100D700
00D706E100
008C0D6000
002F9D0000
000CF50000
000BF10000
004FE60000
00C99B0000
05E13F2000
0C800D8000
5E1006E310
D70000AE90
ENDCHAR
STARTCHAR psi
ENCODING 968
SWIDTH 752 0
DWIDTH 12 0
BBX 11 17 1 -4
BITMAP
00009B000000
00009B000000
00009B000000
00009B000000
B9009B00AA00
B9009B007C00
B9009B005E00
B9009B004F00
B9009B004F10
9B009B006E00
6F209B00D900
0CD5AB5CE200
019DFFD92000
00009B000000
00009B000000
00009B000000
00009B000000
ENDCHAR
STARTCHAR omega
ENCODING 969
SWIDTH 772 0
DWIDTH 12 0
BBX 12 9 0 0
BITMAP
05E100000AB0
0AA0000004F1
0D70000001F4
0F5007C000F6
1F4007C000D7
0F5007C000E5
0D8008E002F3
07E44ED72BC0
009EE62CFC20
ENDCHAR
STARTCHAR iotadieresis
ENCODING 970
SWIDTH 338 0
DWIDTH 5 0
BBX 6 12 0 0
BITMAP
B50C50
B50B40
000000
0A9000
0A9000
0A9000
0A9000
0A9000
0A9000
0AA000
07D220
01BEE2
ENDCHAR
STARTCHAR upsilondieresis
ENCODING 971
SWIDTH 608 0
DWIDTH 10 0
BBX 8 12 1 0
BITMAP
01D31D20
00D21D20
00000000
B90000C8
B900009A
B900008C
B900007D
B900007D
AA00008C
8D0000D8
2F933AE2
03BEEB30
ENDCHAR
STARTCHAR omicrontonos
ENCODING 972
SWIDTH 604 0
DWIDTH 10 0
BBX 9 13 0 0
BITMAP
00002F4000
00006D0000
0000A50000
0000000000
004CFEA100
04F834BD10
0CA0001E60
0F50000AA0
1F400009B0
0F50000AA0
0BA0001E60
03F823BD10
004BEEA200
ENDCHAR
STARTCHAR upsilontonos
ENCODING 973
SWIDTH 608 0
DWIDTH 10 0
BBX 8 13 1 0
BITMAP
0002F500
0005D000
00096000
00000000
B90000C8
B900009A
B900008C
B900007D
B900007D
AA00008C
8D0000D8
2F933AE2
03BEEB30
ENDCHAR
STARTCHAR omegatonos
ENCODING 974
SWIDTH 772 0
DWIDTH 12 0
BBX 12 13 0 0
BITMAP
000000D90000
000001F30000
000005A00000
000000000000
05E100000AB0
0AA0000004F1
0D70000001F4
0F5007C000F6
1F4007C000D7
0F5007C000E5
0D8008E002F3
07E44ED72BC0
009EE62CFC20
ENDCHAR
STARTCHAR uni03D1
ENCODING 977
SWIDTH 622 0
DWIDTH 10 0
BBX 10 13 0 0
BITMAP
003CED6000
00DA25F600
00F4007E10
00D7001F50
004E931C80
00029DEFFB
BE800009A0
18D0000AA0
07C0000B90
09A0000E60
09A0004E10
06E414E700
008DFD6000
ENDCHAR
STARTCHAR uni03D2
ENCODING 978
SWIDTH 564 0
DWIDTH 9 0
BBX 9 12 0 0
BITMAP
BA00001BE0
4F30009D30
0BA001E400
04F307C000
00BA0D5000
003F7D0000
000BF70000
0005F20000
0004F10000
0004F10000
0004F10000
0004F10000
ENDCHAR
STARTCHAR uni03D6
ENCODING 982
SWIDTH 839 0
DWIDTH 13 0
BBX 13 9 0 0
BITMAP
9FFFFFFFFFFFE0
12D8222224F320
03F2000000D700
07D00000009B00
0AB000F4008C00
0AA001F4007D00
08C002F5009B00
03F62ACC35E600
005DEB19ED8000
ENDCHAR
STARTCHAR uni0400
ENCODING 1024
SWIDTH 556 0
DWIDTH 9 0
BBX 7 16 1 0
BITMAP
01E90000
005E2000
0008A000
00000000
6FFFFFE0
6E333330
6E000000
6E000000
6E000000
6FFFFFA0
6E333320
6E000000
6E000000
6E000000
6E333330
6FFFFFE0
ENDCHAR
STARTCHAR afii10023
ENCODING 1025
SWIDTH 556 0
DWIDTH 9 0
BBX 7 15 1 0
BITMAP
02D13D10
02D12D00
00000000
6FFFFFE0
6E333330
6E000000
6E000000
6E000000
6FFFFFA0
6E333320
6E000000
6E000000
6E000000
6E333330
6FFFFFE0
ENDCHAR
STARTCHAR afii10051
ENCODING 1026
SWIDTH 733 0
DWIDTH 12 0
BBX 11 12 0 0
BITMAP
DFFFFFF90000
236F43320000
004F10000000
004F10000000
004F10000000
004FFFFEC500
004F43349F30
004F10000E70
004F10000C80
004F10000D60
004F10238F20
004F107FD500
ENDCHAR
STARTCHAR afii10052
ENCODING 1027
SWIDTH 520 0
DWIDTH 8 0
BBX 7 16 1 0
BITMAP
0001E900
0007D100
001D3000
00000000
6FFFFFE0
6E333330
6E000000
6E000000
6E000000
6E000000
6E000000
6E000000
6E000000
6E000000
6E000000
6E000000
ENDCHAR
STARTCHAR afii10053
ENCODING 1028
SWIDTH 639 0
DWIDTH 10 0
BBX 9 12 1 0
BITMAP
003AEFEB50
06FB545950
3F70000000
9D00000000
D800000000
FFFFFFF100
F833333000
D800000000
AD00000000
4F60000000
08F9434630
005BEFEB30
ENDCHAR
STARTCHAR afii10054
ENCODING 1029
SWIDTH 548 0
DWIDTH 9 0
BBX 8 12 0 0
BITMAP
007DFEB5
09E63485
0E700000
0E700000
0AD30000
01AFB500
00039FC2
000002DB
0000006F
0000007E
295337E7
1ADFEC50
ENDCHAR
STARTCHAR afii10055
ENCODING 1030
SWIDTH 278 0
DWIDTH 4 0
BBX 2 12 1 0
BITMAP
6E
6E
6E
6E
6E
6E
6E
6E
6E
6E
6E
6E
ENDCHAR
STARTCHAR afii10056
ENCODING 1031
SWIDTH 278 0
DWIDTH 4 0
BBX 5 15 0 0
BITMAP
C50C40
B40C40
000000
06E000
06E000
06E000
06E000
06E000
06E000
06E000
06E000
06E000
06E000
06E000
06E000
ENDCHAR
STARTCHAR afii10057
ENCODING 1032
SWIDTH 267 0
DWIDTH 4 0
BBX 5 15 -2 -3
BITMAP
0008C0
0008C0
0008C0
0008C0
0008C0
0008C0
0008C0
0008C0
0008C0
0008C0
0008C0
0008C0
0009B0
145E60
3EE800
ENDCHAR
STARTCHAR afii10058
ENCODING 1033
SWIDTH 929 0
DWIDTH 15 0
BBX 15 12 0 0
BITMAP
0007FFFFD0000000
0009B338D0000000
000B8007D0000000
000D6007D0000000
001F4007D0000000
003F2007FFEC8100
005F0007D347EB00
007C0007D0005F20
00AA0007D0002F40
00E60007D0005F20
37F10007D237EA00
DE600007FFEC7000
ENDCHAR
STARTCHAR afii10059
ENCODING 1034
SWIDTH 953 0
DWIDTH 15 0
BBX 14 12 1 0
BITMAP
6E00001F400000
6E00001F400000
6E00001F400000
6E00001F400000
6E00001F400000
6FFFFFFFFFDA20
6E33334F635CE2
6E00001F4001E8
6E00001F4000BA
6E00001F4001E8
6E00001F635BE2
6E00001FFFDA20
ENDCHAR
STARTCHAR afii10060
ENCODING 1035
SWIDTH 733 0
DWIDTH 12 0
BBX 11 12 0 0
BITMAP
DFFFFFFF1000
236F43330000
004F10000000
004F10000000
004F10000000
004FFFFEC500
004F43339F30
004F10000E70
004F10000C80
004F10000C80
004F10000C80
004F10000C80
ENDCHAR
STARTCHAR afii10061
ENCODING 1036
SWIDTH 611 0
DWIDTH 10 0
BBX 9 16 1 0
BITMAP
00006F3000
0001D70000
0007A00000
0000000000
6E00006E30
6E0004F400
6E003E6000
6E02E80000
6E1DA00000
6ECC000000
6E9E200000
6E0BD10000
6E01CC0000
6E002DA000
6E0003E800
6E00004F60
ENDCHAR
STARTCHAR uni040D
ENCODING 1037
SWIDTH 762 0
DWIDTH 12 0
BBX 10 16 1 0
BITMAP
000DB00000
0004F30000
00006B0000
0000000000
6C000002FA
6C00000CFA
6C00006E9A
6C0002E78A
6C000AC09A
6C005F309A
6C01E8009A
6C09D1009A
6C4F40009A
6CDA00009A
6FE100009A
6F5000009A
ENDCHAR
STARTCHAR afii10062
ENCODING 1038
SWIDTH 621 0
DWIDTH 10 0
BBX 10 15 0 0
BITMAP
009A007D00
002BEEC400
0000000000
8E100000AB
1E700002F4
08E10008D0
01E7000E60
008E106E10
001E70C900
0008E4F200
0001EDB000
00008F4000
0000BC0000
2549F30000
3DFC400000
ENDCHAR
STARTCHAR afii10145
ENCODING 1039
SWIDTH 729 0
DWIDTH 12 0
BBX 10 15 1 -3
BITMAP
6E000004F1
6E000004F1
6E000004F1
6E000004F1
6E000004F1
6E000004F1
6E000004F1
6E000004F1
6E000004F1
6E000004F1
6E333336F1
6FFFFFFFF1
0000E70000
0000E70000
0000E70000
ENDCHAR
STARTCHAR afii10017
ENCODING 1040
SWIDTH 632 0
DWIDTH 10 0
BBX 10 12 0 0
BITMAP
0000AC0000
0001FE3000
0006CA9000
000C75E000
003F20E500
008B009A00
00E6004F10
05FFFFFF70
0AA33339C0
1F400003F3
7D000000C8
C80000007E
ENDCHAR
STARTCHAR afii10018
ENCODING 1041
SWIDTH 612 0
DWIDTH 10 0
BBX 8 12 1 0
BITMAP
6FFFFFF5
6E333331
6E000000
6E000000
6E000000
6FFFEC60
6E3347F7
6E00009D
6E00006E
6E00009D
6E2248F7
6FFFFC60
ENDCHAR
STARTCHAR afii10019
ENCODING 1042
SWIDTH 647 0
DWIDTH 10 0
BBX 9 12 1 0
BITMAP
6FFFFD9100
6E2236EB00
6E00006F10
6E00005F00
6E0013C800
6FFFFF8000
6E2225CB00
6E00002F50
6E00000F70
6E00003F50
6E2235DD10
6FFFFD9100
ENDCHAR
STARTCHAR afii10020
ENCODING 1043
SWIDTH 520 0
DWIDTH 8 0
BBX 7 12 1 0
BITMAP
6FFFFFE0
6E333330
6E000000
6E000000
6E000000
6E000000
6E000000
6E000000
6E000000
6E000000
6E000000
6E000000
ENDCHAR
STARTCHAR afii10021
ENCODING 1044
SWIDTH 683 0
DWIDTH 11 0
BBX 11 15 0 -3
BITMAP
0001FFFFF200
0002F535F200
0004F003F200
0007D003F200
000B9003F200
000E6003F200
004F2003F200
009B0003F200
00E60003F200
06E10003F200
3DA33335F520
DFFFFFFFFF90
D60000000A90
D60000000A90
D60000000A90
ENDCHAR
STARTCHAR afii10022
ENCODING 1045
SWIDTH 556 0
DWIDTH 9 0
BBX 7 12 1 0
BITMAP
6FFFFFE0
6E333330
6E000000
6E000000
6E000000
6FFFFFA0
6E333320
6E000000
6E000000
6E000000
6E333330
6FFFFFE0
ENDCHAR
STARTCHAR afii10024
ENCODING 1046
SWIDTH 844 0
DWIDTH 14 0
BBX 14 12 0 0
BITMAP
6E2000D60008D1
0AC000D6005E30
01D900D602E600
002E50D60C9000
0005E2D69C0000
00009CEBE20000
0000CAD9F50000
0009D1D66E2000
005F30D60AC000
02E700D601D900
0CA000D6003F50
9D1000D60007E2
ENDCHAR
STARTCHAR afii10025
ENCODING 1047
SWIDTH 581 0
DWIDTH 9 0
BBX 9 12 0 0
BITMAP
05BEFD9100
2D7425DC00
0000004F20
0000006F10
000026E700
03FFFE6000
002237E900
0000004F40
0000001F60
0000004F40
584236EB00
3ADFEC6000
ENDCHAR
STARTCHAR afii10026
ENCODING 1048
SWIDTH 762 0
DWIDTH 12 0
BBX 10 12 1 0
BITMAP
6C000002FA
6C00000CFA
6C00006E9A
6C0002E78A
6C000AC09A
6C005F309A
6C01E8009A
6C09D1009A
6C4F40009A
6CDA00009A
6FE100009A
6F5000009A
ENDCHAR
STARTCHAR afii10027
ENCODING 1049
SWIDTH 762 0
DWIDTH 12 0
BBX 10 15 1 0
BITMAP
006D104F20
0009EED600
0000000000
6C000002FA
6C00000CFA
6C00006E9A
6C0002E78A
6C000AC09A
6C005F309A
6C01E8009A
6C09D1009A
6C4F40009A
6CDA00009A
6FE100009A
6F5000009A
ENDCHAR
STARTCHAR afii10028
ENCODING 1050
SWIDTH 611 0
DWIDTH 10 0
BBX 9 12 1 0
BITMAP
6E00006E30
6E0004F400
6E003E6000
6E02E80000
6E1DA00000
6ECC000000
6E9E200000
6E0BD10000
6E01CC0000
6E002DA000
6E0003E800
6E00004F60
ENDCHAR
STARTCHAR afii10029
ENCODING 1051
SWIDTH 704 0
DWIDTH 11 0
BBX 10 12 0 0
BITMAP
0008FFFFFB
0009A333AB
000B70009B
000D60009B
001F40009B
003F20009B
005E00009B
007C00009B
00A900009B
00E600009B
37F100009B
DE6000009B
ENDCHAR
STARTCHAR afii10030
ENCODING 1052
SWIDTH 902 0
DWIDTH 14 0
BBX 12 12 1 0
BITMAP
6FB0000004FD
6DF200000ADD
6BD700001E9D
6C7D00006C6D
6C2F3000B77D
6C0B9002F27D
6C06E007B07D
6C01E50D507D
6C00AA3E107D
6C004FA9007D
6C000EF4007D
6C0008D0007D
ENDCHAR
STARTCHAR afii10031
ENCODING 1053
SWIDTH 737 0
DWIDTH 12 0
BBX 10 12 1 0
BITMAP
6E000001F4
6E000001F4
6E000001F4
6E000001F4
6E000001F4
6FFFFFFFF4
6E333334F4
6E000001F4
6E000001F4
6E000001F4
6E000001F4
6E000001F4
ENDCHAR
STARTCHAR afii10032
ENCODING 1054
SWIDTH 778 0
DWIDTH 12 0
BBX 11 12 1 0
BITMAP
005BEFD81000
08F9436CD100
4F500001CA00
AC0000005F20
D80000001F50
F60000000E70
F60000000E70
D80000001F50
AC0000005F20
4F500001CA00
08F8435CD100
005BEFD81000
ENDCHAR
STARTCHAR afii10033
ENCODING 1055
SWIDTH 729 0
DWIDTH 12 0
BBX 10 12 1 0
BITMAP
6FFFFFFFF1
6E333336F1
6E000004F1
6E000004F1
6E000004F1
6E000004F1
6E000004F1
6E000004F1
6E000004F1
6E000004F1
6E000004F1
6E000004F1
ENDCHAR
STARTCHAR afii10034
ENCODING 1056
SWIDTH 602 0
DWIDTH 10 0
BBX 8 12 1 0
BITMAP
6FFFEB40
6E234AF4
6E0000CA
6E00009C
6E0000CA
6E0129F3
6FFFFC40
6E221000
6E000000
6E000000
6E000000
6E000000
ENDCHAR
STARTCHAR afii10035
ENCODING 1057
SWIDTH 630 0
DWIDTH 10 0
BBX 9 12 1 0
BITMAP
003ADFEB40
06FA535930
2F80000000
9D00000000
D900000000
F700000000
F700000000
D800000000
AD00000000
4F70000000
08FA434710
005BEFEB10
ENDCHAR
STARTCHAR afii10036
ENCODING 1058
SWIDTH 553 0
DWIDTH 9 0
BBX 9 12 0 0
BITMAP
DFFFFFFFB0
2336F43320
0004F10000
0004F10000
0004F10000
0004F10000
0004F10000
0004F10000
0004F10000
0004F10000
0004F10000
0004F10000
ENDCHAR
STARTCHAR afii10037
ENCODING 1059
SWIDTH 621 0
DWIDTH 10 0
BBX 10 12 0 0
BITMAP
8E100000AB
1E700002F4
08E10008D0
01E7000E60
008E106E10
001E70C900
0008E4F200
0001EDB000
00008F4000
0000BC0000
2549F30000
3DFC400000
ENDCHAR
STARTCHAR afii10038
ENCODING 1060
SWIDTH 797 0
DWIDTH 13 0
BBX 12 12 0 0
BITMAP
000004F10000
003AEFFFD910
03EB46F35CD1
0BB004F101E8
1F5004F1009C
2F4004F1007E
1F6004F1009C
0BC004F101E7
03EB46F35DD1
002AEFFFD810
000004F10000
000004F10000
ENDCHAR
STARTCHAR afii10039
ENCODING 1061
SWIDTH 577 0
DWIDTH 9 0
BBX 9 12 0 0
BITMAP
5F20000C90
0BA0006E10
02F401E500
008D09B000
001DAE2000
0005F80000
0009EC0000
003F3E7000
00C806E200
06D100CA00
1E50003F40
AB000009D0
ENDCHAR
STARTCHAR afii10040
ENCODING 1062
SWIDTH 736 0
DWIDTH 12 0
BBX 11 15 1 -3
BITMAP
6E000004F100
6E000004F100
6E000004F100
6E000004F100
6E000004F100
6E000004F100
6E000004F100
6E000004F100
6E000004F100
6E000004F100
6E333336F410
6FFFFFFFFF70
000000000C70
000000000C70
000000000C70
ENDCHAR
STARTCHAR afii10041
ENCODING 1063
SWIDTH 694 0
DWIDTH 11 0
BBX 9 12 1 0
BITMAP
AA00000C80
AA00000C80
AA00000C80
AA00000C80
AA00000C80
9C00000C80
4F8346AF80
05CEEC8D80
0000000C80
0000000C80
0000000C80
0000000C80
ENDCHAR
STARTCHAR afii10042
ENCODING 1064
SWIDTH 1032 0
DWIDTH 17 0
BBX 14 12 1 0
BITMAP
6E00006E00006E
6E00006E00006E
6E00006E00006E
6E00006E00006E
6E00006E00006E
6E00006E00006E
6E00006E00006E
6E00006E00006E
6E00006E00006E
6E00006E00006E
6E33338E33338E
6FFFFFFFFFFFFE
ENDCHAR
STARTCHAR afii10043
ENCODING 1065
SWIDTH 1033 0
DWIDTH 17 0
BBX 15 15 1 -3
BITMAP
6E00008C0000AA00
6E00008C0000AA00
6E00008C0000AA00
6E00008C0000AA00
6E00008C0000AA00
6E00008C0000AA00
6E00008C0000AA00
6E00008C0000AA00
6E00008C0000AA00
6E00008C0000AA00
6E3333AD3333BB30
6FFFFFFFFFFFFFF0
00000000000004F0
00000000000004F0
00000000000004F0
ENDCHAR
STARTCHAR afii10044
ENCODING 1066
SWIDTH 687 0
DWIDTH 11 0
BBX 11 12 0 0
BITMAP
DFFF10000000
236F10000000
004F10000000
004F10000000
004F10000000
004FFFEC7000
004F4347EA00
004F10006F10
004F10004F20
004F10006F10
004F4236E900
004FFFEC7000
ENDCHAR
STARTCHAR afii10045
ENCODING 1067
SWIDTH 853 0
DWIDTH 14 0
BBX 12 12 1 0
BITMAP
6E00000004F1
6E00000004F1
6E00000004F1
6E00000004F1
6E00000004F1
6FFFEB5004F1
6E3348F604F1
6E0000AC04F1
6E00007E04F1
6E0000AC04F1
6E2238F604F1
6FFFEC5004F1
ENDCHAR
STARTCHAR afii10046
ENCODING 1068
SWIDTH 643 0
DWIDTH 10 0
BBX 9 12 1 0
BITMAP
6E00000000
6E00000000
6E00000000
6E00000000
6E00000000
6FFFED8100
6E3336DD00
6E00002F50
6E00000F60
6E00003F50
6E2235DC00
6FFFFD8100
ENDCHAR
STARTCHAR afii10047
ENCODING 1069
SWIDTH 629 0
DWIDTH 10 0
BBX 10 12 0 0
BITMAP
3ADFEB4000
295349F800
0000006F40
0000000BB0
00000007E0
00EFFFFFF1
00333337F0
00000007E0
0000000CA0
0000006F40
46435AF800
4CEFEB4000
ENDCHAR
STARTCHAR afii10048
ENCODING 1070
SWIDTH 1049 0
DWIDTH 17 0
BBX 15 12 1 0
BITMAP
6E000018DFEB3000
6E0001DD6349F500
6E000AD100007E10
6E001F7000000E70
6E004F3000000BA0
6FFFFF10000009C0
6E336F10000009C0
6E003F3000000BA0
6E000E7000000E70
6E0008D100007E10
6E0001CD6349F500
6E000018DFEB4000
ENDCHAR
STARTCHAR afii10049
ENCODING 1071
SWIDTH 636 0
DWIDTH 10 0
BBX 9 12 0 0
BITMAP
004BEFFF90
04FA432B90
0AC0000B90
0CA0000B90
09D0000B90
03EB422B90
003CFFFF90
000CA00B90
007E200B90
02E7000B90
0AD0000B90
4F40000B90
ENDCHAR
STARTCHAR afii10065
ENCODING 1072
SWIDTH 556 0
DWIDTH 9 0
BBX 8 9 0 0
BITMAP
019DED70
019426F5
000000C8
000000A9
029CEEF9
1DA300B9
3F2000D9
1F823AF9
05DFD779
ENDCHAR
STARTCHAR afii10066
ENCODING 1073
SWIDTH 596 0
DWIDTH 10 0
BBX 9 13 0 0
BITMAP
000036AD60
003DDA7410
01E7000000
07C0000000
0C86DFC300
0ECB33BE10
0FA0001F60
1F40000C80
0F50000BA0
0D80000C80
09D0002F40
02E923CC00
003BFE9100
ENDCHAR
STARTCHAR afii10067
ENCODING 1074
SWIDTH 568 0
DWIDTH 9 0
BBX 8 9 1 0
BITMAP
9FFFEC50
9B2227F2
9A0000F4
9A0016E1
9FFFFD40
9B2226E4
9A0000B8
9B1126F5
9FFFED60
ENDCHAR
STARTCHAR afii10068
ENCODING 1075
SWIDTH 428 0
DWIDTH 7 0
BBX 6 9 1 0
BITMAP
9FFFF8
9B2221
9A0000
9A0000
9A0000
9A0000
9A0000
9A0000
9A0000
ENDCHAR
STARTCHAR afii10069
ENCODING 1076
SWIDTH 571 0
DWIDTH 9 0
BBX 9 12 0 -3
BITMAP
000CFFF900
000D60A900
000E40A900
003F10A900
006C00A900
00C700A900
03F200A900
1CA222BA20
AFFFFFFFC0
A9000007C0
A9000007C0
A9000007C0
ENDCHAR
STARTCHAR afii10070
ENCODING 1077
SWIDTH 561 0
DWIDTH 9 0
BBX 9 9 0 0
BITMAP
004CFD7000
04F725E600
0BA0008D00
0F60005F10
1FFFFFFF20
0F61111100
0C90000000
04F8335700
004BEFD700
ENDCHAR
STARTCHAR afii10072
ENCODING 1078
SWIDTH 735 0
DWIDTH 12 0
BBX 12 9 0 0
BITMAP
4E300B7006E2
07D10B703E30
009B0B72E600
000C9B8C9000
0005FDCF2000
002E6B7AC000
01C90B70CA00
0BB00B701D70
8D100B7003E5
ENDCHAR
STARTCHAR afii10073
ENCODING 1079
SWIDTH 482 0
DWIDTH 8 0
BBX 7 9 0 0
BITMAP
2ADFD800
17324E70
000009A0
00014E60
00EFF900
00124C90
000005E0
56323CB0
4BEFD910
ENDCHAR
STARTCHAR afii10074
ENCODING 1080
SWIDTH 633 0
DWIDTH 10 0
BBX 8 9 1 0
BITMAP
990002FC
99000BDC
99005D7C
9901E57C
9909B07C
993E207C
99C8007C
9DD1007C
9F50007C
ENDCHAR
STARTCHAR afii10075
ENCODING 1081
SWIDTH 633 0
DWIDTH 10 0
BBX 8 12 1 0
BITMAP
0AA008C0
02BEEC30
00000000
990002FC
99000BDC
99005D7C
9901E57C
9909B07C
993E207C
99C8007C
9DD1007C
9F50007C
ENDCHAR
STARTCHAR afii10076
ENCODING 1082
SWIDTH 519 0
DWIDTH 8 0
BBX 7 9 1 0
BITMAP
9A002E60
9A01D800
9A0BA000
9A9C0000
9CF50000
9A6E2000
9A08D100
9A00AC00
9A001CA0
ENDCHAR
STARTCHAR afii10077
ENCODING 1083
SWIDTH 570 0
DWIDTH 9 0
BBX 8 9 0 0
BITMAP
004FFFFC
006D229C
007B008C
009A008C
00B8008C
00E5008C
03F1008C
1BA0008C
DC20008C
ENDCHAR
STARTCHAR afii10078
ENCODING 1084
SWIDTH 734 0
DWIDTH 12 0
BBX 10 9 1 0
BITMAP
9F200007F6
9F80000DF6
9BE0004DC6
98C500A8C6
986B01E2C6
981E26B0C6
980A7C60C6
9804DE10C6
9800D900C6
ENDCHAR
STARTCHAR afii10079
ENCODING 1085
SWIDTH 633 0
DWIDTH 10 0
BBX 8 9 1 0
BITMAP
9A00008C
9A00008C
9A00008C
9A00008C
9FFFFFFC
9B22229C
9A00008C
9A00008C
9A00008C
ENDCHAR
STARTCHAR afii10080
ENCODING 1086
SWIDTH 604 0
DWIDTH 10 0
BBX 9 9 0 0
BITMAP
004CFEA100
04F834BD10
0CA0001E60
0F50000AA0
1F400009B0
0F50000AA0
0BA0001E60
03F823BD10
004BEEA200
ENDCHAR
STARTCHAR afii10081
ENCODING 1087
SWIDTH 621 0
DWIDTH 10 0
BBX 8 9 1 0
BITMAP
9FFFFFF8
9B2222C8
9A0000B8
9A0000B8
9A0000B8
9A0000B8
9A0000B8
9A0000B8
9A0000B8
ENDCHAR
STARTCHAR afii10082
ENCODING 1088
SWIDTH 612 0
DWIDTH 10 0
BBX 8 13 1 -4
BITMAP
987DFC40
9EA339F2
9E1000C9
9B00008C
9A00007D
9B00008C
9E0000D9
9EB339F2
997DFC40
9A000000
9A000000
9A000000
9A000000
ENDCHAR
STARTCHAR afii10083
ENCODING 1089
SWIDTH 476 0
DWIDTH 8 0
BBX 7 9 0 0
BITMAP
004CFEB0
04F83460
0CA00000
0F500000
1F400000
0F500000
0CA00000
05F83360
005CFEA0
ENDCHAR
STARTCHAR afii10084
ENCODING 1090
SWIDTH 466 0
DWIDTH 7 0
BBX 8 9 0 0
BITMAP
AFFFFFF2
122E7220
000E6000
000E6000
000E6000
000E6000
000E6000
000E6000
000E6000
ENDCHAR
STARTCHAR afii10085
ENCODING 1091
SWIDTH 503 0
DWIDTH 8 0
BBX 8 13 0 -4
BITMAP
C900008D
6E0000D8
1F5003F2
0AA008C0
04F10D60
00D63F10
008B8B00
002FD500
000BE100
000AA000
002F4000
22BB0000
CEB10000
ENDCHAR
STARTCHAR afii10086
ENCODING 1092
SWIDTH 714 0
DWIDTH 11 0
BBX 11 17 0 -4
BITMAP
00000D500000
00000D500000
00000D500000
00000D500000
0029EFEB5000
02EA4D77E700
0BB00D505F20
0F600D500E70
1F400D500C80
0F600D500E70
0BB00D504F20
02EA4D76E800
0029EFEB5000
00000E500000
00000E500000
00000E500000
00000E500000
ENDCHAR
STARTCHAR afii10087
ENCODING 1093
SWIDTH 523 0
DWIDTH 8 0
BBX 8 9 0 0
BITMAP
3F4000D9
08D108D1
00C93F30
003FD800
000BF200
005ECA00
01E72E50
0AC006E2
5E2000BB
ENDCHAR
STARTCHAR afii10088
ENCODING 1094
SWIDTH 625 0
DWIDTH 10 0
BBX 9 12 1 -3
BITMAP
9A0000C800
9A0000C800
9A0000C800
9A0000C800
9A0000C800
9A0000C800
9A0000C800
9B2222C910
9FFFFFFFB0
00000008B0
00000008B0
00000008B0
ENDCHAR
STARTCHAR afii10089
ENCODING 1095
SWIDTH 607 0
DWIDTH 10 0
BBX 8 9 1 0
BITMAP
C80000E5
C80000E5
C80000E5
B80000E5
8D214AF5
1BFFD6E5
000000E5
000000E5
000000E5
ENDCHAR
STARTCHAR afii10090
ENCODING 1096
SWIDTH 890 0
DWIDTH 14 0
BBX 12 9 1 0
BITMAP
9A0008C0007D
9A0008C0007D
9A0008C0007D
9A0008C0007D
9A0008C0007D
9A0008C0007D
9A0008C0007D
9B2229C2228D
9FFFFFFFFFFD
ENDCHAR
STARTCHAR afii10091
ENCODING 1097
SWIDTH 896 0
DWIDTH 14 0
BBX 14 12 1 -3
BITMAP
9A0008C0007D00
9A0008C0007D00
9A0008C0007D00
9A0008C0007D00
9A0008C0007D00
9A0008C0007D00
9A0008C0007D00
9B2229C2228D20
9FFFFFFFFFFFF1
000000000004F1
000000000004F1
000000000004F1
ENDCHAR
STARTCHAR afii10092
ENCODING 1098
SWIDTH 694 0
DWIDTH 11 0
BBX 11 9 0 0
BITMAP
AFFF50000000
122E50000000
000E50000000
000E50000000
000EFFFEB400
000E72239E10
000E50001F30
000E61129E10
000EFFFEB300
ENDCHAR
STARTCHAR afii10093
ENCODING 1099
SWIDTH 770 0
DWIDTH 12 0
BBX 10 9 1 0
BITMAP
9A0000005E
9A0000005E
9A0000005E
9A0000005E
9FFFEC405E
9B2239E15E
9A0002F35E
9B1129E05E
9FFFEB305E
ENDCHAR
STARTCHAR afii10094
ENCODING 1100
SWIDTH 591 0
DWIDTH 9 0
BBX 8 9 1 0
BITMAP
9A000000
9A000000
9A000000
9A000000
9FFFFD70
9B2225E6
9A0000B8
9B1125F5
9FFFFD60
ENDCHAR
STARTCHAR afii10095
ENCODING 1101
SWIDTH 492 0
DWIDTH 8 0
BBX 7 9 0 0
BITMAP
3CEEB300
1634AF30
00000CA0
000007E0
0BFFFFF0
012228D0
00000BA0
4434AE20
5DFEA200
ENDCHAR
STARTCHAR afii10096
ENCODING 1102
SWIDTH 831 0
DWIDTH 13 0
BBX 12 9 1 0
BITMAP
9A0004CFD800
9A003F724D80
9A00B90004F1
9A00E50001F4
9FFFF40000E6
9B22F50001F4
9A00C90004F1
9A005F724D80
9A0005CED800
ENDCHAR
STARTCHAR afii10097
ENCODING 1103
SWIDTH 555 0
DWIDTH 9 0
BBX 8 9 0 0
BITMAP
04CFFFF8
1F8222C8
4F0000C8
1E9322C8
03CFFFF8
00AC00C8
04F300C8
0CA000C8
6F2000C8
ENDCHAR
STARTCHAR uni0450
ENCODING 1104
SWIDTH 561 0
DWIDTH 9 0
BBX 9 13 0 0
BITMAP
004F500000
0009C00000
0000B60000
0000000000
004CFD7000
04F725E600
0BA0008D00
0F60005F10
1FFFFFFF20
0F61111100
0C90000000
04F8335700
004BEFD700
ENDCHAR
STARTCHAR afii10071
ENCODING 1105
SWIDTH 561 0
DWIDTH 9 0
BBX 9 12 0 0
BITMAP
005B06B000
005A05A000
0000000000
004CFD7000
04F725E600
0BA0008D00
0F60005F10
1FFFFFFF20
0F61111100
0C90000000
04F8335700
004BEFD700
ENDCHAR
STARTCHAR afii10099
ENCODING 1106
SWIDTH 613 0
DWIDTH 10 0
BBX 9 17 0 -4
BITMAP
09A0000000
09A0000000
DFFFFC0000
09A0000000
09A9EFC500
09FB428F20
09E1000D60
09C0000C80
09A0000C80
09A0000C80
09A0000C80
09A0000C80
09A0000C80
0000000C80
0000000C80
0000023E50
000009EA00
ENDCHAR
STARTCHAR afii10100
ENCODING 1107
SWIDTH 428 0
DWIDTH 7 0
BBX 6 13 1 0
BITMAP
000CC0
005E20
00D400
000000
9FFFF8
9B2221
9A0000
9A0000
9A0000
9A0000
9A0000
9A0000
9A0000
ENDCHAR
STARTCHAR afii10101
ENCODING 1108
SWIDTH 492 0
DWIDTH 8 0
BBX 8 9 0 0
BITMAP
004BEEC2
04F83360
0BA00000
0F500000
1FFFFF80
0F622210
0C900000
04F73362
004CFEC2
ENDCHAR
STARTCHAR afii10102
ENCODING 1109
SWIDTH 477 0
DWIDTH 8 0
BBX 7 9 0 0
BITMAP
03BEEC50
0E822640
1F300000
0BD61000
006DE800
00004D90
000006D0
2A423C90
1ADFD910
ENDCHAR
STARTCHAR afii10103
ENCODING 1110
SWIDTH 252 0
DWIDTH 4 0
BBX 2 12 1 0
BITMAP
56
89
00
9A
9A
9A
9A
9A
9A
9A
9A
9A
ENDCHAR
STARTCHAR afii10104
ENCODING 1111
SWIDTH 252 0
DWIDTH 4 0
BBX 6 12 -1 0
BITMAP
1D21D2
1D21D1
000000
009A00
009A00
009A00
009A00
009A00
009A00
009A00
009A00
009A00
ENDCHAR
STARTCHAR afii10105
ENCODING 1112
SWIDTH 252 0
DWIDTH 4 0
BBX 4 16 -1 -4
BITMAP
0056
0089
0000
009A
009A
009A
009A
009A
009A
009A
009A
009A
009A
00AA
22D7
CEB1
ENDCHAR
STARTCHAR afii10106
ENCODING 1113
SWIDTH 836 0
DWIDTH 13 0
BBX 13 9 0 0
BITMAP
004FFFF6000000
006D23F6000000
007B02F6000000
009902F6000000
00B702FFFFD700
00E502F5226F50
03F102F3000D70
1BA002F4126F40
DC2002FFFEC600
ENDCHAR
STARTCHAR afii10107
ENCODING 1114
SWIDTH 886 0
DWIDTH 14 0
BBX 13 9 1 0
BITMAP
9B0005F0000000
9B0005F0000000
9B0005F0000000
9B0005F0000000
9FFFFFFFFFC500
9B2227F1128F20
9B0005F0001F30
9B0005F1129E10
9B0005FFFEB400
ENDCHAR
STARTCHAR afii10108
ENCODING 1115
SWIDTH 613 0
DWIDTH 10 0
BBX 9 13 0 0
BITMAP
09A0000000
09A0000000
DFFFFF3000
09A0000000
09A9EFC500
09FB428F20
09E1000D60
09B0000C80
09A0000C80
09A0000C80
09A0000C80
09A0000C80
09A0000C80
ENDCHAR
STARTCHAR afii10109
ENCODING 1116
SWIDTH 519 0
DWIDTH 8 0
BBX 7 13 1 0
BITMAP
0004F500
000C9000
005C0000
00000000
9A002E60
9A01D800
9A0BA000
9A9C0000
9CF50000
9A6E2000
9A08D100
9A00AC00
9A001CA0
ENDCHAR
STARTCHAR uni045D
ENCODING 1117
SWIDTH 633 0
DWIDTH 10 0
BBX 8 13 1 0
BITMAP
01E90000
005F2000
0007A000
00000000
990002FC
99000BDC
99005D7C
9901E57C
9909B07C
993E207C
99C8007C
9DD1007C
9F50007C
ENDCHAR
STARTCHAR afii10110
ENCODING 1118
SWIDTH 503 0
DWIDTH 8 0
BBX 8 16 0 -4
BITMAP
0B9009B0
03CEEB30
00000000
C900008D
6E0000D8
1F5003F2
0AA008C0
04F10D60
00D63F10
008B8B00
002FD500
000BE100
000AA000
002F4000
22BB0000
CEB10000
ENDCHAR
STARTCHAR afii10193
ENCODING 1119
SWIDTH 621 0
DWIDTH 10 0
BBX 8 12 1 -3
BITMAP
9A0000B8
9A0000B8
9A0000B8
9A0000B8
9A0000B8
9A0000B8
9A0000B8
9B2222C8
9FFFFFF8
0009A000
0009A000
0009A000
ENDCHAR
STARTCHAR uni0460
ENCODING 1120
SWIDTH 1011 0
DWIDTH 16 0
BBX 15 12 1 0
BITMAP
02BEE8006DFC3000
1DC45600564AE200
7F2000000000D900
BB00000000008E00
D800000000006F10
E700000000005F20
E700000000005F10
C900009B00006F00
9D00009B0000AC00
4F40009B0002F700
0BE635DE635DD100
018EFD87CEEA1000
ENDCHAR
STARTCHAR uni0461
ENCODING 1121
SWIDTH 818 0
DWIDTH 13 0
BBX 13 9 0 0
BITMAP
D8006E10001F30
8D001F50002F20
2F300AA0003F10
0C8005E0006D00
07D008F500A900
02F31EC902F400
00C77C4E09B000
007BD50E9E3000
002FD009F60000
ENDCHAR
STARTCHAR uni0462
ENCODING 1122
SWIDTH 674 0
DWIDTH 11 0
BBX 10 13 0 0
BITMAP
005F000000
005F000000
CFFFFFF400
226F322100
005F000000
005F000000
005FFFEB50
005F3349F6
005F00009D
005F00007E
005F0000AC
005F2238F6
005FFFEC60
ENDCHAR
STARTCHAR uni0463
ENCODING 1123
SWIDTH 631 0
DWIDTH 10 0
BBX 10 11 0 0
BITMAP
00F5000000
00F5000000
CFFFFF0000
11F6110000
00F5000000
00F5000000
00FFFFEB40
00F62239E1
00F50002F2
00F61139E0
00FFFFEB30
ENDCHAR
STARTCHAR uni0464
ENCODING 1124
SWIDTH 918 0
DWIDTH 15 0
BBX 14 12 1 0
BITMAP
6E000006CEED81
6E0001BE8446A0
6E0008E2000000
6E001E70000000
6E003F30000000
6FFFFFFFFFF800
6E337F43333100
6E003F30000000
6E001F70000000
6E0009E2000000
6E0001CE743560
6E000018DFED80
ENDCHAR
STARTCHAR uni0465
ENCODING 1125
SWIDTH 735 0
DWIDTH 12 0
BBX 11 9 1 0
BITMAP
9A0004BEEC10
9A003F833600
9A00AA000000
9A00E5000000
9FFFFFFFF700
9B22F6222100
9A00C9000000
9A004F833610
9A0004BEEB10
ENDCHAR
STARTCHAR uni0466
ENCODING 1126
SWIDTH 678 0
DWIDTH 11 0
BBX 11 12 0 0
BITMAP
00006F400000
0000CDA00000
0003F5F10000
0009B0D70000
001E507D0000
006FFFFF4000
00C95F3BA000
03F23F05F100
09B03F00E700
1E503F008D00
6E103F002F40
C9003F000CA0
ENDCHAR
STARTCHAR uni0467
ENCODING 1127
SWIDTH 563 0
DWIDTH 9 0
BBX 9 9 0 0
BITMAP
0007F80000
000D9E0000
004E1E5000
00B909B000
02FFFFF200
08D2F3D800
0D71F26E00
5F11F21E50
B901F209B0
ENDCHAR
STARTCHAR uni0468
ENCODING 1128
SWIDTH 920 0
DWIDTH 15 0
BBX 14 12 1 0
BITMAP
6E000008F20000
6E00000DE80000
6E00005E6E0000
6E0000B91E5000
6E0002F40AB000
6FFFFFFFFFF200
6E333F86E3D800
6E005F14E07E00
6E00BA04E01F50
6E02F504E00AB0
6E08E004E005F2
6E0E8004E000E8
ENDCHAR
STARTCHAR uni0469
ENCODING 1129
SWIDTH 766 0
DWIDTH 12 0
BBX 11 9 1 0
BITMAP
9A0004FB0000
9A0009AF2000
9A001E3B8000
9A006D06E000
9FFFFFFFF500
9B25F3D6AB00
9A0AA0D53F20
9A1F40D50C80
9A7D00D506E0
ENDCHAR
STARTCHAR uni046A
ENCODING 1130
SWIDTH 721 0
DWIDTH 12 0
BBX 12 12 0 0
BITMAP
0CFFFFFFFF50
06F53333AD10
009C1005E300
000BA03E4000
0001D8D70000
004CFFFE9100
02F71D72CA00
08D00D704F10
0D800D700E60
2F400D700AA0
6F100D7006E0
BB000D7002F3
ENDCHAR
STARTCHAR uni046B
ENCODING 1131
SWIDTH 642 0
DWIDTH 10 0
BBX 10 9 0 0
BITMAP
0CFFFFFFF1
04F4112D80
007D10AA00
0009B7C100
009EEFEB20
07D27B1BB0
0E607B03F3
5E107B00C9
B9007B006E
ENDCHAR
STARTCHAR uni046C
ENCODING 1132
SWIDTH 974 0
DWIDTH 16 0
BBX 15 12 1 0
BITMAP
6E009FFFFFFFF700
6E004F733338E200
6E0007E2003E5000
6E0000AC01D70000
6E00000C9BA00000
6FFFFFFFFFEA2000
6E333EA2BA3BC000
6E005E10B901F400
6E00AA00B900B800
6E00E600B9007D00
6E04F200B9003F20
6E08D000B9000E60
ENDCHAR
STARTCHAR uni046D
ENCODING 1133
SWIDTH 846 0
DWIDTH 14 0
BBX 13 9 1 0
BITMAP
9A08FFFFFFF600
9A01D8111AC000
9A003E406D1000
9A0005E5E30000
9FFFFFEFED4000
9B24F43F07E100
9A09B03F00D700
9A1E503F007D00
9A6E003F002F40
ENDCHAR
STARTCHAR uni046E
ENCODING 1134
SWIDTH 582 0
DWIDTH 9 0
BBX 9 17 0 -3
BITMAP
02D508E500
002DCB1000
05BFFEA200
2C6313CC00
0000004F20
0000006F10
000026E600
03FFFD4000
002237E800
0000004F30
0000000F60
0000004F40
000136DB00
08EFEC7100
6F41000000
6F53333410
09EFFFFF30
ENDCHAR
STARTCHAR uni046F
ENCODING 1135
SWIDTH 482 0
DWIDTH 8 0
BBX 7 14 0 -3
BITMAP
0A905D90
01CBE400
2BFFE800
07314D70
000009A0
00014E50
00EFF900
00124C90
000005E0
00014CB0
2BFFD910
AA100000
B9211100
3CFFFFE0
ENDCHAR
STARTCHAR uni0470
ENCODING 1136
SWIDTH 795 0
DWIDTH 13 0
BBX 12 12 0 0
BITMAP
2F3004F0007D
2F3004F0007D
2F3004F0007D
2F3004F0007D
1F5004F0009C
0D9004F000D9
05F825F13AE2
005DFFFFFB30
000016F21000
000004F00000
000004F00000
000004F00000
ENDCHAR
STARTCHAR uni0471
ENCODING 1137
SWIDTH 752 0
DWIDTH 12 0
BBX 11 17 1 -4
BITMAP
00009B000000
00009B000000
00009B000000
00009B000000
B9009B00AA00
B9009B007C00
B9009B005E00
B9009B004F00
B9009B004F10
9B009B006E00
6F209B00D900
0CD5AB5CE200
019DFFD92000
00009B000000
00009B000000
00009B000000
00009B000000
ENDCHAR
STARTCHAR uni0472
ENCODING 1138
SWIDTH 779 0
DWIDTH 12 0
BBX 11 12 1 0
BITMAP
005BEFD81000
08F9546DD100
4F500000CA00
AB0000004F20
D80000001F50
FFFFFFFFFF70
F83333333F70
D80000001F50
AD0000006F20
4F600001DA00
08F9436DD100
005BEFD81000
ENDCHAR
STARTCHAR uni0473
ENCODING 1139
SWIDTH 604 0
DWIDTH 10 0
BBX 9 9 0 0
BITMAP
004CFEA100
04F733BD10
0C90001E60
0F50000AA0
1FFFFFFFB0
0F62222AA0
0B90000D60
03E723AD10
004BEEA200
ENDCHAR
STARTCHAR uni0474
ENCODING 1140
SWIDTH 625 0
DWIDTH 10 0
BBX 11 12 0 0
BITMAP
C9000000AF80
7E000006E320
2F40000C8000
0C90002F3000
07E0006E0000
02F400B90000
00BA01F50000
006E05F10000
001F59B00000
000B9D600000
0006EF200000
0001FD000000
ENDCHAR
STARTCHAR uni0475
ENCODING 1141
SWIDTH 505 0
DWIDTH 8 0
BBX 9 9 0 0
BITMAP
C800006E70
7D0001E500
2F4005E000
0C900A9000
06E00E5000
01F43F1000
00B98B0000
005EB60000
001EF20000
ENDCHAR
STARTCHAR uni0476
ENCODING 1142
SWIDTH 625 0
DWIDTH 10 0
BBX 11 16 0 0
BITMAP
05F28E000000
00A91D600000
001C22D00000
000000000000
C9000000AF80
7E000006E320
2F40000C8000
0C90002F3000
07E0006E0000
02F400B90000
00BA01F50000
006E05F10000
001F59B00000
000B9D600000
0006EF200000
0001FD000000
ENDCHAR
STARTCHAR uni0477
ENCODING 1143
SWIDTH 505 0
DWIDTH 8 0
BBX 9 13 0 0
BITMAP
4F47E10000
09B0C80000
00C42D1000
0000000000
C800006E70
7D0001E500
2F4005E000
0C900A9000
06E00E5000
01F43F1000
00B98B0000
005EB60000
001EF20000
ENDCHAR
STARTCHAR uni0478
ENCODING 1144
SWIDTH 1208 0
DWIDTH 19 0
BBX 19 16 1 -4
BITMAP
007CFEB3000000000000
0AE7349F400000000000
5F400009D00000000000
AB000002F58C00004F10
E8000000D83F30009B00
F6000000C90C9000E600
F6000000C906E005E100
D8000000D801F50AA000
AB000002F500AA1E4000
5F300009D0004F5E0000
0AE7349F40000DD90000
007CFEB3000008F30000
00000000000007D00000
0000000000000D700000
0000000000129E100000
00000000009FC3000000
ENDCHAR
STARTCHAR uni0479
ENCODING 1145
SWIDTH 1061 0
DWIDTH 17 0
BBX 17 13 0 -4
BITMAP
004CFEA10D800009C0
04F834BD17D0000E60
0CA0001E62F4004F10
0F50000AA0B9009B00
1F400009B05E00E500
0F50000AA00E55E100
0BA0001E6009AAA000
03F823BD1003EE4000
004BEEA20000CE0000
000000000000C80000
000000000002F30000
00000000023CA00000
000000000DEA100000
ENDCHAR
STARTCHAR uni047A
ENCODING 1146
SWIDTH 818 0
DWIDTH 13 0
BBX 12 14 1 -1
BITMAP
00004C500000
004BFFFC5000
07F97C78F800
3F7000005F40
AD0000000CB0
D800000007E0
F700000005F1
F700000005F1
D800000007E0
9D0000000CB0
3F7000005F40
07F96C78F800
004BFFFC5000
00004C500000
ENDCHAR
STARTCHAR uni047B
ENCODING 1147
SWIDTH 657 0
DWIDTH 11 0
BBX 10 11 0 -1
BITMAP
00006A1000
003BFFD700
03E86A4CA0
0BA00002F3
0E500000C7
1F400000B9
0E500000C7
0BA00002F4
03E76A4CB0
003BFFE800
00006B1000
ENDCHAR
STARTCHAR uni047C
ENCODING 1148
SWIDTH 999 0
DWIDTH 16 0
BBX 14 18 1 0
BITMAP
00002CEA510000
00007915AE4000
0000008C000000
0000001E000000
00000084000000
00000000000000
02BED8008DEB20
1EB45600654BD1
8E1000000001E7
CA0000000000AC
E700000000008E
F600000000006F
F600000000007E
D800000000008D
AC0000000000CA
5F4000000004F5
0BE635CC536EB0
019EFD88DFE810
ENDCHAR
STARTCHAR uni047D
ENCODING 1149
SWIDTH 808 0
DWIDTH 13 0
BBX 12 15 0 0
BITMAP
0000BEB62000
0004C039D700
000005E10000
000000D20000
000006600000
000000000000
008EE607EE80
07E5430335E6
0D800000009C
0F500000006E
1F400000005F
0F500000006E
0C90000000AB
04F7359438F4
006DFD9DFC50
ENDCHAR
STARTCHAR uni047E
ENCODING 1150
SWIDTH 983 0
DWIDTH 16 0
BBX 15 15 0 0
BITMAP
00004EBEDCE10000
0000090620900000
0000000000000000
005CFD5008DEB200
04F947400654BD10
0BC0000000001E70
1F60000000000AC0
3F400000000008E0
4F300000000006F0
3F300000000007E0
2F50000C800008D0
0E80000C80000CA0
09E1000C80004F50
01EC536EC536EB00
002AEEC78DFE9100
ENDCHAR
STARTCHAR uni047F
ENCODING 1151
SWIDTH 818 0
DWIDTH 13 0
BBX 13 12 0 0
BITMAP
000ECCEBE50000
00080170800000
00000000000000
D8006E10001F30
8D001F50002F20
2F300AA0003F10
0C8005E0006D00
07D008F500A900
02F31EC902F400
00C86C4E09B000
007CD50E9E3000
002FD009F60000
ENDCHAR
STARTCHAR uni0480
ENCODING 1152
SWIDTH 639 0
DWIDTH 10 0
BBX 9 16 1 -4
BITMAP
0029DFEB50
05EB534850
2E80000000
8D00000000
D900000000
F700000000
F700000000
D800000000
AC00000000
4F70000000
08FA544000
005BEFC000
000008C000
000008C000
000008C000
000008C000
ENDCHAR
STARTCHAR uni0481
ENCODING 1153
SWIDTH 487 0
DWIDTH 8 0
BBX 8 13 0 -4
BITMAP
004BEEC2
04F84360
0BA00000
0F500000
1F400000
0F500000
0CA00000
05F83320
005CFF60
00000D60
00000D60
00000D60
00000D60
ENDCHAR
STARTCHAR uni0482
ENCODING 1154
SWIDTH 608 0
DWIDTH 10 0
BBX 8 10 1 0
BITMAP
000002B0
00940B80
006DBD10
0001EE81
1007C2AA
D82E3000
2AFC0000
03ECC300
0C706600
2B000000
ENDCHAR
STARTCHAR uni0483
ENCODING 1155
SWIDTH 557 0
DWIDTH 9 0
BBX 7 3 1 9
BITMAP
00000A20
5FCCCC30
26000000
ENDCHAR
STARTCHAR uni0484
ENCODING 1156
SWIDTH 577 0
DWIDTH 9 0
BBX 7 2 1 10
BITMAP
0049ED40
1EB616A0
ENDCHAR
STARTCHAR uni0485
ENCODING 1157
SWIDTH 577 0
DWIDTH 9 0
BBX 3 3 3 10
BITMAP
1E40
2C00
0760
ENDCHAR
STARTCHAR uni0486
ENCODING 1158
SWIDTH 577 0
DWIDTH 9 0
BBX 3 3 3 10
BITMAP
0E60
0880
2910
ENDCHAR
STARTCHAR uni0488
ENCODING 1160
SWIDTH 988 0
DWIDTH 16 0
BBX 16 14 0 -3
BITMAP
0000004CB1000000
0000009046000000
00AD6000000AD600
0360A00000360A00
0000000000000000
0000000000000000
3CC2000000004CB1
8128000000009046
0000000000000000
0000000000000000
00AC6000000AC600
0360A00000360A00
0000004CB1000000
0000009046000000
ENDCHAR
STARTCHAR uni0489
ENCODING 1161
SWIDTH 956 0
DWIDTH 15 0
BBX 15 15 0 -3
BITMAP
0000000760000000
0000000C30000000
0058001C00006200
001E3000004D9100
0007400000140000
0000000000000000
3200000000003100
6DE100000000AE90
0040000000000140
0000000000000000
0000100000040000
002BA000002E2000
00A6000950078000
0000000D20004000
0000001B00000000
ENDCHAR
STARTCHAR uni048A
ENCODING 1162
SWIDTH 770 0
DWIDTH 12 0
BBX 11 18 1 -3
BITMAP
009A007D0000
002BEEC40000
000000000000
6C000002F900
6C00000BF900
6C00006EA900
6C0002E79900
6C000AC09900
6C005F309900
6C01E8009900
6C09D1009900
6C4F40009900
6CD900009900
6FE100009A30
6F5000009FD0
000000000990
000000001E50
000000006F10
ENDCHAR
STARTCHAR uni048B
ENCODING 1163
SWIDTH 643 0
DWIDTH 10 0
BBX 9 15 1 -3
BITMAP
08C105E100
01AEEC5000
0000000000
990002FC00
99000BDC00
99005D7C00
9901E57C00
9909B07C00
993E207C00
98C7007C00
9DD0007C20
9F40007FE0
00000006B0
0000000B80
0000001F40
ENDCHAR
STARTCHAR uni048C
ENCODING 1164
SWIDTH 612 0
DWIDTH 10 0
BBX 9 12 0 0
BITMAP
06E0000000
06E0000000
9FFFF90000
28E3310000
06E0000000
06FFFEB500
06E3349F60
06E0000AD0
06E00007E0
06E0000AD0
06E2249F60
06FFFEC500
ENDCHAR
STARTCHAR uni048D
ENCODING 1165
SWIDTH 591 0
DWIDTH 9 0
BBX 9 13 0 0
BITMAP
09A0000000
09A0000000
DFFFF00000
09A0000000
09A0000000
09A0000000
09A0000000
09A0000000
09FFFED700
09B2226E60
09A0000B80
09B1126F50
09FFFEC600
ENDCHAR
STARTCHAR uni048E
ENCODING 1166
SWIDTH 610 0
DWIDTH 10 0
BBX 8 12 1 0
BITMAP
6FFFEC50
6E2349F6
6E0000AD
6E00007E
6E02B1BB
6E23DDF4
6FFFEE70
6E0004D0
6E000010
6E000000
6E000000
6E000000
ENDCHAR
STARTCHAR uni048F
ENCODING 1167
SWIDTH 612 0
DWIDTH 10 0
BBX 8 13 1 -4
BITMAP
987DFC40
9EA338F2
9E1000C9
9B00008C
9A00007D
9B00008D
9E00B3C9
9EB37EF3
9A7DEEB0
9A0001D2
9A000000
9A000000
9A000000
ENDCHAR
STARTCHAR afii10050
ENCODING 1168
SWIDTH 526 0
DWIDTH 8 0
BBX 8 14 1 0
BITMAP
000003F1
000003F1
6FFFFFF1
6E333330
6E000000
6E000000
6E000000
6E000000
6E000000
6E000000
6E000000
6E000000
6E000000
6E000000
ENDCHAR
STARTCHAR afii10098
ENCODING 1169
SWIDTH 428 0
DWIDTH 7 0
BBX 6 12 1 0
BITMAP
0000C8
0000C8
0000C8
9FFFF8
9A0000
9A0000
9A0000
9A0000
9A0000
9A0000
9A0000
9A0000
ENDCHAR
STARTCHAR uni0492
ENCODING 1170
SWIDTH 526 0
DWIDTH 8 0
BBX 9 12 0 0
BITMAP
06FFFFFF10
06E3333300
06E0000000
06E0000000
06E0000000
9FFFFF3000
28E3331000
06E0000000
06E0000000
06E0000000
06E0000000
06E0000000
ENDCHAR
STARTCHAR uni0493
ENCODING 1171
SWIDTH 428 0
DWIDTH 7 0
BBX 7 9 0 0
BITMAP
09FFFF80
09B11110
09A00000
09A00000
DFFFF600
09A00000
09A00000
09A00000
09A00000
ENDCHAR
STARTCHAR uni0494
ENCODING 1172
SWIDTH 642 0
DWIDTH 10 0
BBX 9 16 1 -4
BITMAP
6FFFFFF200
6E33333000
6E00000000
6E00000000
6E00000000
6FEFEB4000
6E334AF600
6E00009F20
6E00001E70
6E00000CA0
6E00000BB0
6E00000BA0
0000000E70
0000005F30
005437E900
008EFD7000
ENDCHAR
STARTCHAR uni0495
ENCODING 1173
SWIDTH 524 0
DWIDTH 8 0
BBX 7 13 1 -4
BITMAP
9FFFF900
9B222100
9A000000
9A000000
9FFEB300
9B34AF30
9A000DA0
9A0008D0
9A0007E0
000007D0
00000BA0
03537F30
03DFD500
ENDCHAR
STARTCHAR uni0496
ENCODING 1174
SWIDTH 890 0
DWIDTH 14 0
BBX 14 15 0 -3
BITMAP
6E2000D60008D1
0AC000D6005E30
01D900D602E600
002E50D60C9000
0005E2D69C0000
00009CEBE20000
0000CAD9F50000
0009D1D66E2000
005F30D60AC000
02E700D601D900
0CA000D6003F63
9D1000D60007FE
0000000000005E
0000000000005E
0000000000005E
ENDCHAR
STARTCHAR uni0497
ENCODING 1175
SWIDTH 779 0
DWIDTH 12 0
BBX 13 12 0 -3
BITMAP
4E300B7006E200
06D10B703E3000
009B0B72E60000
000C9B8C800000
0005FDCF200000
002E6B79C00000
01C90B70C90000
0BB00B701D7200
8D100B7003EF40
00000000000F40
00000000000F40
00000000000F40
ENDCHAR
STARTCHAR uni0498
ENCODING 1176
SWIDTH 581 0
DWIDTH 9 0
BBX 9 15 0 -3
BITMAP
05BEFD9100
2D7425DC00
0000004F20
0000006F10
000026E700
03FFFE6000
002237E900
0000004F40
0000001F60
0000004F40
584236EB00
3ADFEC6000
0003B10000
0000A70000
000CE40000
ENDCHAR
STARTCHAR uni0499
ENCODING 1177
SWIDTH 482 0
DWIDTH 8 0
BBX 7 12 0 -3
BITMAP
2ADFD800
17324E70
000009A0
00014E60
00EFF900
00124C90
000005E0
56323CB0
4BEFD910
001A5000
0004D000
007E8000
ENDCHAR
STARTCHAR uni049A
ENCODING 1178
SWIDTH 661 0
DWIDTH 11 0
BBX 10 15 1 -3
BITMAP
6E00005F40
6E0004F500
6E002E7000
6E01D90000
6E1CA00000
6EAF400000
6FBAD10000
6E01DA0000
6E004F6000
6E0008E200
6E0000CC31
6E00002EF5
00000000E5
00000000E5
00000000E5
ENDCHAR
STARTCHAR uni049B
ENCODING 1179
SWIDTH 544 0
DWIDTH 9 0
BBX 8 12 1 -3
BITMAP
9A002E60
9A01D800
9A0BA000
9A9C0000
9CF50000
9A6E2000
9A08D100
9A00AB21
9A001CF7
000000C7
000000C7
000000C7
ENDCHAR
STARTCHAR uni049C
ENCODING 1180
SWIDTH 613 0
DWIDTH 10 0
BBX 9 12 1 0
BITMAP
6E00005F40
6E0004F500
6E2D2E7000
6E2ED90000
6E2FA00000
6EAF400000
6FCFD10000
6E2DCA0000
6E2D3F6000
6E1707E200
6E0000BB00
6E00002E70
ENDCHAR
STARTCHAR uni049D
ENCODING 1181
SWIDTH 533 0
DWIDTH 9 0
BBX 8 9 1 0
BITMAP
9A230AA0
9A699B00
9A6EC100
9A9D2000
9CFA0000
9A7F4000
9A6DE300
9A696E30
9A1208D2
ENDCHAR
STARTCHAR uni049E
ENCODING 1182
SWIDTH 613 0
DWIDTH 10 0
BBX 10 12 0 0
BITMAP
06E00006E3
9FFF904E40
28E323E500
06E02E6000
06E2D70000
06ECF70000
06F88F2000
06E00CC000
06E003F700
06E0007F30
06E0000CC0
06E00002F7
ENDCHAR
STARTCHAR uni049F
ENCODING 1183
SWIDTH 517 0
DWIDTH 8 0
BBX 8 13 0 0
BITMAP
09A00000
09A00000
DFFFFA00
09A00000
09A002D8
09A01D90
09A1CB00
09AAC100
09EEE100
09C1CB00
09A02E60
09A006F3
09A000AC
ENDCHAR
STARTCHAR uni04A0
ENCODING 1184
SWIDTH 688 0
DWIDTH 11 0
BBX 11 12 0 0
BITMAP
DFFF10003E60
336F1002E800
004F101CA000
004F10BB0000
004F19D10000
004F9F800000
004FD8F30000
004F20BD0000
004F102E9000
004F1005F400
004F10009E10
004F10001DA0
ENDCHAR
STARTCHAR uni04A1
ENCODING 1185
SWIDTH 615 0
DWIDTH 10 0
BBX 10 9 0 0
BITMAP
AFFF5006E2
111E504E30
000E52E500
000E6D8000
000ECE1000
000E5BB000
000E51C900
000E502E70
000E5003E5
ENDCHAR
STARTCHAR uni04A2
ENCODING 1186
SWIDTH 746 0
DWIDTH 12 0
BBX 11 15 1 -3
BITMAP
6E000001F400
6E000001F400
6E000001F400
6E000001F400
6E000001F400
6FFFFFFFF400
6E333334F400
6E000001F400
6E000001F400
6E000001F400
6E000001F620
6E000001FF80
000000000B80
000000000B80
000000000B80
ENDCHAR
STARTCHAR uni04A3
ENCODING 1187
SWIDTH 647 0
DWIDTH 10 0
BBX 9 12 1 -3
BITMAP
9A00008C00
9A00008C00
9A00008C00
9A00008C00
9FFFFFFC00
9B22229C00
9A00008C00
9A00008C20
9A00008FE0
00000005E0
00000005E0
00000005E0
ENDCHAR
STARTCHAR uni04A4
ENCODING 1188
SWIDTH 812 0
DWIDTH 13 0
BBX 12 12 1 0
BITMAP
6E000001FFFD
6E000001F633
6E000001F400
6E000001F400
6E000001F400
6FFFFFFFF400
6E333334F400
6E000001F400
6E000001F400
6E000001F400
6E000001F400
6E000001F400
ENDCHAR
STARTCHAR uni04A5
ENCODING 1189
SWIDTH 735 0
DWIDTH 12 0
BBX 11 9 1 0
BITMAP
9A00008FFF80
9A00008C1110
9A00008C0000
9A00008C0000
9FFFFFFC0000
9B22229C0000
9A00008C0000
9A00008C0000
9A00008C0000
ENDCHAR
STARTCHAR uni04A6
ENCODING 1190
SWIDTH 1066 0
DWIDTH 17 0
BBX 16 16 1 -4
BITMAP
6FFFFFFFB0000000
6E33333BB0000000
6E000009B0000000
6E000009B0000000
6E000009B0000000
6E000009FFFD8100
6E000009C336DD10
6E000009B0001E90
6E000009B00008E0
6E000009B00005F2
6E000009B00003F3
6E000009B00004F3
00000000000006F0
0000000000000CA0
000000001634BE30
000000002CEEB300
ENDCHAR
STARTCHAR uni04A7
ENCODING 1191
SWIDTH 865 0
DWIDTH 14 0
BBX 13 13 1 -4
BITMAP
9FFFFFF4000000
9B2223F4000000
9A0001F4000000
9A0001F4000000
9A0001FEFD7000
9A0001F736E700
9A0001F4007E10
9A0001F4002F30
9A0001F4001F40
00000000002F30
00000000005F10
0000000434DA00
00000006EEA100
ENDCHAR
STARTCHAR uni04A8
ENCODING 1192
SWIDTH 778 0
DWIDTH 12 0
BBX 11 13 1 -1
BITMAP
006CEE800000
09E744200000
4F4002CFC300
AB000CB3BD00
D8003F303F30
F6005F100F60
F6006F000F60
E8004F201F50
AC001F606F20
4F500BD2DC00
08F846FEF500
005BEFDEC440
00000002BFA0
ENDCHAR
STARTCHAR uni04A9
ENCODING 1193
SWIDTH 640 0
DWIDTH 10 0
BBX 10 9 0 0
BITMAP
005DFB0000
04F6220000
0B8007EE70
0E503F55F2
1F406E00F5
0F506E00F4
0B903F46D0
04F72BEE51
004CEEBDF9
ENDCHAR
STARTCHAR uni04AA
ENCODING 1194
SWIDTH 630 0
DWIDTH 10 0
BBX 9 15 1 -3
BITMAP
003ADFEB40
06FA535930
2F80000000
9D00000000
D900000000
F700000000
F700000000
D800000000
AD00000000
4F70000000
08FA434710
005BEFEB10
0000880000
00001F1000
0004EB0000
ENDCHAR
STARTCHAR uni04AB
ENCODING 1195
SWIDTH 476 0
DWIDTH 8 0
BBX 7 12 0 -3
BITMAP
004CFEB0
04F83460
0CA00000
0F500000
1F400000
0F500000
0CA00000
05F83360
005CFEA0
0001B400
00005C00
0007E800
ENDCHAR
STARTCHAR uni04AC
ENCODING 1196
SWIDTH 553 0
DWIDTH 9 0
BBX 9 15 0 -3
BITMAP
DFFFFFFFB0
3336F43320
0004F10000
0004F10000
0004F10000
0004F10000
0004F10000
0004F10000
0004F10000
0004F10000
0004F41000
0004FF5000
00000E5000
00000E5000
00000E5000
ENDCHAR
STARTCHAR uni04AD
ENCODING 1197
SWIDTH 466 0
DWIDTH 7 0
BBX 8 12 0 -3
BITMAP
AFFFFFF2
111E7110
000E6000
000E6000
000E6000
000E6000
000E6000
000E7100
000EF800
0000B800
0000B800
0000B800
ENDCHAR
STARTCHAR uni04AE
ENCODING 1198
SWIDTH 560 0
DWIDTH 9 0
BBX 9 12 0 0
BITMAP
BB00000BB0
3F30003F30
0BB000BA00
03F304F200
00AB0B9000
003F7F2000
000AF90000
0003F30000
0003F20000
0003F20000
0003F20000
0003F20000
ENDCHAR
STARTCHAR uni04AF
ENCODING 1199
SWIDTH 500 0
DWIDTH 8 0
BBX 8 13 0 -4
BITMAP
C800008C
7D0000D7
1F4004F1
0A9009B0
05E10E50
00E55E00
009AA900
003EE300
000CD000
000AA000
000AA000
000AA000
000AA000
ENDCHAR
STARTCHAR uni04B0
ENCODING 1200
SWIDTH 560 0
DWIDTH 9 0
BBX 9 12 0 0
BITMAP
BB00000BB0
4F30003F30
0BA000BA00
04F303F300
00BA0BA000
004F6F3000
000BFA0000
0004F30000
08FFFFF700
0235F53100
0003F20000
0003F20000
ENDCHAR
STARTCHAR uni04B1
ENCODING 1201
SWIDTH 500 0
DWIDTH 8 0
BBX 8 13 0 -4
BITMAP
C800008C
7D0000D7
1F4003F1
0B9009B0
05E10E50
00E55E00
009A9900
003EE300
000DD000
0CFFFFC0
000AA000
000AA000
000AA000
ENDCHAR
STARTCHAR uni04B2
ENCODING 1202
SWIDTH 619 0
DWIDTH 10 0
BBX 10 15 0 -3
BITMAP
5F20000C90
0BA0006E10
02F401E500
008D09B000
001DAE2000
0005F80000
0009EC0000
003F3E7000
00C806E100
06D100C900
1E50003F52
AB000009FA
000000009A
000000009A
000000009A
ENDCHAR
STARTCHAR uni04B3
ENCODING 1203
SWIDTH 541 0
DWIDTH 9 0
BBX 9 12 0 -3
BITMAP
3F4000D900
08D108D100
00C93F3000
003FD80000
000BF20000
005ECA0000
01E72E5000
0AC006E310
5E2000BF70
0000000D70
0000000D70
0000000D70
ENDCHAR
STARTCHAR uni04B4
ENCODING 1204
SWIDTH 854 0
DWIDTH 14 0
BBX 14 15 0 -3
BITMAP
DFFFFFFF805F00
333AC333205F00
0008C000005F00
0008C000005F00
0008C000005F00
0008C000005F00
0008C000005F00
0008C000005F00
0008C000005F00
0008C000005F00
0008C333337F31
0008FFFFFFFFF5
000000000000E5
000000000000E5
000000000000E5
ENDCHAR
STARTCHAR uni04B5
ENCODING 1205
SWIDTH 716 0
DWIDTH 11 0
BBX 12 12 0 -3
BITMAP
AFFFFFE05F00
114F31105F00
003F20005F00
003F20005F00
003F20005F00
003F20005F00
003F20005F00
003F42226F20
003FFFFFFFF3
0000000002F3
0000000002F3
0000000002F3
ENDCHAR
STARTCHAR uni04B6
ENCODING 1206
SWIDTH 691 0
DWIDTH 11 0
BBX 10 15 1 -3
BITMAP
AA00000C80
AA00000C80
AA00000C80
AA00000C80
AA00000C80
9B00000C80
5F51137E80
08FFFEBD80
0002200C80
0000000C80
0000000CA2
0000000CFC
000000007C
000000007C
000000007C
ENDCHAR
STARTCHAR uni04B7
ENCODING 1207
SWIDTH 608 0
DWIDTH 10 0
BBX 9 12 1 -3
BITMAP
C80000E500
C80000E500
C80000E500
B80000E500
8D214AF500
1BFFD6E500
000000E500
000000E710
000000EF80
0000000C80
0000000C80
0000000C80
ENDCHAR
STARTCHAR uni04B8
ENCODING 1208
SWIDTH 694 0
DWIDTH 11 0
BBX 9 12 1 0
BITMAP
AA00000C80
AA00000C80
AA00000C80
AA00000C80
AA01D00C80
9B01D00C80
5F52D27E80
08EFFFBE80
0003E00C80
0001D00C80
0000000C80
0000000C80
ENDCHAR
STARTCHAR uni04B9
ENCODING 1209
SWIDTH 600 0
DWIDTH 10 0
BBX 8 9 1 0
BITMAP
C80001F4
C80001F4
C80E01F4
B80E01F4
8D2E4BF4
1BFFC6F4
001E01F4
000E01F4
000001F4
ENDCHAR
STARTCHAR uni04BA
ENCODING 1210
SWIDTH 694 0
DWIDTH 11 0
BBX 9 12 1 0
BITMAP
6E00000000
6E00000000
6E00000000
6E00000000
6E6BDFD600
6FB6437F60
6E00000AA0
6E000008C0
6E000008C0
6E000008C0
6E000008C0
6E000008C0
ENDCHAR
STARTCHAR uni04BB
ENCODING 1211
SWIDTH 584 0
DWIDTH 9 0
BBX 8 9 1 0
BITMAP
9A000000
9A000000
9A000000
9A6CFD70
9FA426F4
9A0000D7
9A0000C8
9A0000C8
9A0000C8
ENDCHAR
STARTCHAR uni04BC
ENCODING 1212
SWIDTH 837 0
DWIDTH 13 0
BBX 13 12 0 0
BITMAP
000017DFEB4000
0001CE7449F500
0008E200007E00
000E8000001F40
6C2F5000000E60
3EFFFFFFFFFF70
004F6333333310
001F6000000000
000CA000000000
0005F400000000
0000AF84346800
000006CEFEC600
ENDCHAR
STARTCHAR uni04BD
ENCODING 1213
SWIDTH 659 0
DWIDTH 11 0
BBX 10 9 0 0
BITMAP
00007DFB30
0008D429E1
791F3000D7
8B6E0000BA
2DFFFFFFFB
007E111111
004F300000
000BD53374
00018DFEB3
ENDCHAR
STARTCHAR uni04BE
ENCODING 1214
SWIDTH 837 0
DWIDTH 13 0
BBX 13 15 0 -3
BITMAP
000017DFEB4000
0001CE7449F500
0008E200007E00
000E8000001F40
6C2F5000000E60
3EFFFFFFFFFF70
004F6333333310
001F6000000000
000CA000000000
0005F400000000
0000AE73235700
000007DFFEC700
0000000B800000
0000000B800000
0000000B800000
ENDCHAR
STARTCHAR uni04BF
ENCODING 1215
SWIDTH 659 0
DWIDTH 11 0
BBX 10 12 0 -3
BITMAP
00007DFB30
0008D429E1
791F3000D7
8B6E0000BA
2DFFFFFFFB
007E111111
004F200000
000BC41253
00019EFEB3
000005F000
000005F000
000005F000
ENDCHAR
STARTCHAR uni04C0
ENCODING 1216
SWIDTH 278 0
DWIDTH 4 0
BBX 2 12 1 0
BITMAP
6E
6E
6E
6E
6E
6E
6E
6E
6E
6E
6E
6E
ENDCHAR
STARTCHAR uni04C1
ENCODING 1217
SWIDTH 844 0
DWIDTH 14 0
BBX 14 15 0 0
BITMAP
0001F501C70000
00006DEEA10000
00000000000000
6E2000D60008D1
0AC000D6005E30
01D900D602E600
002E50D60C9000
0005E2D69C0000
00009CEBE20000
0000CAD9F50000
0009D1D66E2000
005F30D60AC000
02E700D601D900
0CA000D6003F50
9D1000D60007E2
ENDCHAR
STARTCHAR uni04C2
ENCODING 1218
SWIDTH 735 0
DWIDTH 12 0
BBX 12 12 0 0
BITMAP
000D700B9000
0004CEEB2000
000000000000
4E300B7006E2
07D10B703E30
009B0B72E600
000C9B8C9000
0005FDCF2000
002E6B7AC000
01C90B70CA00
0BB00B701D70
8D100B7003E5
ENDCHAR
STARTCHAR uni04C3
ENCODING 1219
SWIDTH 688 0
DWIDTH 11 0
BBX 10 16 1 -4
BITMAP
6E00006E30
6E0004F500
6E002E8000
6E01CA0000
6E0AC10000
6E8E200000
6FFFEC8100
6E4247ED20
6E00001DA0
6E000006F1
6E000003F3
6E000004F2
00000006F1
0000000DB0
003534BE30
003DFEA300
ENDCHAR
STARTCHAR uni04C4
ENCODING 1220
SWIDTH 548 0
DWIDTH 9 0
BBX 8 13 1 -4
BITMAP
9A002D60
9A01C800
9A0B9000
9AAB0000
9EFFD600
9B337F70
9A0007E0
9A0002F2
9A0001F4
000002F3
000006E0
00625E70
00BED700
ENDCHAR
STARTCHAR uni04C5
ENCODING 1221
SWIDTH 706 0
DWIDTH 11 0
BBX 11 15 0 -3
BITMAP
0008FFFFFB00
0009A333AB00
000B70009B00
000D60009B00
001F40009B00
003F20009B00
005E00009B00
007C00009B00
00A900009B00
00E600009B00
37F100009B30
DE6000009FE0
0000000008A0
000000000D60
000000005F20
ENDCHAR
STARTCHAR uni04C6
ENCODING 1222
SWIDTH 571 0
DWIDTH 9 0
BBX 9 12 0 -3
BITMAP
005FFFFB00
006D229B00
007B008B00
0099008B00
00B7008B00
00E5008B00
03F1008B00
1BA0008C20
DC20008FE0
00000006B0
0000000B70
0000001F30
ENDCHAR
STARTCHAR uni04C7
ENCODING 1223
SWIDTH 727 0
DWIDTH 12 0
BBX 10 16 1 -4
BITMAP
6E000001F4
6E000001F4
6E000001F4
6E000001F4
6E000001F4
6FFFFFFFF4
6E333334F4
6E000001F4
6E000001F4
6E000001F4
6E000001F4
6E000002F3
00000004F1
0000000AB0
001534AF30
002CFEB300
ENDCHAR
STARTCHAR uni04C8
ENCODING 1224
SWIDTH 616 0
DWIDTH 10 0
BBX 8 13 1 -4
BITMAP
9A00008C
9A00008C
9A00008C
9A00008C
9FFFFFFC
9B22229C
9A00008C
9A00008C
9A00008B
0000009B
000000C8
001537F2
001CFD50
ENDCHAR
STARTCHAR uni04C9
ENCODING 1225
SWIDTH 745 0
DWIDTH 12 0
BBX 11 15 1 -3
BITMAP
6E000001F400
6E000001F400
6E000001F400
6E000001F400
6E000001F400
6FFFFFFFF400
6E333334F400
6E000001F400
6E000001F400
6E000001F400
6E000001F620
6E000001FF70
000000000E30
000000006E00
00000000CA00
ENDCHAR
STARTCHAR uni04CA
ENCODING 1226
SWIDTH 652 0
DWIDTH 10 0
BBX 9 12 1 -3
BITMAP
9A00008C00
9A00008C00
9A00008C00
9A00008C00
9FFFFFFC00
9B22229C00
9A00008C00
9A00008C20
9A00008FE0
00000006B0
0000000B80
0000001F40
ENDCHAR
STARTCHAR uni04CB
ENCODING 1227
SWIDTH 694 0
DWIDTH 11 0
BBX 9 15 1 -3
BITMAP
AA00000C80
AA00000C80
AA00000C80
AA00000C80
AA00000C80
9B00000C80
5F51137E80
08FFFEBD80
0002200C80
0000000C80
0000003C80
000000FF80
000000F400
000000F400
000000F400
ENDCHAR
STARTCHAR uni04CC
ENCODING 1228
SWIDTH 607 0
DWIDTH 10 0
BBX 8 12 1 -3
BITMAP
C80000E5
C80000E5
C80000E5
B80000E5
8D214AF5
1BFFD6E5
000000E5
000002E5
00002FF5
00002F30
00002F30
00002F30
ENDCHAR
STARTCHAR uni04CD
ENCODING 1229
SWIDTH 903 0
DWIDTH 14 0
BBX 14 15 1 -3
BITMAP
6FB0000004FD00
6DF200000AED00
6BD700001E9D00
6C7D00006C6D00
6C2F3000B77D00
6C0B9002F27D00
6C06E007B07D00
6C01E50D507D00
6C00AB3E107D00
6C004FA9007D00
6C000EF4007E31
6C0008D0007FF2
000000000005D0
00000000000B90
00000000002F50
ENDCHAR
STARTCHAR uni04CE
ENCODING 1230
SWIDTH 735 0
DWIDTH 12 0
BBX 11 12 1 -3
BITMAP
9F200007F600
9F80000DF600
9BE0004DC600
98C500A8C600
986B01E2C600
981E26B0C600
980A7C60C600
9804DE10C710
9800D900CF90
000000000C50
000000002F20
000000007D00
ENDCHAR
STARTCHAR uni04CF
ENCODING 1231
SWIDTH 278 0
DWIDTH 4 0
BBX 2 12 1 0
BITMAP
6E
6E
6E
6E
6E
6E
6E
6E
6E
6E
6E
6E
ENDCHAR
STARTCHAR uni04D0
ENCODING 1232
SWIDTH 632 0
DWIDTH 10 0
BBX 10 15 0 0
BITMAP
00B9008C00
003BEEC300
0000000000
0000AC0000
0001FE3000
0006CA9000
000C75E000
003F20E500
008B009A00
00E6004F10
05FFFFFF70
0AA33339C0
1F400003F3
7D000000C8
C80000007E
ENDCHAR
STARTCHAR uni04D1
ENCODING 1233
SWIDTH 556 0
DWIDTH 9 0
BBX 8 12 0 0
BITMAP
05E103F2
009EED60
00000000
019DED70
019426F5
000000C8
000000A9
029CEEF9
1DA300B9
3F2000D9
1F823AF9
05DFD779
ENDCHAR
STARTCHAR uni04D2
ENCODING 1234
SWIDTH 632 0
DWIDTH 10 0
BBX 10 15 0 0
BITMAP
000D31D300
000D20D200
0000000000
0000AC0000
0001FE3000
0006CA9000
000C75E000
003F20E500
008B009A00
00E6004F10
05FFFFFF70
0AA33339C0
1F400003F3
7D000000C8
C80000007E
ENDCHAR
STARTCHAR uni04D3
ENCODING 1235
SWIDTH 556 0
DWIDTH 9 0
BBX 8 12 0 0
BITMAP
00890880
00780880
00000000
019DED70
019426F5
000000C8
000000A9
029CEEF9
1DA300B9
3F2000D9
1F823AF9
05DFD779
ENDCHAR
STARTCHAR uni04D4
ENCODING 1236
SWIDTH 873 0
DWIDTH 14 0
BBX 13 12 0 0
BITMAP
00000CFFFFFFF0
00004F4D933330
0000BA0D700000
0002F30D700000
0009C00D700000
001F500DFFFFB0
008D000D933320
01EFFFFF700000
06E3333D700000
0D80000D700000
5F10000D933330
C900000DFFFFF0
ENDCHAR
STARTCHAR uni04D5
ENCODING 1237
SWIDTH 857 0
DWIDTH 14 0
BBX 13 9 0 0
BITMAP
03ADFC33CFD500
037329DD726F30
000001FC000BA0
000000E80008C0
029DEEFFFFFFE0
0DA200E8111110
3F2002FB000000
1F824C9F833550
05DFD604BEEC40
ENDCHAR
STARTCHAR uni04D6
ENCODING 1238
SWIDTH 556 0
DWIDTH 9 0
BBX 7 15 1 0
BITMAP
1F501C70
06DEEA10
00000000
6FFFFFE0
6E333330
6E000000
6E000000
6E000000
6FFFFFA0
6E333320
6E000000
6E000000
6E000000
6E333330
6FFFFFE0
ENDCHAR
STARTCHAR uni04D7
ENCODING 1239
SWIDTH 561 0
DWIDTH 9 0
BBX 9 12 0 0
BITMAP
01F401D700
006DEE9000
0000000000
004CFD7000
04F725E600
0BA0008D00
0F60005F10
1FFFFFFF20
0F61111100
0C90000000
04F8335700
004BEFD700
ENDCHAR
STARTCHAR uni04D8
ENCODING 1240
SWIDTH 729 0
DWIDTH 12 0
BBX 11 12 0 0
BITMAP
03ADEFD92000
0495446CE300
00000000AD00
000000001F50
000000000C80
1FFFFFFFFFA0
1F7333333CA0
0E6000000E80
0B9000004F50
06E20000CD00
00CD535CE400
0018DFEA2000
ENDCHAR
STARTCHAR uni04D9
ENCODING 1241
SWIDTH 559 0
DWIDTH 9 0
BBX 8 9 0 0
BITMAP
07CEEB30
085348F3
000000AB
0000006E
3FFFFFFF
2F51117E
0E7000AB
07E527F3
007DFC40
ENDCHAR
STARTCHAR uni04DA
ENCODING 1242
SWIDTH 729 0
DWIDTH 12 0
BBX 11 15 0 0
BITMAP
0004C05C0000
0004C04B0000
000000000000
03ADEFD92000
0495446CE300
00000000AD00
000000001F50
000000000C80
1FFFFFFFFFA0
1F7333333CA0
0E6000000E80
0B9000004F50
06E20000CD00
00CD535CE400
0018DFEA2000
ENDCHAR
STARTCHAR uni04DB
ENCODING 1243
SWIDTH 559 0
DWIDTH 9 0
BBX 8 12 0 0
BITMAP
00980970
00870970
00000000
07CEEB30
085348F3
000000AB
0000006E
3FFFFFFF
2F51117E
0E7000AB
07E527F3
007DFC40
ENDCHAR
STARTCHAR uni04DC
ENCODING 1244
SWIDTH 844 0
DWIDTH 14 0
BBX 14 15 0 0
BITMAP
00005C05B00000
00004B05B00000
00000000000000
6E2000D60008D1
0AC000D6005E30
01D900D602E600
002E50D60C9000
0005E2D69C0000
00009CEBE20000
0000CAD9F50000
0009D1D66E2000
005F30D60AC000
02E700D601D900
0CA000D6003F50
9D1000D60007E2
ENDCHAR
STARTCHAR uni04DD
ENCODING 1245
SWIDTH 735 0
DWIDTH 12 0
BBX 12 12 0 0
BITMAP
0003D13D0000
0002D03D0000
000000000000
4E300B7006E2
07D10B703E30
009B0B72E600
000C9B8C9000
0005FDCF2000
002E6B7AC000
01C90B70CA00
0BB00B701D70
8D100B7003E5
ENDCHAR
STARTCHAR uni04DE
ENCODING 1246
SWIDTH 581 0
DWIDTH 9 0
BBX 9 15 0 0
BITMAP
0089088000
0078088000
0000000000
05BEFD9100
2D7425DC00
0000004F20
0000006F10
000026E700
03FFFE6000
002237E900
0000004F40
0000001F60
0000004F40
584236EB00
3ADFEC6000
ENDCHAR
STARTCHAR uni04DF
ENCODING 1247
SWIDTH 482 0
DWIDTH 8 0
BBX 7 12 0 0
BITMAP
04C05C00
04C04B00
00000000
2ADFD800
17324E70
000009A0
00014E60
00EFF900
00124C90
000005E0
56323CB0
4BEFD910
ENDCHAR
STARTCHAR uni04E0
ENCODING 1248
SWIDTH 583 0
DWIDTH 9 0
BBX 9 12 0 0
BITMAP
1FFFFFFE00
033335E800
00002D8000
0002D80000
002E700000
008FEC7100
001236EC00
0000003F50
0000000F60
0000004F40
584236EB00
3ADFEC6000
ENDCHAR
STARTCHAR uni04E1
ENCODING 1249
SWIDTH 488 0
DWIDTH 8 0
BBX 8 13 0 -4
BITMAP
9FFFFFD0
12223E60
0001C800
000BA000
009B0000
03FFC500
00126E80
000005F1
000001F4
000001F3
000006E1
75226E60
7DEFC500
ENDCHAR
STARTCHAR uni04E2
ENCODING 1250
SWIDTH 762 0
DWIDTH 12 0
BBX 10 15 1 0
BITMAP
0001111000
004FFFF700
0000000000
6C000002FA
6C00000CFA
6C00006E9A
6C0002E78A
6C000AC09A
6C005F309A
6C01E8009A
6C09D1009A
6C4F40009A
6CDA00009A
6FE100009A
6F5000009A
ENDCHAR
STARTCHAR uni04E3
ENCODING 1251
SWIDTH 633 0
DWIDTH 10 0
BBX 8 12 1 0
BITMAP
00111100
04FFFF70
00000000
990002FC
99000BDC
99005D7C
9901E57C
9909B07C
993E207C
99C8007C
9DD1007C
9F50007C
ENDCHAR
STARTCHAR uni04E4
ENCODING 1252
SWIDTH 762 0
DWIDTH 12 0
BBX 10 15 1 0
BITMAP
000D31D300
000D20D200
0000000000
6C000002FA
6C00000CFA
6C00006E9A
6C0002E78A
6C000AC09A
6C005F309A
6C01E8009A
6C09D1009A
6C4F40009A
6CDA00009A
6FE100009A
6F5000009A
ENDCHAR
STARTCHAR uni04E5
ENCODING 1253
SWIDTH 633 0
DWIDTH 10 0
BBX 8 12 1 0
BITMAP
00D31D30
00D20D20
00000000
990002FC
99000BDC
99005D7C
9901E57C
9909B07C
993E207C
99C8007C
9DD1007C
9F50007C
ENDCHAR
STARTCHAR uni04E6
ENCODING 1254
SWIDTH 778 0
DWIDTH 12 0
BBX 11 15 1 0
BITMAP
000C50C50000
000B40B40000
000000000000
005BEFD81000
08F9436CD100
4F500001CA00
AC0000005F20
D80000001F50
F60000000E70
F60000000E70
D80000001F50
AC0000005F20
4F500001CA00
08F8435CD100
005BEFD81000
ENDCHAR
STARTCHAR uni04E7
ENCODING 1255
SWIDTH 604 0
DWIDTH 10 0
BBX 9 12 0 0
BITMAP
003D04D000
003D03C000
0000000000
004CFEA100
04F834BD10
0CA0001E60
0F50000AA0
1F400009B0
0F50000AA0
0BA0001E60
03F823BD10
004BEEA200
ENDCHAR
STARTCHAR uni04E8
ENCODING 1256
SWIDTH 779 0
DWIDTH 12 0
BBX 11 12 1 0
BITMAP
005BEFD81000
08F9546DD100
4F500000CA00
AB0000004F20
D80000001F50
FFFFFFFFFF70
F83333333F70
D80000001F50
AD0000006F20
4F600001DA00
08F9436DD100
005BEFD81000
ENDCHAR
STARTCHAR uni04E9
ENCODING 1257
SWIDTH 604 0
DWIDTH 10 0
BBX 9 9 0 0
BITMAP
004CFEA100
04F733BD10
0C90001E60
0F50000AA0
1FFFFFFFB0
0F62222AA0
0B90000D60
03E723AD10
004BEEA200
ENDCHAR
STARTCHAR uni04EA
ENCODING 1258
SWIDTH 779 0
DWIDTH 12 0
BBX 11 15 1 0
BITMAP
000C50C50000
000B40B40000
000000000000
005BEFD81000
08F9546DD100
4F500000CA00
AB0000004F20
D80000001F50
FFFFFFFFFF70
F83333333F70
D80000001F50
AD0000006F20
4F600001DA00
08F9436DD100
005BEFD81000
ENDCHAR
STARTCHAR uni04EB
ENCODING 1259
SWIDTH 604 0
DWIDTH 10 0
BBX 9 12 0 0
BITMAP
003D04D000
003C03C000
0000000000
004CFEA100
04F733BD10
0C90001E60
0F50000AA0
1FFFFFFFB0
0F62222AA0
0B90000D60
03E723AD10
004BEEA200
ENDCHAR
STARTCHAR uni04EC
ENCODING 1260
SWIDTH 629 0
DWIDTH 10 0
BBX 10 15 0 0
BITMAP
0098097000
0087097000
0000000000
3ADFEB4000
295349F800
0000006F40
0000000BB0
00000007E0
00EFFFFFF1
00333337F0
00000007E0
0000000CA0
0000006F40
46435AF800
4CEFEB4000
ENDCHAR
STARTCHAR uni04ED
ENCODING 1261
SWIDTH 492 0
DWIDTH 8 0
BBX 7 12 0 0
BITMAP
05C05B00
04B05B00
00000000
3CEEB300
1634AF30
00000CA0
000007E0
0BFFFFF0
012228D0
00000BA0
4434AE20
5DFEA200
ENDCHAR
STARTCHAR uni04EE
ENCODING 1262
SWIDTH 621 0
DWIDTH 10 0
BBX 10 15 0 0
BITMAP
0001111000
004FFFF600
0000000000
8E100000AB
1E700002F4
08E10008D0
01E7000E60
008E106E10
001E70C900
0008E4F200
0001EDB000
00008F4000
0000BC0000
2549F30000
3DFC400000
ENDCHAR
STARTCHAR uni04EF
ENCODING 1263
SWIDTH 503 0
DWIDTH 8 0
BBX 8 16 0 -4
BITMAP
00111100
04FFFF60
00000000
C900008D
6E0000D8
1F5003F2
0AA008C0
04F10D60
00D63F10
008B8B00
002FD500
000BE100
000AA000
002F4000
22BB0000
CEB10000
ENDCHAR
STARTCHAR uni04F0
ENCODING 1264
SWIDTH 621 0
DWIDTH 10 0
BBX 10 15 0 0
BITMAP
001D31D200
000D21D200
0000000000
8E100000AB
1E700002F4
08E10008D0
01E7000E60
008E106E10
001E70C900
0008E4F200
0001EDB000
00008F4000
0000BC0000
2549F30000
3DFC400000
ENDCHAR
STARTCHAR uni04F1
ENCODING 1265
SWIDTH 503 0
DWIDTH 8 0
BBX 8 16 0 -4
BITMAP
01D21D20
01D21D10
00000000
C900008D
6E0000D8
1F5003F2
0AA008C0
04F10D60
00D63F10
008B8B00
002FD500
000BE100
000AA000
002F4000
22BB0000
CEB10000
ENDCHAR
STARTCHAR uni04F2
ENCODING 1266
SWIDTH 621 0
DWIDTH 10 0
BBX 10 16 0 0
BITMAP
0000E82F50
0006D19A00
000C32C100
0000000000
8E100000AB
1E700002F4
08E10008D0
01E7000E60
008E106E10
001E70C900
0008E4F200
0001EDB000
00008F4000
0000BC0000
2549F30000
3DFC400000
ENDCHAR
STARTCHAR uni04F3
ENCODING 1267
SWIDTH 503 0
DWIDTH 8 0
BBX 8 17 0 -4
BITMAP
001E73F4
007C0A90
01D23C10
00000000
C900008D
6E0000D8
1F5003F2
0AA008C0
04F10D60
00D63F10
008B8B00
002FD500
000BE100
000AA000
002F4000
22BB0000
CEB10000
ENDCHAR
STARTCHAR uni04F4
ENCODING 1268
SWIDTH 694 0
DWIDTH 11 0
BBX 9 15 1 0
BITMAP
0098097000
0087097000
0000000000
AA00000C80
AA00000C80
AA00000C80
AA00000C80
AA00000C80
9C00000C80
4F8346AF80
05CEEC8D80
0000000C80
0000000C80
0000000C80
0000000C80
ENDCHAR
STARTCHAR uni04F5
ENCODING 1269
SWIDTH 607 0
DWIDTH 10 0
BBX 8 12 1 0
BITMAP
04D04C00
03C04C00
00000000
C80000E5
C80000E5
C80000E5
B80000E5
8D214AF5
1BFFD6E5
000000E5
000000E5
000000E5
ENDCHAR
STARTCHAR uni04F6
ENCODING 1270
SWIDTH 526 0
DWIDTH 8 0
BBX 8 15 1 -3
BITMAP
6FFFFFF1
6E333330
6E000000
6E000000
6E000000
6E000000
6E000000
6E000000
6E000000
6E000000
6E300000
6FF20000
01F20000
01F20000
01F20000
ENDCHAR
STARTCHAR uni04F7
ENCODING 1271
SWIDTH 428 0
DWIDTH 7 0
BBX 6 12 1 -3
BITMAP
9FFFF8
9B1111
9A0000
9A0000
9A0000
9A0000
9A0000
9B2000
9FD000
07D000
07D000
07D000
ENDCHAR
STARTCHAR uni04F8
ENCODING 1272
SWIDTH 853 0
DWIDTH 14 0
BBX 12 15 1 0
BITMAP
0003D04D0000
0003C03C0000
000000000000
6E00000004F1
6E00000004F1
6E00000004F1
6E00000004F1
6E00000004F1
6FFFEB5004F1
6E3348F604F1
6E0000AC04F1
6E00007E04F1
6E0000AC04F1
6E2238F604F1
6FFFEC5004F1
ENDCHAR
STARTCHAR uni04F9
ENCODING 1273
SWIDTH 770 0
DWIDTH 12 0
BBX 10 12 1 0
BITMAP
000D40D300
000C30D300
0000000000
9A0000005E
9A0000005E
9A0000005E
9A0000005E
9FFFEC405E
9B2239E15E
9A0002F35E
9B1129E05E
9FFFEB305E
ENDCHAR
STARTCHAR uni04FA
ENCODING 1274
SWIDTH 526 0
DWIDTH 8 0
BBX 9 15 0 -3
BITMAP
06FFFFFF10
06E3333300
06E0000000
06E0000000
06E0000000
9FFFFF3000
28E3331000
06E0000000
06E0000000
06E0000000
06E0000000
06FF100000
002F100000
025F000000
08E8000000
ENDCHAR
STARTCHAR uni04FB
ENCODING 1275
SWIDTH 428 0
DWIDTH 7 0
BBX 7 12 0 -3
BITMAP
09FFFF80
09B11110
09A00000
09A00000
DFFFF600
09A00000
09A00000
09A00000
09FC0000
005C0000
039B0000
0CE50000
ENDCHAR
STARTCHAR uni04FC
ENCODING 1276
SWIDTH 621 0
DWIDTH 10 0
BBX 10 15 0 -3
BITMAP
5F20000C90
0BA0006E10
02F401E500
008D09B000
001DAE2000
0005F80000
0009EC0000
003F3E7000
00C806E200
06D100CA00
1E50003F40
AB000009F9
0000000099
00000003B8
0000001ED2
ENDCHAR
STARTCHAR uni04FD
ENCODING 1277
SWIDTH 540 0
DWIDTH 9 0
BBX 9 12 0 -3
BITMAP
3F4000D900
08D108D100
00C93F3000
003FD80000
000BF20000
005ECA0000
01E72E5000
0AC006E200
5E2000BF60
0000000B60
0000013D50
000003EC10
ENDCHAR
STARTCHAR uni04FE
ENCODING 1278
SWIDTH 577 0
DWIDTH 9 0
BBX 9 12 0 0
BITMAP
6E20000C90
0BA0006E10
02F401E500
008D09B000
001DAE2000
0FFFFFFF40
033BEE3310
004F3E7000
00C806E200
07D100CA00
2E50003F40
AB000009D0
ENDCHAR
STARTCHAR uni04FF
ENCODING 1279
SWIDTH 523 0
DWIDTH 8 0
BBX 8 9 0 0
BITMAP
3F4000D9
08D007D1
01D82E40
004FC900
1FFFFFF7
004FD900
01D82E40
0AC006E1
5F2000BB
ENDCHAR
STARTCHAR uni0500
ENCODING 1280
SWIDTH 612 0
DWIDTH 10 0
BBX 8 12 1 0
BITMAP
000000D7
000000D7
000000D7
000000D7
000000D7
05BEFFF7
6F9433E7
DA0000D7
E70000D7
D90000D7
6F8422E7
06CEFFF7
ENDCHAR
STARTCHAR uni0501
ENCODING 1281
SWIDTH 612 0
DWIDTH 10 0
BBX 9 13 0 0
BITMAP
0000000D70
0000000D70
0000000D70
0000000D70
006DFD5C70
05F724CE70
0CA0003F70
0F50000E70
1F40000D70
0F50000E70
0C90002F70
05F724CE70
006DFD5A70
ENDCHAR
STARTCHAR uni0502
ENCODING 1282
SWIDTH 898 0
DWIDTH 14 0
BBX 12 12 1 0
BITMAP
000004F10000
000004F10000
000004F10000
000004F10000
000004F10000
04BEFFF1006E
5F9436F1006E
CA0004F1006E
E70004F1006E
D90005F2007D
7F635DDB35E8
07DFD61BFE91
ENDCHAR
STARTCHAR uni0503
ENCODING 1283
SWIDTH 895 0
DWIDTH 14 0
BBX 14 13 0 0
BITMAP
0000001F300000
0000001F300000
0000001F300000
0000001F300000
006DFC4F300000
05F625DF300000
0C90006F300000
0F50002F3004F1
1F40002F3004F1
0F50003F3004F1
0C90006F5005E0
05E625DAC33CA0
007DFC409EEA10
ENDCHAR
STARTCHAR uni0504
ENCODING 1284
SWIDTH 903 0
DWIDTH 14 0
BBX 13 12 0 0
BITMAP
04BEED70000000
2D7326F7000000
0000009C000000
000000AB000000
000028E3000000
03FFFC300004F0
002249E50004F0
0000009D0004F0
0000005F1005F0
0000003F3006E0
0000000DB44D90
00000002BEE910
ENDCHAR
STARTCHAR uni0505
ENCODING 1285
SWIDTH 801 0
DWIDTH 13 0
BBX 12 9 0 0
BITMAP
2BEFD6000000
17326F300000
00000D600000
00015E3000B8
00EFF70000B8
00125E7000B8
000008C000D7
000004F527F3
0000007DFD60
ENDCHAR
STARTCHAR uni0506
ENCODING 1286
SWIDTH 625 0
DWIDTH 10 0
BBX 10 15 0 -3
BITMAP
05BEFD8100
2D7425DA00
0000005F00
0000006E00
000026E500
03FFFD4000
002237E700
0000004F10
0000000F40
0000000F40
0000000F72
0000000FFA
000000009A
000000009A
000000009A
ENDCHAR
STARTCHAR uni0507
ENCODING 1287
SWIDTH 522 0
DWIDTH 8 0
BBX 9 12 0 -3
BITMAP
2BEFD70000
17324E6000
0000099000
00014E5000
00EFF80000
00124D8000
000006D000
000005E200
000005FF20
0000003F20
0000003F20
0000003F20
ENDCHAR
STARTCHAR uni0508
ENCODING 1288
SWIDTH 980 0
DWIDTH 16 0
BBX 15 12 0 0
BITMAP
0008FFFFF6000000
0009A333E6000000
000B7000E6000000
000D6000E6000000
001F4000E6000000
003F2000E6001F40
005E0000E6001F40
007C0000E6001F40
00A90000E6001F40
00E60000C8002F20
37F100007E54BC00
DE60000008DEB200
ENDCHAR
STARTCHAR uni0509
ENCODING 1289
SWIDTH 851 0
DWIDTH 14 0
BBX 13 9 0 0
BITMAP
005FFFF9000000
006D22B9000000
007B00A9000000
009900A9000F50
00B700A9000F50
00E500A9000F50
03F1009B001F30
1BA0005F418E10
DC200007EFD400
ENDCHAR
STARTCHAR uni050A
ENCODING 1290
SWIDTH 1012 0
DWIDTH 16 0
BBX 14 12 1 0
BITMAP
6E000006E00000
6E000006E00000
6E000006E00000
6E000006E00000
6E000006E00000
6FFFFFFFE0008B
6E333338E0008B
6E000006E0008B
6E000006E0009B
6E000004F100AA
6E000001E936F5
6E0000004CED70
ENDCHAR
STARTCHAR uni050B
ENCODING 1291
SWIDTH 913 0
DWIDTH 15 0
BBX 13 9 1 0
BITMAP
9A0000B9000000
9A0000B9000000
9A0000B9000000
9A0000B9000F50
9FFFFFF9000F50
9B2222B9000F50
9A00009A001F30
9A00005F529E10
9A000007DEC300
ENDCHAR
STARTCHAR uni050C
ENCODING 1292
SWIDTH 755 0
DWIDTH 12 0
BBX 11 12 1 0
BITMAP
0029DEEC9100
05EB5347B000
2E8000000000
8D0000000000
D80000000000
F60000000000
F60003FFFF30
D80001336F20
AD0000006F00
3F600000CB00
07F9435CE300
004BEFEA2000
ENDCHAR
STARTCHAR uni050D
ENCODING 1293
SWIDTH 640 0
DWIDTH 10 0
BBX 10 9 0 0
BITMAP
0029DFEB50
02EB423640
0BC0000000
0F60000000
1F4009FFF6
0F600122F5
0BB00003F2
03FA324D90
003AEFD800
ENDCHAR
STARTCHAR uni050E
ENCODING 1294
SWIDTH 709 0
DWIDTH 11 0
BBX 10 12 0 0
BITMAP
DFFFFFFF90
3337F33320
0005F00000
0005F00000
0005F00000
0005F0006E
0005F0006E
0005F0006E
0005F0006E
0004F1008C
0001EA35E7
00003BED80
ENDCHAR
STARTCHAR uni050F
ENCODING 1295
SWIDTH 646 0
DWIDTH 10 0
BBX 10 9 0 0
BITMAP
AFFFFFF000
111F611000
000F500000
000F5004F1
000F5004F1
000F5004F1
000D6005E0
0009D33CA0
00019EEA20
ENDCHAR
STARTCHAR uni0510
ENCODING 1296
SWIDTH 583 0
DWIDTH 9 0
BBX 9 12 0 0
BITMAP
005CEFC810
06F7336C60
0BA0000000
0AB0000000
02E8200000
002BFFF700
04E9422100
0E90000000
1F50000000
0E80000000
08F8324770
005BEFEB50
ENDCHAR
STARTCHAR uni0511
ENCODING 1297
SWIDTH 475 0
DWIDTH 8 0
BBX 7 9 0 0
BITMAP
01AEFD80
0BB32460
0F500000
0BB20000
01CFF900
1D932100
4F100000
1E922380
03BEFD90
ENDCHAR
STARTCHAR uni0512
ENCODING 1298
SWIDTH 700 0
DWIDTH 11 0
BBX 11 15 0 -3
BITMAP
0008FFFFFB00
0009A333AB00
000B70009B00
000D60009B00
001F40009B00
003F20009B00
005E00009B00
007C00009B00
00A900009B00
00E600009B00
37F100009B00
DE6000009FD0
0000000005D0
0000000038C0
00000000BE50
ENDCHAR
STARTCHAR uni0513
ENCODING 1299
SWIDTH 570 0
DWIDTH 9 0
BBX 9 12 0 -3
BITMAP
004FFFFC00
006D229C00
007B008C00
009A008C00
00B8008C00
00E5008C00
03F1008C00
1BA0008C00
DC20008FE0
00000004E0
00000027D0
000000AE60
ENDCHAR
STARTCHAR uni1E00
ENCODING 7680
SWIDTH 632 0
DWIDTH 10 0
BBX 10 16 0 -4
BITMAP
0000AC0000
0001FE3000
0006CA9000
000C75E000
003F20E500
008B009A00
00E6004F10
05FFFFFF70
0AA33339C0
1F400003F3
7D000000C8
C80000007E
0000000000
0004CC5000
000942C000
0004CC5000
ENDCHAR
STARTCHAR uni1E01
ENCODING 7681
SWIDTH 556 0
DWIDTH 9 0
BBX 8 13 0 -4
BITMAP
019DED70
019426F5
000000C8
000000A9
029CEEF9
1DA300B9
3F2000D9
1F823AF9
05DFD779
00000000
002CC700
00760D00
002CC700
ENDCHAR
STARTCHAR uni1E3E
ENCODING 7742
SWIDTH 902 0
DWIDTH 14 0
BBX 12 16 1 0
BITMAP
0000007F2000
000001E70000
000008900000
000000000000
6FB0000004FD
6DF200000ADD
6BD700001E9D
6C7D00006C6D
6C2F3000B77D
6C0B9002F27D
6C06E007B07D
6C01E50D507D
6C00AA3E107D
6C004FA9007D
6C000EF4007D
6C0008D0007D
ENDCHAR
STARTCHAR uni1E3F
ENCODING 7743
SWIDTH 930 0
DWIDTH 15 0
BBX 13 13 1 0
BITMAP
0000002F800000
0000009C000000
000002D2000000
00000000000000
999EFC45CFD700
9FA33CFE526F40
9E1004F6000C80
9B0003F3000B90
9A0003F2000B90
9A0003F2000B90
9A0003F2000B90
9A0003F2000B90
9A0003F2000B90
ENDCHAR
STARTCHAR Wgrave
ENCODING 7808
SWIDTH 925 0
DWIDTH 15 0
BBX 15 16 0 0
BITMAP
000008F200000000
000000C900000000
0000002D20000000
0000000000000000
AB00008F30000E70
6E0000CF70003F30
2F3001F9C0006E00
0D7005E3F100AB00
0AB009A0E500E700
06E00E60AA02F300
02F33F205E06E000
00D77C001F49A000
00AAA8000C7D7000
006DD40007BF3000
002FE00003FE0000
000DB00000EA0000
ENDCHAR
STARTCHAR wgrave
ENCODING 7809
SWIDTH 777 0
DWIDTH 12 0
BBX 13 13 0 0
BITMAP
0000CC00000000
00003E40000000
000005C0000000
00000000000000
AA0009F2003F20
6E000EE6007D00
2F203E8A00A900
0E608B4E00E500
0AA0C60E43F200
06D2F20A96D000
02F8C006DA9000
00DE7001FE5000
009F3000CF1000
ENDCHAR
STARTCHAR Wacute
ENCODING 7810
SWIDTH 925 0
DWIDTH 15 0
BBX 15 16 0 0
BITMAP
00000005F5000000
0000000C90000000
0000006B00000000
0000000000000000
AB00008F30000E70
6E0000CF70003F30
2F3001F9C0006E00
0D7005E3F100AB00
0AB009A0E500E700
06E00E60AA02F300
02F33F205E06E000
00D77C001F49A000
00AAA8000C7D7000
006DD40007BF3000
002FE00003FE0000
000DB00000EA0000
ENDCHAR
STARTCHAR wacute
ENCODING 7811
SWIDTH 777 0
DWIDTH 12 0
BBX 13 13 0 0
BITMAP
0000007F200000
000001E7000000
00000890000000
00000000000000
AA0009F2003F20
6E000EE6007D00
2F203E8A00A900
0E608B4E00E500
0AA0C60E43F200
06D2F20A96D000
02F8C006DA9000
00DE7001FE5000
009F3000CF1000
ENDCHAR
STARTCHAR Wdieresis
ENCODING 7812
SWIDTH 925 0
DWIDTH 15 0
BBX 15 15 0 0
BITMAP
00000A70A6000000
00000960A6000000
0000000000000000
AB00008F30000E70
6E0000CF70003F30
2F3001F9C0006E00
0D7005E3F100AB00
0AB009A0E500E700
06E00E60AA02F300
02F33F205E06E000
00D77C001F49A000
00AAA8000C7D7000
006DD40007BF3000
002FE00003FE0000
000DB00000EA0000
ENDCHAR
STARTCHAR wdieresis
ENCODING 7813
SWIDTH 777 0
DWIDTH 12 0
BBX 13 12 0 0
BITMAP
0000C50C400000
0000B40C400000
00000000000000
AA0009F2003F20
6E000EE6007D00
2F203E8A00A900
0E608B4E00E500
0AA0C60E43F200
06D2F20A96D000
02F8C006DA9000
00DE7001FE5000
009F3000CF1000
ENDCHAR
STARTCHAR uni1EA0
ENCODING 7840
SWIDTH 632 0
DWIDTH 10 0
BBX 10 15 0 -3
BITMAP
0000AC0000
0001FE3000
0006CA9000
000C75E000
003F20E500
008B009A00
00E6004F10
05FFFFFF70
0AA33339C0
1F400003F3
7D000000C8
C80000007E
0000000000
00008A0000
0000890000
ENDCHAR
STARTCHAR uni1EA1
ENCODING 7841
SWIDTH 556 0
DWIDTH 9 0
BBX 8 12 0 -3
BITMAP
019DED70
019426F5
000000C8
000000A9
029CEEF9
1DA300B9
3F2000D9
1F823AF9
05DFD779
00000000
0006C000
0006B000
ENDCHAR
STARTCHAR uni1EA2
ENCODING 7842
SWIDTH 632 0
DWIDTH 10 0
BBX 10 17 0 0
BITMAP
0000CD6000
000003C000
00004C7000
0000580000
0000000000
0000AC0000
0001FE3000
0006CA9000
000C75E000
003F20E500
008B009A00
00E6004F10
05FFFFFF70
0AA33339C0
1F400003F3
7D000000C8
C80000007E
ENDCHAR
STARTCHAR uni1EA3
ENCODING 7843
SWIDTH 556 0
DWIDTH 9 0
BBX 8 14 0 0
BITMAP
0008DA00
00000D20
0001BB00
0000D000
00000000
019DED70
019426F5
000000C8
000000A9
029CEEF9
1DA300B9
3F2000D9
1F823AF9
05DFD779
ENDCHAR
STARTCHAR uni1EA4
ENCODING 7844
SWIDTH 632 0
DWIDTH 10 0
BBX 10 16 0 0
BITMAP
00000007D1
0002EE4D20
002B43B300
0000000000
0000AC0000
0001FE3000
0006CA9000
000C75E000
003F20E500
008B009A00
00E6004F10
05FFFFFF70
0AA33339C0
1F400003F3
7D000000C8
C80000007E
ENDCHAR
STARTCHAR uni1EA5
ENCODING 7845
SWIDTH 556 0
DWIDTH 9 0
BBX 9 13 0 0
BITMAP
0000002E40
000AE8A600
0098197000
0000000000
019DED7000
019426F500
000000C800
000000A900
029CEEF900
1DA300B900
3F2000D900
1F823AF900
05DFD77900
ENDCHAR
STARTCHAR uni1EA6
ENCODING 7846
SWIDTH 632 0
DWIDTH 10 0
BBX 10 16 0 0
BITMAP
0C80000000
02C4EE3000
002B33C200
0000000000
0000AC0000
0001FE3000
0006CA9000
000C75E000
003F20E500
008B009A00
00E6004F10
05FFFFFF70
0AA33339C0
1F400003F3
7D000000C8
C80000007E
ENDCHAR
STARTCHAR uni1EA7
ENCODING 7847
SWIDTH 556 0
DWIDTH 9 0
BBX 8 13 0 0
BITMAP
6E100000
088AE900
00981970
00000000
019DED70
019426F5
000000C8
000000A9
029CEEF9
1DA300B9
3F2000D9
1F823AF9
05DFD779
ENDCHAR
STARTCHAR uni1EA8
ENCODING 7848
SWIDTH 632 0
DWIDTH 10 0
BBX 10 17 0 0
BITMAP
0000005B60
0000000780
0003EE3B00
002C33B200
0000000000
0000AC0000
0001FE3000
0006CA9000
000C75E000
003F20E500
008B009A00
00E6004F10
05FFFFFF70
0AA33339C0
1F400003F3
7D000000C8
C80000007E
ENDCHAR
STARTCHAR uni1EA9
ENCODING 7849
SWIDTH 556 0
DWIDTH 9 0
BBX 9 14 0 0
BITMAP
0000009B10
0000002C10
0009E98400
0088188000
0000000000
019DED7000
019426F500
000000C800
000000A900
029CEEF900
1DA300B900
3F2000D900
1F823AF900
05DFD77900
ENDCHAR
STARTCHAR uni1EAA
ENCODING 7850
SWIDTH 632 0
DWIDTH 10 0
BBX 10 17 0 0
BITMAP
000BD44700
00472BD200
0002DE4000
001B43B300
0000000000
0000AC0000
0001FE3000
0006CA9000
000C75E000
003F20E500
008B009A00
00E6004F10
05FFFFFF70
0AA33339C0
1F400003F3
7D000000C8
C80000007E
ENDCHAR
STARTCHAR uni1EAB
ENCODING 7851
SWIDTH 556 0
DWIDTH 9 0
BBX 8 14 0 0
BITMAP
007E71B0
00B18E60
000AE800
00971970
00000000
019DED70
019426F5
000000C8
000000A9
029CEEF9
1DA300B9
3F2000D9
1F823AF9
05DFD779
ENDCHAR
STARTCHAR uni1EAC
ENCODING 7852
SWIDTH 632 0
DWIDTH 10 0
BBX 10 19 0 -3
BITMAP
0000DE1000
0008B9A000
005C10B700
0000000000
0000AC0000
0001FE3000
0006CA9000
000C75E000
003F20E500
008B009A00
00E6004F10
05FFFFFF70
0AA33339C0
1F400003F3
7D000000C8
C80000007E
0000000000
00008A0000
0000890000
ENDCHAR
STARTCHAR uni1EAD
ENCODING 7853
SWIDTH 556 0
DWIDTH 9 0
BBX 8 16 0 -3
BITMAP
0009F500
004E6D10
01D306B0
00000000
019DED70
019426F5
000000C8
000000A9
029CEEF9
1DA300B9
3F2000D9
1F823AF9
05DFD779
00000000
0006C000
0006B000
ENDCHAR
STARTCHAR uni1EAE
ENCODING 7854
SWIDTH 632 0
DWIDTH 10 0
BBX 10 17 0 0
BITMAP
00000B9000
00004B0000
002C11A400
0007EE8000
0000000000
0000AC0000
0001FE3000
0006CA9000
000C75E000
003F20E500
008B009A00
00E6004F10
05FFFFFF70
0AA33339C0
1F400003F3
7D000000C8
C80000007E
ENDCHAR
STARTCHAR uni1EAF
ENCODING 7855
SWIDTH 556 0
DWIDTH 9 0
BBX 8 14 0 0
BITMAP
00005D10
0000C300
00B31590
003DFC20
00000000
019DED70
019426F5
000000C8
000000A9
029CEEF9
1DA300B9
3F2000D9
1F823AF9
05DFD779
ENDCHAR
STARTCHAR uni1EB0
ENCODING 7856
SWIDTH 632 0
DWIDTH 10 0
BBX 10 17 0 0
BITMAP
0009B00000
0000B40000
002C11A400
0007EE8000
0000000000
0000AC0000
0001FE3000
0006CA9000
000C75E000
003F20E500
008B009A00
00E6004F10
05FFFFFF70
0AA33339C0
1F400003F3
7D000000C8
C80000007E
ENDCHAR
STARTCHAR uni1EB1
ENCODING 7857
SWIDTH 556 0
DWIDTH 9 0
BBX 8 14 0 0
BITMAP
004E2000
0006A000
00B31690
003DFB20
00000000
019DED70
019426F5
000000C8
000000A9
029CEEF9
1DA300B9
3F2000D9
1F823AF9
05DFD779
ENDCHAR
STARTCHAR uni1EB2
ENCODING 7858
SWIDTH 632 0
DWIDTH 10 0
BBX 10 17 0 0
BITMAP
00009C1000
0000580000
002C11A400
0007EE8000
0000000000
0000AC0000
0001FE3000
0006CA9000
000C75E000
003F20E500
008B009A00
00E6004F10
05FFFFFF70
0AA33339C0
1F400003F3
7D000000C8
C80000007E
ENDCHAR
STARTCHAR uni1EB3
ENCODING 7859
SWIDTH 556 0
DWIDTH 9 0
BBX 8 14 0 0
BITMAP
0005B600
00019400
00B415A0
003CFC20
00000000
019DED70
019426F5
000000C8
000000A9
029CEEF9
1DA300B9
3F2000D9
1F823AF9
05DFD779
ENDCHAR
STARTCHAR uni1EB4
ENCODING 7860
SWIDTH 632 0
DWIDTH 10 0
BBX 10 18 0 0
BITMAP
000BC44700
00572BD200
0000000000
003B11B300
0008EE8000
0000000000
0000AC0000
0001FE3000
0006CA9000
000C75E000
003F20E500
008B009A00
00E6004F10
05FFFFFF70
0AA33339C0
1F400003F3
7D000000C8
C80000007E
ENDCHAR
STARTCHAR uni1EB5
ENCODING 7861
SWIDTH 556 0
DWIDTH 9 0
BBX 8 15 0 0
BITMAP
006E81C0
00B08E60
00000000
00B31690
003DFB20
00000000
019DED70
019426F5
000000C8
000000A9
029CEEF9
1DA300B9
3F2000D9
1F823AF9
05DFD779
ENDCHAR
STARTCHAR uni1EB6
ENCODING 7862
SWIDTH 632 0
DWIDTH 10 0
BBX 10 18 0 -3
BITMAP
003B229500
0008EE9000
0000000000
0000AC0000
0001FE3000
0006CA9000
000C75E000
003F20E500
008B009A00
00E6004F10
05FFFFFF70
0AA33339C0
1F400003F3
7D000000C8
C80000007E
0000000000
00008A0000
0000890000
ENDCHAR
STARTCHAR uni1EB7
ENCODING 7863
SWIDTH 556 0
DWIDTH 9 0
BBX 8 15 0 -3
BITMAP
00D315A0
004DFB20
00000000
019DED70
019426F5
000000C8
000000A9
029CEEF9
1DA300B9
3F2000D9
1F823AF9
05DFD779
00000000
0006C000
0006B000
ENDCHAR
STARTCHAR uni1EB8
ENCODING 7864
SWIDTH 556 0
DWIDTH 9 0
BBX 7 15 1 -3
BITMAP
6FFFFFE0
6E333330
6E000000
6E000000
6E000000
6FFFFFA0
6E333320
6E000000
6E000000
6E000000
6E333330
6FFFFFE0
00000000
000C5000
000C5000
ENDCHAR
STARTCHAR uni1EB9
ENCODING 7865
SWIDTH 561 0
DWIDTH 9 0
BBX 9 12 0 -3
BITMAP
004CFD7000
04F725E600
0BA0008D00
0F60005F10
1FFFFFFF20
0F61111100
0C90000000
04F8335700
004BEFD700
0000000000
0001D40000
0000D40000
ENDCHAR
STARTCHAR uni1EBA
ENCODING 7866
SWIDTH 556 0
DWIDTH 9 0
BBX 7 17 1 0
BITMAP
003CC200
00008700
0007D300
000A3000
00000000
6FFFFFE0
6E333330
6E000000
6E000000
6E000000
6FFFFFA0
6E333320
6E000000
6E000000
6E000000
6E333330
6FFFFFE0
ENDCHAR
STARTCHAR uni1EBB
ENCODING 7867
SWIDTH 561 0
DWIDTH 9 0
BBX 9 14 0 0
BITMAP
0004CC2000
0000096000
00008D2000
0000B20000
0000000000
004CFD7000
04F725E600
0BA0008D00
0F60005F10
1FFFFFFF20
0F61111100
0C90000000
04F8335700
004BEFD700
ENDCHAR
STARTCHAR uni1EBC
ENCODING 7868
SWIDTH 556 0
DWIDTH 9 0
BBX 7 15 1 0
BITMAP
07EB3680
1C27DD20
00000000
6FFFFFE0
6E333330
6E000000
6E000000
6E000000
6FFFFFA0
6E333320
6E000000
6E000000
6E000000
6E333330
6FFFFFE0
ENDCHAR
STARTCHAR uni1EBD
ENCODING 7869
SWIDTH 561 0
DWIDTH 9 0
BBX 9 12 0 0
BITMAP
009EA38600
03B28EB100
0000000000
004CFD7000
04F725E600
0BA0008D00
0F60005F10
1FFFFFFF20
0F61111100
0C90000000
04F8335700
004BEFD700
ENDCHAR
STARTCHAR uni1EBE
ENCODING 7870
SWIDTH 556 0
DWIDTH 9 0
BBX 8 16 1 0
BITMAP
000000B9
005ED5B1
04B25B10
00000000
6FFFFFE0
6E333330
6E000000
6E000000
6E000000
6FFFFFA0
6E333320
6E000000
6E000000
6E000000
6E333330
6FFFFFE0
ENDCHAR
STARTCHAR uni1EBF
ENCODING 7871
SWIDTH 561 0
DWIDTH 9 0
BBX 9 13 0 0
BITMAP
0000000D70
0007EB7900
006A17A000
0000000000
004CFD7000
04F725E600
0BA0008D00
0F60005F10
1FFFFFFF20
0F61111100
0C90000000
04F8335700
004BEFD700
ENDCHAR
STARTCHAR uni1EC0
ENCODING 7872
SWIDTH 556 0
DWIDTH 9 0
BBX 8 16 0 0
BITMAP
1E500000
03C5ED10
004B25B1
00000000
06FFFFFE
06E33333
06E00000
06E00000
06E00000
06FFFFFA
06E33332
06E00000
06E00000
06E00000
06E33333
06FFFFFE
ENDCHAR
STARTCHAR uni1EC1
ENCODING 7873
SWIDTH 561 0
DWIDTH 9 0
BBX 9 13 0 0
BITMAP
3F30000000
05B7EB0000
006A17A000
0000000000
004CFD7000
04F725E600
0BA0008D00
0F60005F10
1FFFFFFF20
0F61111100
0C90000000
04F8335700
004BEFD700
ENDCHAR
STARTCHAR uni1EC2
ENCODING 7874
SWIDTH 556 0
DWIDTH 9 0
BBX 8 17 1 0
BITMAP
000007B3
00000195
006EC580
05B26B00
00000000
6FFFFFE0
6E333330
6E000000
6E000000
6E000000
6FFFFFA0
6E333320
6E000000
6E000000
6E000000
6E333330
6FFFFFE0
ENDCHAR
STARTCHAR uni1EC3
ENCODING 7875
SWIDTH 561 0
DWIDTH 9 0
BBX 9 14 0 0
BITMAP
0000009B10
0000002C20
0009EA7500
0089188000
0000000000
004CFD7000
04F725E600
0BA0008D00
0F60005F10
1FFFFFFF20
0F61111100
0C90000000
04F8335700
004BEFD700
ENDCHAR
STARTCHAR uni1EC4
ENCODING 7876
SWIDTH 556 0
DWIDTH 9 0
BBX 7 17 1 0
BITMAP
03EA1920
0A25DA00
006EC100
05A16A00
00000000
6FFFFFE0
6E333330
6E000000
6E000000
6E000000
6FFFFFA0
6E333320
6E000000
6E000000
6E000000
6E333330
6FFFFFE0
ENDCHAR
STARTCHAR uni1EC5
ENCODING 7877
SWIDTH 561 0
DWIDTH 9 0
BBX 9 14 0 0
BITMAP
005E91B000
00B17E7000
0008EA0000
0079189000
0000000000
004CFD7000
04F725E600
0BA0008D00
0F60005F10
1FFFFFFF20
0F61111100
0C90000000
04F8335700
004BEFD700
ENDCHAR
STARTCHAR uni1EC6
ENCODING 7878
SWIDTH 556 0
DWIDTH 9 0
BBX 7 19 1 -3
BITMAP
003FA000
01D7D500
0A802D20
00000000
6FFFFFE0
6E333330
6E000000
6E000000
6E000000
6FFFFFA0
6E333320
6E000000
6E000000
6E000000
6E333330
6FFFFFE0
00000000
000D5000
000C5000
ENDCHAR
STARTCHAR uni1EC7
ENCODING 7879
SWIDTH 561 0
DWIDTH 9 0
BBX 9 16 0 -3
BITMAP
0005F80000
002E6E3000
00C604D100
0000000000
004CFD7000
04F725E600
0BA0008D00
0F60005F10
1FFFFFFF20
0F61111100
0C90000000
04F8335700
004BEFD700
0000000000
0001D40000
0001D30000
ENDCHAR
STARTCHAR uni1EC8
ENCODING 7880
SWIDTH 278 0
DWIDTH 4 0
BBX 3 17 1 0
BITMAP
9D80
01F0
2C90
3B00
0000
6E00
6E00
6E00
6E00
6E00
6E00
6E00
6E00
6E00
6E00
6E00
6E00
ENDCHAR
STARTCHAR uni1EC9
ENCODING 7881
SWIDTH 252 0
DWIDTH 4 0
BBX 3 14 1 0
BITMAP
CD50
04B0
4D60
6700
0000
9A00
9A00
9A00
9A00
9A00
9A00
9A00
9A00
9A00
ENDCHAR
STARTCHAR uni1ECA
ENCODING 7882
SWIDTH 278 0
DWIDTH 4 0
BBX 2 15 1 -3
BITMAP
6E
6E
6E
6E
6E
6E
6E
6E
6E
6E
6E
6E
00
6C
5C
ENDCHAR
STARTCHAR uni1ECB
ENCODING 7883
SWIDTH 252 0
DWIDTH 4 0
BBX 2 15 1 -3
BITMAP
56
89
00
9A
9A
9A
9A
9A
9A
9A
9A
9A
00
99
89
ENDCHAR
STARTCHAR uni1ECC
ENCODING 7884
SWIDTH 778 0
DWIDTH 12 0
BBX 11 15 1 -3
BITMAP
005BEFD81000
08F9436CD100
4F500001CA00
AC0000005F20
D80000001F50
F60000000E70
F60000000E70
D80000001F50
AC0000005F20
4F500001CA00
08F8435CD100
005BEFD81000
000000000000
00006C000000
00005C000000
ENDCHAR
STARTCHAR uni1ECD
ENCODING 7885
SWIDTH 604 0
DWIDTH 10 0
BBX 9 12 0 -3
BITMAP
004CFEA100
04F834BD10
0CA0001E60
0F50000AA0
1F400009B0
0F50000AA0
0BA0001E60
03F823BD10
004BEEA200
0000000000
0000C60000
0000B60000
ENDCHAR
STARTCHAR uni1ECE
ENCODING 7886
SWIDTH 778 0
DWIDTH 12 0
BBX 11 17 1 0
BITMAP
0000AD800000
000001F00000
00002C900000
00003A000000
000000000000
005BEFD81000
08F9436CD100
4F500001CA00
AC0000005F20
D80000001F50
F60000000E70
F60000000E70
D80000001F50
AC0000005F20
4F500001CA00
08F8435CD100
005BEFD81000
ENDCHAR
STARTCHAR uni1ECF
ENCODING 7887
SWIDTH 604 0
DWIDTH 10 0
BBX 9 14 0 0
BITMAP
0003CC3000
0000078000
00006D4000
0000940000
0000000000
004CFEA100
04F834BD10
0CA0001E60
0F50000AA0
1F400009B0
0F50000AA0
0BA0001E60
03F823BD10
004BEEA200
ENDCHAR
STARTCHAR uni1ED0
ENCODING 7888
SWIDTH 778 0
DWIDTH 12 0
BBX 11 16 1 0
BITMAP
00000004E200
0001CE6C4000
000B61B50000
000000000000
005BEFD81000
08F9436CD100
4F500001CA00
AC0000005F20
D80000001F50
F60000000E70
F60000000E70
D80000001F50
AC0000005F20
4F500001CA00
08F8435CD100
005BEFD81000
ENDCHAR
STARTCHAR uni1ED1
ENCODING 7889
SWIDTH 604 0
DWIDTH 10 0
BBX 9 13 0 0
BITMAP
0000000BA0
0004ED5C10
004B25B100
0000000000
004CFEA100
04F834BD10
0CA0001E60
0F50000AA0
1F400009B0
0F50000AA0
0BA0001E60
03F823BD10
004BEEA200
ENDCHAR
STARTCHAR uni1ED2
ENCODING 7890
SWIDTH 778 0
DWIDTH 12 0
BBX 11 16 1 0
BITMAP
08C000000000
00A6CE600000
000A61B50000
000000000000
005BEFD81000
08F9436CD100
4F500001CA00
AC0000005F20
D80000001F50
F60000000E70
F60000000E70
D80000001F50
AC0000005F20
4F500001CA00
08F8435CD100
005BEFD81000
ENDCHAR
STARTCHAR uni1ED3
ENCODING 7891
SWIDTH 604 0
DWIDTH 10 0
BBX 9 13 0 0
BITMAP
1E60000000
03C4ED1000
003B25B100
0000000000
004CFEA100
04F834BD10
0CA0001E60
0F50000AA0
1F400009B0
0F50000AA0
0BA0001E60
03F823BD10
004BEEA200
ENDCHAR
STARTCHAR uni1ED4
ENCODING 7892
SWIDTH 778 0
DWIDTH 12 0
BBX 11 17 1 0
BITMAP
0000002A9000
00000003C000
0001CE5B1000
001B61B40000
000000000000
005BEFD81000
08F9436CD100
4F500001CA00
AC0000005F20
D80000001F50
F60000000E70
F60000000E70
D80000001F50
AC0000005F20
4F500001CA00
08F8435CD100
005BEFD81000
ENDCHAR
STARTCHAR uni1ED5
ENCODING 7893
SWIDTH 604 0
DWIDTH 10 0
BBX 9 14 0 0
BITMAP
0000006B40
0000001960
0004ED4900
004B25B100
0000000000
004CFEA100
04F834BD10
0CA0001E60
0F50000AA0
1F400009B0
0F50000AA0
0BA0001E60
03F823BD10
004BEEA200
ENDCHAR
STARTCHAR uni1ED6
ENCODING 7894
SWIDTH 778 0
DWIDTH 12 0
BBX 11 17 1 0
BITMAP
000AD52A0000
002A1AE30000
0001CE600000
000B52B40000
000000000000
005BEFD81000
08F9436CD100
4F500001CA00
AC0000005F20
D80000001F50
F60000000E70
F60000000E70
D80000001F50
AC0000005F20
4F500001CA00
08F8435CD100
005BEFD81000
ENDCHAR
STARTCHAR uni1ED7
ENCODING 7895
SWIDTH 604 0
DWIDTH 10 0
BBX 9 14 0 0
BITMAP
002DB28400
00834DB000
0004ED1000
004B25B100
0000000000
004CFEA100
04F834BD10
0CA0001E60
0F50000AA0
1F400009B0
0F50000AA0
0BA0001E60
03F823BD10
004BEEA200
ENDCHAR
STARTCHAR uni1ED8
ENCODING 7896
SWIDTH 778 0
DWIDTH 12 0
BBX 11 19 1 -3
BITMAP
0000BF300000
0006D8C10000
003D20890000
000000000000
005BEFD81000
08F9436CD100
4F500001CA00
AC0000005F20
D80000001F50
F60000000E70
F60000000E70
D80000001F50
AC0000005F20
4F500001CA00
08F8435CD100
005BEFD81000
000000000000
00006C000000
00005C000000
ENDCHAR
STARTCHAR uni1ED9
ENCODING 7897
SWIDTH 604 0
DWIDTH 10 0
BBX 9 16 0 -3
BITMAP
0002FB0000
000C8C7000
008902D300
0000000000
004CFEA100
04F834BD10
0CA0001E60
0F50000AA0
1F400009B0
0F50000AA0
0BA0001E60
03F823BD10
004BEEA200
0000000000
0000B70000
0000B60000
ENDCHAR
STARTCHAR uni1EDA
ENCODING 7898
SWIDTH 779 0
DWIDTH 12 0
BBX 12 16 1 0
BITMAP
000005F40000
00000C800000
00006B000000
0000000000CA
005BEFD810D7
08F9436CD8D1
4F500001CD10
AC0000005F10
D80000001F50
F60000000F60
F60000000F70
D80000001F50
AC0000005F20
4F500001CA00
08F8435CD100
005BEFD81000
ENDCHAR
STARTCHAR uni1EDB
ENCODING 7899
SWIDTH 608 0
DWIDTH 10 0
BBX 11 13 0 0
BITMAP
00000CC00000
00005E200000
0000D4000000
000000005F10
004CFEA2AB00
04F734BFC200
0C90001E6000
0F50000AA000
1F400009B000
0F50000AA000
0B90000E7000
03E723AD1000
004BEEA20000
ENDCHAR
STARTCHAR uni1EDC
ENCODING 7900
SWIDTH 779 0
DWIDTH 12 0
BBX 12 16 1 0
BITMAP
000AE1000000
0001D7000000
00003D100000
0000000000CA
005BEFD810D7
08F9436CD8D1
4F500001CD10
AC0000005F10
D80000001F50
F60000000F60
F60000000F70
D80000001F50
AC0000005F20
4F500001CA00
08F8435CD100
005BEFD81000
ENDCHAR
STARTCHAR uni1EDD
ENCODING 7901
SWIDTH 608 0
DWIDTH 10 0
BBX 11 13 0 0
BITMAP
002E80000000
0006E1000000
000089000000
000000005F10
004CFEA2AB00
04F734BFC200
0C90001E6000
0F50000AA000
1F400009B000
0F50000AA000
0B90000E7000
03E723AD1000
004BEEA20000
ENDCHAR
STARTCHAR uni1EDE
ENCODING 7902
SWIDTH 779 0
DWIDTH 12 0
BBX 12 17 1 0
BITMAP
0000AD800000
000001F00000
00002C900000
00003A000000
0000000000CA
005BEFD810D7
08F9436CD8D1
4F500001CD10
AC0000005F10
D80000001F50
F60000000F60
F60000000F70
D80000001F50
AC0000005F20
4F500001CA00
08F8435CD100
005BEFD81000
ENDCHAR
STARTCHAR uni1EDF
ENCODING 7903
SWIDTH 608 0
DWIDTH 10 0
BBX 11 14 0 0
BITMAP
0003CC300000
000007800000
00006D400000
000094000000
000000005F10
004CFEA2AB00
04F734BFC200
0C90001E6000
0F50000AA000
1F400009B000
0F50000AA000
0B90000E7000
03E723AD1000
004BEEA20000
ENDCHAR
STARTCHAR uni1EE0
ENCODING 7904
SWIDTH 779 0
DWIDTH 12 0
BBX 12 15 1 0
BITMAP
002DD72C1000
00964BE70000
0000000000CA
005BEFD810D7
08F9436CD8D1
4F500001CD10
AC0000005F10
D80000001F50
F60000000F60
F60000000F70
D80000001F50
AC0000005F20
4F500001CA00
08F8435CD100
005BEFD81000
ENDCHAR
STARTCHAR uni1EE1
ENCODING 7905
SWIDTH 608 0
DWIDTH 10 0
BBX 11 12 0 0
BITMAP
006EB44A0000
00D36DD30000
000000005F10
004CFEA2AB00
04F734BFC200
0C90001E6000
0F50000AA000
1F400009B000
0F50000AA000
0B90000E7000
03E723AD1000
004BEEA20000
ENDCHAR
STARTCHAR uni1EE2
ENCODING 7906
SWIDTH 779 0
DWIDTH 12 0
BBX 12 16 1 -3
BITMAP
0000000000CA
005BEFD810D7
08F9436CD8D1
4F500001CD10
AC0000005F10
D80000001F50
F60000000F60
F60000000F70
D80000001F50
AC0000005F20
4F500001CA00
08F8435CD100
005BEFD81000
000000000000
00006C000000
00006B000000
ENDCHAR
STARTCHAR uni1EE3
ENCODING 7907
SWIDTH 608 0
DWIDTH 10 0
BBX 11 13 0 -3
BITMAP
000000005F10
004CFEA2AB00
04F734BFC200
0C90001E6000
0F50000AA000
1F400009B000
0F50000AA000
0B90000E7000
03E723AD1000
004BEEA20000
000000000000
0000C6000000
0000B6000000
ENDCHAR
STARTCHAR uni1EE4
ENCODING 7908
SWIDTH 728 0
DWIDTH 12 0
BBX 10 15 1 -3
BITMAP
8C000002F3
8C000002F3
8C000002F3
8C000002F3
8C000002F3
8C000002F3
8C000002F3
8C000002F3
7D000004F2
3F400009D0
0AE7349F40
007DFEB400
0000000000
0000C60000
0000B60000
ENDCHAR
STARTCHAR uni1EE5
ENCODING 7909
SWIDTH 613 0
DWIDTH 10 0
BBX 8 12 1 -3
BITMAP
B90000D7
B90000D7
B90000D7
B90000D7
B90000D7
B90000E7
9B0003F7
5F624CE7
07DFC5A7
00000000
001D4000
000D4000
ENDCHAR
STARTCHAR uni1EE6
ENCODING 7910
SWIDTH 728 0
DWIDTH 12 0
BBX 10 17 1 0
BITMAP
0003CC2000
0000088000
00007D3000
0000A30000
0000000000
8C000002F3
8C000002F3
8C000002F3
8C000002F3
8C000002F3
8C000002F3
8C000002F3
8C000002F3
7D000004F2
3F400009D0
0AE7349F40
007DFEB400
ENDCHAR
STARTCHAR uni1EE7
ENCODING 7911
SWIDTH 613 0
DWIDTH 10 0
BBX 8 14 1 0
BITMAP
003CC300
00008800
0007D300
000A3000
00000000
B90000D7
B90000D7
B90000D7
B90000D7
B90000D7
B90000E7
9B0003F7
5F624CE7
07DFC5A7
ENDCHAR
STARTCHAR uni1EE8
ENCODING 7912
SWIDTH 768 0
DWIDTH 12 0
BBX 12 16 1 0
BITMAP
00000CC00000
00005E200000
0000D4000000
00000000009D
8C000002F3B9
8C000002FAE2
8C000002F810
8C000002F300
8C000002F300
8C000002F300
8C000002F300
8C000002F300
7D000004F200
3F400009D000
0AE7349F5000
007CFEB50000
ENDCHAR
STARTCHAR uni1EE9
ENCODING 7913
SWIDTH 665 0
DWIDTH 11 0
BBX 11 13 1 0
BITMAP
0000BD000000
0004F3000000
000C50000000
000000006F10
B90000D7BA00
B90000DEA100
B90000D70000
B90000D70000
B90000D70000
B90000E70000
9B0003F70000
5F624CF70000
07DFD6B70000
ENDCHAR
STARTCHAR uni1EEA
ENCODING 7914
SWIDTH 768 0
DWIDTH 12 0
BBX 12 16 1 0
BITMAP
001E90000000
0005F2000000
00007A000000
00000000009D
8C000002F3B9
8C000002FAE2
8C000002F810
8C000002F300
8C000002F300
8C000002F300
8C000002F300
8C000002F300
7D000004F200
3F400009D000
0AE7349F5000
007CFEB50000
ENDCHAR
STARTCHAR uni1EEB
ENCODING 7915
SWIDTH 665 0
DWIDTH 11 0
BBX 11 13 1 0
BITMAP
04F500000000
009C00000000
000B60000000
000000006F10
B90000D7BA00
B90000DEA100
B90000D70000
B90000D70000
B90000D70000
B90000E70000
9B0003F70000
5F624CF70000
07DFD6B70000
ENDCHAR
STARTCHAR uni1EEC
ENCODING 7916
SWIDTH 768 0
DWIDTH 12 0
BBX 12 17 1 0
BITMAP
0002CC300000
000007900000
00006D400000
000095000000
00000000009D
8C000002F3B9
8C000002FAE2
8C000002F810
8C000002F300
8C000002F300
8C000002F300
8C000002F300
8C000002F300
7D000004F200
3F400009D000
0AE7349F5000
007CFEB50000
ENDCHAR
STARTCHAR uni1EED
ENCODING 7917
SWIDTH 665 0
DWIDTH 11 0
BBX 11 14 1 0
BITMAP
003CC3000000
000078000000
0006D4000000
000940000000
000000006F10
B90000D7BA00
B90000DEA100
B90000D70000
B90000D70000
B90000D70000
B90000E70000
9B0003F70000
5F624CF70000
07DFD6B70000
ENDCHAR
STARTCHAR uni1EEE
ENCODING 7918
SWIDTH 768 0
DWIDTH 12 0
BBX 12 15 1 0
BITMAP
005EC53B0000
00C35CE40000
00000000009D
8C000002F3B9
8C000002FAE2
8C000002F810
8C000002F300
8C000002F300
8C000002F300
8C000002F300
8C000002F300
7D000004F200
3F400009D000
0AE7349F5000
007CFEB50000
ENDCHAR
STARTCHAR uni1EEF
ENCODING 7919
SWIDTH 665 0
DWIDTH 11 0
BBX 11 12 1 0
BITMAP
05EC53B00000
0C35CE400000
000000006F10
B90000D7BA00
B90000DEA100
B90000D70000
B90000D70000
B90000D70000
B90000E70000
9B0003F70000
5F624CF70000
07DFD6B70000
ENDCHAR
STARTCHAR uni1EF0
ENCODING 7920
SWIDTH 768 0
DWIDTH 12 0
BBX 12 16 1 -3
BITMAP
00000000009D
8C000002F3B9
8C000002FAE2
8C000002F810
8C000002F300
8C000002F300
8C000002F300
8C000002F300
8C000002F300
7D000004F200
3F400009D000
0AE7349F5000
007CFEB50000
000000000000
0000B6000000
0000B6000000
ENDCHAR
STARTCHAR uni1EF1
ENCODING 7921
SWIDTH 665 0
DWIDTH 11 0
BBX 11 13 1 -3
BITMAP
000000006F10
B90000D7BA00
B90000DEA100
B90000D70000
B90000D70000
B90000D70000
B90000E70000
9B0003F70000
5F624CF70000
07DFD6B70000
000000000000
001D40000000
001D30000000
ENDCHAR
STARTCHAR Ygrave
ENCODING 7922
SWIDTH 560 0
DWIDTH 9 0
BBX 9 16 0 0
BITMAP
008E100000
001D800000
0002D20000
0000000000
BB00000BB0
3F30003F30
0BB000BA00
03F304F200
00AB0B9000
003F7F2000
000AF90000
0003F30000
0003F20000
0003F20000
0003F20000
0003F20000
ENDCHAR
STARTCHAR ygrave
ENCODING 7923
SWIDTH 503 0
DWIDTH 8 0
BBX 8 17 0 -4
BITMAP
01EA0000
004F2000
0007B000
00000000
C900008D
6E0000D8
1F5003F2
0AA008C0
04F10D60
00D63F10
008B8B00
002FD500
000BE100
000AA000
002F4000
22BB0000
CEB10000
ENDCHAR
STARTCHAR uni1EF4
ENCODING 7924
SWIDTH 560 0
DWIDTH 9 0
BBX 9 15 0 -3
BITMAP
BB00000BB0
3F30003F30
0BB000BA00
03F304F200
00AB0B9000
003F7F2000
000AF90000
0003F30000
0003F20000
0003F20000
0003F20000
0003F20000
0000000000
0003D20000
0002D10000
ENDCHAR
STARTCHAR uni1EF5
ENCODING 7925
SWIDTH 503 0
DWIDTH 8 0
BBX 8 13 0 -4
BITMAP
C900008D
6E0000D8
1F5003F2
0AA008C0
04F10D60
00D63F10
008B8B00
002FD500
000BE100
000AA000
002F43D2
22BB02D1
CEB10000
ENDCHAR
STARTCHAR uni1EF6
ENCODING 7926
SWIDTH 560 0
DWIDTH 9 0
BBX 9 17 0 0
BITMAP
0007DA0000
00000D3000
0000BC0000
0000D00000
0000000000
BB00000BB0
3F30003F30
0BB000BA00
03F304F200
00AB0B9000
003F7F2000
000AF90000
0003F30000
0003F20000
0003F20000
0003F20000
0003F20000
ENDCHAR
STARTCHAR uni1EF7
ENCODING 7927
SWIDTH 503 0
DWIDTH 8 0
BBX 8 18 0 -4
BITMAP
001CD400
00005A00
0005D500
00086000
00000000
C900008D
6E0000D8
1F5003F2
0AA008C0
04F10D60
00D63F10
008B8B00
002FD500
000BE100
000AA000
002F4000
22BB0000
CEB10000
ENDCHAR
STARTCHAR uni1EF8
ENCODING 7928
SWIDTH 560 0
DWIDTH 9 0
BBX 9 15 0 0
BITMAP
00BE92A400
05A39EA000
0000000000
BB00000BB0
3F30003F30
0BB000BA00
03F304F200
00AB0B9000
003F7F2000
000AF90000
0003F30000
0003F20000
0003F20000
0003F20000
0003F20000
ENDCHAR
STARTCHAR uni1EF9
ENCODING 7929
SWIDTH 503 0
DWIDTH 8 0
BBX 8 16 0 -4
BITMAP
04EC53C0
0B45CE50
00000000
C900008D
6E0000D8
1F5003F2
0AA008C0
04F10D60
00D63F10
008B8B00
002FD500
000BE100
000AA000
002F4000
22BB0000
CEB10000
ENDCHAR
STARTCHAR uni1F4D
ENCODING 8013
SWIDTH 790 0
DWIDTH 13 0
BBX 15 12 -3 0
BITMAP
0767E13AEFD92000
3C0A76FA435BE300
2E5C2F800000BC00
00008E0000002F40
0000BA0000000E80
0000C90000000C90
0000C90000000C90
0000BA0000000E80
00008E0000002F40
00002F700000AC00
000006F9435BE300
0000004AEFD92000
ENDCHAR
STARTCHAR uni2000
ENCODING 8192
SWIDTH 500 0
DWIDTH 8 0
BBX 1 1 0 0
BITMAP
00
ENDCHAR
STARTCHAR uni2001
ENCODING 8193
SWIDTH 1000 0
DWIDTH 16 0
BBX 1 1 0 0
BITMAP
00
ENDCHAR
STARTCHAR uni2002
ENCODING 8194
SWIDTH 500 0
DWIDTH 8 0
BBX 1 1 0 0
BITMAP
00
ENDCHAR
STARTCHAR uni2003
ENCODING 8195
SWIDTH 1000 0
DWIDTH 16 0
BBX 1 1 0 0
BITMAP
00
ENDCHAR
STARTCHAR uni2004
ENCODING 8196
SWIDTH 333 0
DWIDTH 5 0
BBX 1 1 0 0
BITMAP
00
ENDCHAR
STARTCHAR uni2005
ENCODING 8197
SWIDTH 250 0
DWIDTH 4 0
BBX 1 1 0 0
BITMAP
00
ENDCHAR
STARTCHAR uni2006
ENCODING 8198
SWIDTH 166 0
DWIDTH 3 0
BBX 1 1 0 0
BITMAP
00
ENDCHAR
STARTCHAR uni2007
ENCODING 8199
SWIDTH 559 0
DWIDTH 9 0
BBX 1 1 0 0
BITMAP
00
ENDCHAR
STARTCHAR uni2008
ENCODING 8200
SWIDTH 266 0
DWIDTH 4 0
BBX 1 1 0 0
BITMAP
00
ENDCHAR
STARTCHAR uni2009
ENCODING 8201
SWIDTH 200 0
DWIDTH 3 0
BBX 1 1 0 0
BITMAP
00
ENDCHAR
STARTCHAR uni200A
ENCODING 8202
SWIDTH 100 0
DWIDTH 2 0
BBX 1 1 0 0
BITMAP
00
ENDCHAR
STARTCHAR uni200B
ENCODING 8203
SWIDTH 0 0
DWIDTH 0 0
BBX 1 1 0 0
BITMAP
00
ENDCHAR
STARTCHAR endash
ENCODING 8211
SWIDTH 500 0
DWIDTH 8 0
BBX 8 2 0 3
BITMAP
5FFFFFF5
13333331
ENDCHAR
STARTCHAR emdash
ENCODING 8212
SWIDTH 1000 0
DWIDTH 16 0
BBX 16 2 0 3
BITMAP
5FFFFFFFFFFFFFF5
1333333333333331
ENDCHAR
STARTCHAR afii00208
ENCODING 8213
SWIDTH 1000 0
DWIDTH 16 0
BBX 16 2 0 3
BITMAP
5FFFFFFFFFFFFFF5
1333333333333331
ENDCHAR
STARTCHAR underscoredbl
ENCODING 8215
SWIDTH 411 0
DWIDTH 7 0
BBX 7 4 0 -4
BITMAP
FFFFFF90
11111110
11111110
FFFFFF90
ENDCHAR
STARTCHAR quoteleft
ENCODING 8216
SWIDTH 169 0
DWIDTH 3 0
BBX 3 4 0 8
BITMAP
0960
1E30
6F10
AD00
ENDCHAR
STARTCHAR quoteright
ENCODING 8217
SWIDTH 169 0
DWIDTH 3 0
BBX 3 4 0 8
BITMAP
1F60
4F20
7B00
A500
ENDCHAR
STARTCHAR quotesinglbase
ENCODING 8218
SWIDTH 245 0
DWIDTH 4 0
BBX 3 4 0 -2
BITMAP
0CB0
0E70
2F10
6A00
ENDCHAR
STARTCHAR quotereversed
ENCODING 8219
SWIDTH 169 0
DWIDTH 3 0
BBX 3 4 0 8
BITMAP
AD00
6F10
1F40
0970
ENDCHAR
STARTCHAR quotedblleft
ENCODING 8220
SWIDTH 350 0
DWIDTH 6 0
BBX 6 4 0 8
BITMAP
0960B4
1E32F1
6F18D0
AD0CA0
ENDCHAR
STARTCHAR quotedblright
ENCODING 8221
SWIDTH 350 0
DWIDTH 6 0
BBX 6 4 0 8
BITMAP
1F63F4
4F26E1
7B0990
A50C30
ENDCHAR
STARTCHAR quotedblbase
ENCODING 8222
SWIDTH 404 0
DWIDTH 6 0
BBX 6 4 0 -2
BITMAP
1F63F4
4F26E1
7B0990
A50C30
ENDCHAR
STARTCHAR dagger
ENCODING 8224
SWIDTH 501 0
DWIDTH 8 0
BBX 7 13 1 0
BITMAP
00CA0000
00A80000
00970000
00760000
FEEEEF10
42752400
00860000
00870000
00970000
00A80000
00B90000
00BA0000
00CA0000
ENDCHAR
STARTCHAR daggerdbl
ENCODING 8225
SWIDTH 509 0
DWIDTH 8 0
BBX 7 13 1 0
BITMAP
00AC0000
008A0000
00680000
EDDDDE30
43793410
008A0000
00AB0000
008A0000
43793410
EDDDCE30
00680000
008A0000
00AC0000
ENDCHAR
STARTCHAR bullet
ENCODING 8226
SWIDTH 375 0
DWIDTH 6 0
BBX 4 4 1 4
BITMAP
3DD4
AFFA
AFFA
3DD3
ENDCHAR
STARTCHAR ellipsis
ENCODING 8230
SWIDTH 784 0
DWIDTH 13 0
BBX 11 3 1 0
BITMAP
010001000100
AE008F206F40
9D007E105E30
ENDCHAR
STARTCHAR perthousand
ENCODING 8240
SWIDTH 1202 0
DWIDTH 19 0
BBX 19 12 0 0
BITMAP
04DE80000D4000000000
0D51C5006B0000000000
2E007901E30000000000
3D006A07A00000000000
2E00791E200000000000
0D51C5893CE9006DD600
03CE92E2C51C52E22E20
00000981F00695A00B50
00002E12E005B6900970
0000A801F00695A00B50
0003E100C50C51E22E20
000B70003CE9005DD600
ENDCHAR
STARTCHAR minute
ENCODING 8242
SWIDTH 221 0
DWIDTH 4 0
BBX 2 4 1 8
BITMAP
E7
C6
B5
A3
ENDCHAR
STARTCHAR second
ENCODING 8243
SWIDTH 393 0
DWIDTH 6 0
BBX 5 4 1 8
BITMAP
E71F50
C60E40
B50D30
A30C20
ENDCHAR
STARTCHAR guilsinglleft
ENCODING 8249
SWIDTH 304 0
DWIDTH 5 0
BBX 5 6 0 1
BITMAP
003C10
02E500
2D6000
2D7000
02E500
003C10
ENDCHAR
STARTCHAR guilsinglright
ENCODING 8250
SWIDTH 304 0
DWIDTH 5 0
BBX 5 6 0 1
BITMAP
2C2000
07D100
008C10
009C10
07D100
2C2000
ENDCHAR
STARTCHAR exclamdbl
ENCODING 8252
SWIDTH 485 0
DWIDTH 8 0
BBX 6 12 1 0
BITMAP
AE02F7
9D01F6
8D01F5
8C00F5
7B00E4
6B00E3
6A00D3
5900C2
4900C1
010010
BE03F7
9D02E6
ENDCHAR
STARTCHAR fraction
ENCODING 8260
SWIDTH 129 0
DWIDTH 2 0
BBX 8 12 -3 0
BITMAP
0000004C
000000D4
000007A0
00002E20
0000A700
0004D000
000C4000
006B0000
01E20000
09800000
3D100000
C5000000
ENDCHAR
STARTCHAR zerosuperior
ENCODING 8304
SWIDTH 347 0
DWIDTH 6 0
BBX 6 7 0 5
BITMAP
09ED30
5C15D0
9700E2
A600D3
9700E2
5C15D0
09ED40
ENDCHAR
STARTCHAR foursuperior
ENCODING 8308
SWIDTH 347 0
DWIDTH 6 0
BBX 6 7 0 5
BITMAP
002E70
00BD70
086B70
5A0B70
BEEFE6
000B70
000B70
ENDCHAR
STARTCHAR fivesuperior
ENCODING 8309
SWIDTH 347 0
DWIDTH 6 0
BBX 5 7 0 5
BITMAP
2ECC90
3B0000
4A0000
5EDD50
0003E0
3103E0
5DDD50
ENDCHAR
STARTCHAR sixsuperior
ENCODING 8310
SWIDTH 347 0
DWIDTH 6 0
BBX 6 7 0 5
BITMAP
04CD90
2E3000
880000
AACD80
9801D3
5A01D2
08DD70
ENDCHAR
STARTCHAR sevensuperior
ENCODING 8311
SWIDTH 347 0
DWIDTH 6 0
BBX 6 7 0 5
BITMAP
7EEEF2
0004C0
000B50
003D00
009700
01E100
089000
ENDCHAR
STARTCHAR eightsuperior
ENCODING 8312
SWIDTH 347 0
DWIDTH 6 0
BBX 6 7 0 5
BITMAP
09DD50
5B03D0
3D37B0
0BEF40
6A04E1
8801E1
1BDD60
ENDCHAR
STARTCHAR ninesuperior
ENCODING 8313
SWIDTH 347 0
DWIDTH 6 0
BBX 6 7 0 5
BITMAP
1BDC30
9702D0
A701E2
2CDBD3
0000E1
0008A0
2DD910
ENDCHAR
STARTCHAR nsuperior
ENCODING 8319
SWIDTH 394 0
DWIDTH 6 0
BBX 6 5 0 7
BITMAP
2CACC2
2E1087
2C0068
2C0068
2C0068
ENDCHAR
STARTCHAR franc
ENCODING 8355
SWIDTH 571 0
DWIDTH 9 0
BBX 9 12 0 0
BITMAP
00DFFFFF40
00D8333310
00D7000000
00D7000000
00D7000000
00D7000000
00DFFFFF00
00D8333300
00D7000000
4FFFFD0000
00D7000000
00D7000000
ENDCHAR
STARTCHAR afii08941
ENCODING 8356
SWIDTH 571 0
DWIDTH 9 0
BBX 9 12 0 0
BITMAP
0006DFD910
006E524700
00B9000000
00D7000000
00D7000000
6FFFFFB000
00D7000000
6FFFFFB000
00D6000000
01F4000000
2BC3333320
7FFFFFFF80
ENDCHAR
STARTCHAR peseta
ENCODING 8359
SWIDTH 763 0
DWIDTH 12 0
BBX 11 12 1 0
BITMAP
CFFD91000000
C936DB000000
C8004F100000
C8002F33B000
C8005F19B000
C936E9AFFF60
CFEC6008B000
C8000008B000
C8000008B000
C8000008B000
C8000007D200
C8000001CF90
ENDCHAR
STARTCHAR uni20AB
ENCODING 8363
SWIDTH 612 0
DWIDTH 10 0
BBX 10 15 0 -2
BITMAP
0000000D70
0000000D70
0005FFFFFA
0000000D70
006DFD5C70
05F724CE70
0CA0003F70
0F50000E70
1F40000D70
0F50000E70
0C90002F70
05F724CE70
006DFD5A70
0000000000
09FFFFFF90
ENDCHAR
STARTCHAR Euro
ENCODING 8364
SWIDTH 589 0
DWIDTH 9 0
BBX 9 12 0 0
BITMAP
0003AEEC70
002EB43690
00BB000000
01F4000000
8FFFFFF100
05F0000000
05F0000000
8FFFFF9000
01F5000000
00BB000000
002EB53560
0003AEFD70
ENDCHAR
STARTCHAR afii61248
ENCODING 8453
SWIDTH 824 0
DWIDTH 13 0
BBX 11 12 1 0
BITMAP
1ADD4003E100
8900000B7000
C300003D0000
C30000B60000
980004D00000
1ADD4C500000
00005C1ADC20
0000D48905B0
0006B0B400F0
001D30B400F0
007A008905C0
01E3001ACC20
ENDCHAR
STARTCHAR afii61289
ENCODING 8467
SWIDTH 520 0
DWIDTH 8 0
BBX 8 12 0 0
BITMAP
000ADB10
006C0870
008A0690
008A0770
008A0C20
008A8900
02BF9000
1CCA0000
008A0000
008A0092
005E33C0
0009ED40
ENDCHAR
STARTCHAR afii61352
ENCODING 8470
SWIDTH 1019 0
DWIDTH 16 0
BBX 15 12 1 0
BITMAP
6F50000980000000
6FD0000980000000
6BE6000980000000
6B7D000980000000
6B0D6009804DE700
6B06E10980E31C30
6B00D70983D00870
6B005E1983D00870
6B000C8980E31D30
6B0004E9804DD800
6B0000BF80111100
6B00003F80DFFF20
ENDCHAR
STARTCHAR uni2120
ENCODING 8480
SWIDTH 793 0
DWIDTH 13 0
BBX 12 6 0 6
BITMAP
09DC4AE004F5
2C000AD509D5
0C930A9A0CA5
005C4A5D49A5
00078A4AD3A5
3CCB2A44D0A5
ENDCHAR
STARTCHAR trademark
ENCODING 8482
SWIDTH 775 0
DWIDTH 12 0
BBX 12 6 0 6
BITMAP
9DFC7EA008F1
01D00ED10CE1
01D00E9539E1
01D00E4A84E1
01D00E0DC0E1
01D00E0980E1
ENDCHAR
STARTCHAR Omega
ENCODING 8486
SWIDTH 782 0
DWIDTH 13 0
BBX 12 12 0 0
BITMAP
0005BEFD9200
009E8435BE30
05F400000BD0
0AB0000003F3
0D80000000F6
0E70000000E7
0D80000001F6
09C0000004F2
04F2000009C0
00AB00004F40
134DA004E833
6FFFF30AFFFE
ENDCHAR
STARTCHAR estimated
ENCODING 8494
SWIDTH 619 0
DWIDTH 10 0
BBX 10 9 0 0
BITMAP
003AAA9200
03C2002C20
0C90000BA0
1F90000BE0
3FDAAAAAA1
1F90000000
0C90000130
03C2001A20
003AAAA200
ENDCHAR
STARTCHAR oneeighth
ENCODING 8539
SWIDTH 779 0
DWIDTH 12 0
BBX 12 12 0 0
BITMAP
04DB00009800
3B7B0003D100
005B000B6000
005B005C0000
005B01D30000
005B0892BDC2
005B2E198079
0000A607B2A7
0004C001DED1
000D400A708B
007A000C504C
01E20004CDC4
ENDCHAR
STARTCHAR threeeighths
ENCODING 8540
SWIDTH 779 0
DWIDTH 12 0
BBX 12 12 0 0
BITMAP
4CDD40001E20
3205C0009800
0008A003D100
09DE400C5000
0003F16B0000
3003E1D3ADD4
8DDC4886A05C
00002D14D289
0000B600CEE3
0005C007905E
001D3009702F
00890002CDD5
ENDCHAR
STARTCHAR fiveeighths
ENCODING 8541
SWIDTH 779 0
DWIDTH 12 0
BBX 12 12 0 0
BITMAP
1FCCA0002E10
2C000000A700
3B000004D000
3EDD600C4000
0002F16A0000
2102E2E3ADD4
4DDD5986A05B
00003D15D299
0000C500CEE3
0006B008906D
001D3009702E
00890002CDD5
ENDCHAR
STARTCHAR seveneighths
ENCODING 8542
SWIDTH 779 0
DWIDTH 12 0
BBX 12 12 0 0
BITMAP
2EEEF800B600
0000D305C000
0005B01D3000
000C50890000
003D02E10000
00A60A71BDD3
02E14C07905B
0000D405C298
0007A000CEE2
001E2008806D
00A7000A603E
03D00003CDD5
ENDCHAR
STARTCHAR partialdiff
ENCODING 8706
SWIDTH 581 0
DWIDTH 9 0
BBX 9 12 0 0
BITMAP
000BEEB200
001734CC00
0000003F30
0000000F60
003BED5D60
02EA22CF50
0AC0004F30
1F60006E00
2F3000BA00
2F3004F300
0DA25E8000
03CED60000
ENDCHAR
STARTCHAR Delta
ENCODING 8710
SWIDTH 571 0
DWIDTH 9 0
BBX 9 12 0 0
BITMAP
0003F60000
0008EB0000
000D8F1000
003F1E6000
008B0AA000
00D705F100
03F201F500
08C000AA00
0C70006E10
2F30001F50
7E33333CA0
AFFFFFFFD0
ENDCHAR
STARTCHAR product
ENCODING 8719
SWIDTH 738 0
DWIDTH 12 0
BBX 10 16 1 -4
BITMAP
6FFFFFFFF4
6E333334F4
6E000001F4
6E000001F4
6E000001F4
6E000001F4
6E000001F4
6E000001F4
6E000001F4
6E000001F4
6E000001F4
6E000001F4
6E000001F4
6E000001F4
6E000001F4
6E000001F4
ENDCHAR
STARTCHAR summation
ENCODING 8721
SWIDTH 630 0
DWIDTH 10 0
BBX 10 16 0 -4
BITMAP
4FFFFFFFF3
0CD3333331
02E8000000
006F400000
000AD10000
0001DA0000
00004F6000
00000AE000
00002E8000
0000BC0000
0006F30000
001E800000
00AD100000
05F4000000
1EB3333332
6FFFFFFFFB
ENDCHAR
STARTCHAR minus
ENCODING 8722
SWIDTH 571 0
DWIDTH 9 0
BBX 9 2 0 4
BITMAP
3FFFFFFF50
0111111100
ENDCHAR
STARTCHAR radical
ENCODING 8730
SWIDTH 548 0
DWIDTH 9 0
BBX 10 13 0 0
BITMAP
00000000C4
00000002E0
0000000790
0000000D30
0000003D00
0000008800
BFB000E300
13F104C000
00C60A7000
006C1E2000
001F7B0000
000AF60000
0005F10000
ENDCHAR
STARTCHAR infinity
ENCODING 8734
SWIDTH 705 0
DWIDTH 11 0
BBX 10 5 1 3
BITMAP
3CE805DD60
D509AC22E2
F001F500A5
D509AC12E2
3CE806EE60
ENDCHAR
STARTCHAR integral
ENCODING 8747
SWIDTH 383 0
DWIDTH 6 0
BBX 6 16 0 -4
BITMAP
0008ED
005F31
008B00
008B00
008B00
008B00
008B00
008B00
008B00
008B00
008B00
008B00
008B00
009A00
22D700
CE9000
ENDCHAR
STARTCHAR approxequal
ENCODING 8776
SWIDTH 571 0
DWIDTH 9 0
BBX 9 5 0 3
BITMAP
1AEE942650
37249DEB20
0000000000
1AEEA42650
38249DEB20
ENDCHAR
STARTCHAR notequal
ENCODING 8800
SWIDTH 571 0
DWIDTH 9 0
BBX 9 8 0 2
BITMAP
000004B000
00000C6000
3FFFFFFF50
0111C71100
0115D11100
3FFFFFFF50
004D000000
0096000000
ENDCHAR
STARTCHAR lessequal
ENCODING 8804
SWIDTH 571 0
DWIDTH 9 0
BBX 9 10 0 0
BITMAP
0000002A50
00002AE810
0029E71000
19D7100000
2DC5000000
005BE71000
00003AEA20
0000002840
0111111100
3FFFFFFF50
ENDCHAR
STARTCHAR greaterequal
ENCODING 8805
SWIDTH 571 0
DWIDTH 9 0
BBX 9 10 0 0
BITMAP
3B30000000
07EB300000
0006DA3000
000006DA20
000004BD30
0016DC6000
19EB400000
2930000000
0111111100
3FFFFFFF50
ENDCHAR
STARTCHAR lozenge
ENCODING 9674
SWIDTH 583 0
DWIDTH 9 0
BBX 8 12 1 0
BITMAP
000D4000
007EC000
02E4D600
0AA04E10
4E200B90
C70002F3
C70002F3
4E200B90
0AA04E10
02E3C600
007EC000
000D4000
ENDCHAR
STARTCHAR ff
ENCODING 64256
SWIDTH 678 0
DWIDTH 11 0
BBX 12 13 0 0
BITMAP
003CED009EE5
00D92306E331
02F2000B9000
03F1000C7000
7EFEE6CFFE90
14F2111C8110
04F1000C7000
04F1000C7000
04F1000C7000
04F1000C7000
04F1000C7000
04F1000C7000
04F1000C7000
ENDCHAR
STARTCHAR uniFB01
ENCODING 64257
SWIDTH 591 0
DWIDTH 9 0
BBX 9 13 0 0
BITMAP
003CED0000
00D9231910
02F2003D10
03F1000000
7EFEE33F10
14F2103F10
04F1003F10
04F1003F10
04F1003F10
04F1003F10
04F1003F10
04F1003F10
04F1003F10
ENDCHAR
STARTCHAR uniFB02
ENCODING 64258
SWIDTH 591 0
DWIDTH 9 0
BBX 9 13 0 0
BITMAP
003CED3F10
00D9233F10
02F2003F10
03F1003F10
7EFEE33F10
14F2103F10
04F1003F10
04F1003F10
04F1003F10
04F1003F10
04F1003F10
04F1003F10
04F1003F10
ENDCHAR
STARTCHAR uniFB03
ENCODING 64259
SWIDTH 932 0
DWIDTH 15 0
BBX 14 13 0 0
BITMAP
003CED019EE400
00D92307D33175
02F2000B8000A7
03F1000D700000
7EFEE7CFFE90C8
14F2111D7110C8
04F1000D7000C8
04F1000D7000C8
04F1000D7000C8
04F1000D7000C8
04F1000D7000C8
04F1000D7000C8
04F1000D7000C8
ENDCHAR
STARTCHAR uniFB04
ENCODING 64260
SWIDTH 932 0
DWIDTH 15 0
BBX 14 13 0 0
BITMAP
003CED019EE4C8
00D92307D331C8
02F2000B8000C8
03F1000D7000C8
7EFEE7CFFE90C8
14F2111D7110C8
04F1000D7000C8
04F1000D7000C8
04F1000D7000C8
04F1000D7000C8
04F1000D7000C8
04F1000D7000C8
04F1000D7000C8
ENDCHAR
STARTCHAR uniFEFF
ENCODING 65279
SWIDTH 0 0
DWIDTH 0 0
BBX 1 1 0 0
BITMAP
00
ENDCHAR
STARTCHAR uniFFFC
ENCODING 65532
SWIDTH 1000 0
DWIDTH 16 0
BBX 16 15 0 -3
BITMAP
5ED1DD1DD2CD3BE8
5800000000000058
3400000000000034
2300000000000023
5800000000000058
470ACC39DD30C347
114C05A96960C311
584C05A9DD40C358
240ACC39DD6CC124
4600000000000046
5800000000000058
2400000000000024
3400000000000034
5800000000000058
5ED1DD1DD2CD3BE8
ENDCHAR
STARTCHAR uniFFFD
ENCODING 65533
SWIDTH 1000 0
DWIDTH 16 0
BBX 16 15 0 -3
BITMAP
0000000870000000
0000007FF7000000
000007FFFF600000
00007C4116F60000
0006FA16408F6000
006FFFFFD05FF600
06FFFFFF807FFF50
2FFFFFFA02EFFFF2
06FFFFF12DFFFF50
006FFFD07FFFF600
0006FFFFFFFF6000
00007FC27FF60000
000007C16F700000
0000007FF7000000
0000000870000000
ENDCHAR
STARTCHAR .notdef
ENCODING -1
SWIDTH 600 0
DWIDTH 10 0
BBX 8 11 1 0
BITMAP
7DCCCCE1
750000B1
750000B1
750000B1
750000B1
750000B1
750000B1
750000B1
750000B1
750000B1
7DCCCCE1
ENDCHAR
STARTCHAR null
ENCODING -1
SWIDTH 0 0
DWIDTH 0 0
BBX 1 1 0 0
BITMAP
00
ENDCHAR
STARTCHAR nonmarkingreturn
ENCODING -1
SWIDTH 509 0
DWIDTH 8 0
BBX 1 1 0 0
BITMAP
00
ENDCHAR
STARTCHAR I.alt
ENCODING -1
SWIDTH 333 0
DWIDTH 5 0
BBX 5 12 0 0
BITMAP
4EFF80
00F500
00F500
00F500
00F500
00F500
00F500
00F500
00F500
00F500
00F500
4EFF80
ENDCHAR
STARTCHAR Igrave.alt
ENCODING -1
SWIDTH 333 0
DWIDTH 5 0
BBX 5 16 0 0
BITMAP
5F4000
0AC000
00B500
000000
4EFF80
00F500
00F500
00F500
00F500
00F500
00F500
00F500
00F500
00F500
00F500
4EFF80
ENDCHAR
STARTCHAR Iacute.alt
ENCODING -1
SWIDTH 333 0
DWIDTH 5 0
BBX 5 16 0 0
BITMAP
000EA0
007D10
01D300
000000
4EFF80
00F500
00F500
00F500
00F500
00F500
00F500
00F500
00F500
00F500
00F500
4EFF80
ENDCHAR
STARTCHAR Icircumflex.alt
ENCODING -1
SWIDTH 333 0
DWIDTH 5 0
BBX 6 16 0 0
BITMAP
05F800
1E6E40
B604D1
000000
4EFF80
00F500
00F500
00F500
00F500
00F500
00F500
00F500
00F500
00F500
00F500
4EFF80
ENDCHAR
STARTCHAR Idieresis.alt
ENCODING -1
SWIDTH 333 0
DWIDTH 5 0
BBX 5 15 0 0
BITMAP
6B06A0
5A06A0
000000
4EFF80
00F500
00F500
00F500
00F500
00F500
00F500
00F500
00F500
00F500
00F500
4EFF80
ENDCHAR
STARTCHAR Itilde.alt
ENCODING -1
SWIDTH 333 0
DWIDTH 5 0
BBX 7 15 -1 0
BITMAP
08EA3770
2C27EC10
00000000
04EFF800
000F5000
000F5000
000F5000
000F5000
000F5000
000F5000
000F5000
000F5000
000F5000
000F5000
04EFF800
ENDCHAR
STARTCHAR Imacron.alt
ENCODING -1
SWIDTH 333 0
DWIDTH 5 0
BBX 5 15 0 0
BITMAP
111110
AFFFF0
000000
4EFF80
00F500
00F500
00F500
00F500
00F500
00F500
00F500
00F500
00F500
00F500
4EFF80
ENDCHAR
STARTCHAR Ibreve.alt
ENCODING -1
SWIDTH 333 0
DWIDTH 5 0
BBX 5 15 0 0
BITMAP
A613D0
2CFD40
000000
4EFF80
00F500
00F500
00F500
00F500
00F500
00F500
00F500
00F500
00F500
00F500
4EFF80
ENDCHAR
STARTCHAR Iogonek.alt
ENCODING -1
SWIDTH 333 0
DWIDTH 5 0
BBX 5 15 0 -3
BITMAP
4EFF80
00F500
00F500
00F500
00F500
00F500
00F500
00F500
00F500
00F500
00F500
4EFF80
087000
0D4000
07E900
ENDCHAR
STARTCHAR Idotaccent.alt
ENCODING -1
SWIDTH 333 0
DWIDTH 5 0
BBX 5 15 0 0
BITMAP
01D400
00D400
000000
4EFF80
00F500
00F500
00F500
00F500
00F500
00F500
00F500
00F500
00F500
00F500
4EFF80
ENDCHAR
STARTCHAR IJ.alt
ENCODING -1
SWIDTH 600 0
DWIDTH 10 0
BBX 9 15 0 -3
BITMAP
4EFF803F20
00F5003F20
00F5003F20
00F5003F20
00F5003F20
00F5003F20
00F5003F20
00F5003F20
00F5003F20
00F5003F20
00F5003F20
4EFF803F20
0000004F00
000044CB00
0000DEB200
ENDCHAR
STARTCHAR Iotatonos.alt
ENCODING -1
SWIDTH 449 0
DWIDTH 7 0
BBX 8 13 -1 0
BITMAP
09C00000
0C66EFF7
2D002F30
00002F30
00002F30
00002F30
00002F30
00002F30
00002F30
00002F30
00002F30
00002F30
0006EFE7
ENDCHAR
STARTCHAR Iota.alt
ENCODING -1
SWIDTH 333 0
DWIDTH 5 0
BBX 5 12 0 0
BITMAP
4EFF80
00F500
00F500
00F500
00F500
00F500
00F500
00F500
00F500
00F500
00F500
4EFF80
ENDCHAR
STARTCHAR Iotadieresis.alt
ENCODING -1
SWIDTH 333 0
DWIDTH 5 0
BBX 5 15 0 0
BITMAP
6B06A0
5A06A0
000000
4EFF80
00F500
00F500
00F500
00F500
00F500
00F500
00F500
00F500
00F500
00F500
4EFF80
ENDCHAR
STARTCHAR afii10055.alt
ENCODING -1
SWIDTH 333 0
DWIDTH 5 0
BBX 5 12 0 0
BITMAP
4EFF80
00F500
00F500
00F500
00F500
00F500
00F500
00F500
00F500
00F500
00F500
4EFF80
ENDCHAR
STARTCHAR afii10056.alt
ENCODING -1
SWIDTH 333 0
DWIDTH 5 0
BBX 5 15 0 0
BITMAP
6B06A0
5A06A0
000000
4EFF80
00F500
00F500
00F500
00F500
00F500
00F500
00F500
00F500
00F500
00F500
4EFF80
ENDCHAR
STARTCHAR cyrillicbreve
ENCODING -1
SWIDTH 577 0
DWIDTH 9 0
BBX 7 2 1 10
BITMAP
2F302E50
07DEE800
ENDCHAR
STARTCHAR caroncommaaccent
ENCODING -1
SWIDTH 500 0
DWIDTH 8 0
BBX 2 3 3 10
BITMAP
7C
97
C1
ENDCHAR
STARTCHAR commaaccent
ENCODING -1
SWIDTH 500 0
DWIDTH 8 0
BBX 3 3 2 -4
BITMAP
08C0
0B60
1D00
ENDCHAR
STARTCHAR commaaccentrotate
ENCODING -1
SWIDTH 500 0
DWIDTH 8 0
BBX 2 3 3 10
BITMAP
1D
89
D6
ENDCHAR
STARTCHAR dasiaoxia
ENCODING -1
SWIDTH 399 0
DWIDTH 6 0
BBX 5 3 1 9
BITMAP
2A1E70
B44D10
9B8500
ENDCHAR
STARTCHAR uni04C0.alt
ENCODING -1
SWIDTH 333 0
DWIDTH 5 0
BBX 5 12 0 0
BITMAP
4EFF80
00F500
00F500
00F500
00F500
00F500
00F500
00F500
00F500
00F500
00F500
4EFF80
ENDCHAR
STARTCHAR uni04CF.alt
ENCODING -1
SWIDTH 333 0
DWIDTH 5 0
BBX 5 12 0 0
BITMAP
4EFF80
00F500
00F500
00F500
00F500
00F500
00F500
00F500
00F500
00F500
00F500
4EFF80
ENDCHAR
STARTCHAR uni1EC8.alt
ENCODING -1
SWIDTH 333 0
DWIDTH 5 0
BBX 5 17 0 0
BITMAP
04CC20
000960
008D20
00B200
000000
4EFF80
00F500
00F500
00F500
00F500
00F500
00F500
00F500
00F500
00F500
00F500
4EFF80
ENDCHAR
STARTCHAR uni1ECA.alt
ENCODING -1
SWIDTH 333 0
DWIDTH 5 0
BBX 5 15 0 -3
BITMAP
4EFF80
00F500
00F500
00F500
00F500
00F500
00F500
00F500
00F500
00F500
00F500
4EFF80
000000
01D400
00D400
ENDCHAR
STARTCHAR circumflexacutecomb
ENCODING -1
SWIDTH 0 0
DWIDTH 0 0
BBX 7 3 -7 10
BITMAP
00004E20
1CE6C400
B61A5000
ENDCHAR
STARTCHAR circumflexgravecomb
ENCODING -1
SWIDTH 0 0
DWIDTH 0 0
BBX 7 3 -9 10
BITMAP
8C000000
0A6CE600
00A61A50
ENDCHAR
STARTCHAR circumflexhookcomb
ENCODING -1
SWIDTH 0 0
DWIDTH 0 0
BBX 6 4 -7 10
BITMAP
0002A9
00003C
1CE6B1
B61A50
ENDCHAR
STARTCHAR circumflextildecomb
ENCODING -1
SWIDTH 0 0
DWIDTH 0 0
BBX 6 4 -8 10
BITMAP
09D61A
1A1AE4
01CE60
0A61A5
ENDCHAR
STARTCHAR breveacutecomb
ENCODING -1
SWIDTH 0 0
DWIDTH 0 0
BBX 5 4 -7 10
BITMAP
008C00
02C100
D21860
5DEA00
ENDCHAR
STARTCHAR brevegravecomb
ENCODING -1
SWIDTH 0 0
DWIDTH 0 0
BBX 5 4 -7 10
BITMAP
6D0000
087000
D21860
5DEA00
ENDCHAR
STARTCHAR brevehookcomb
ENCODING -1
SWIDTH 0 0
DWIDTH 0 0
BBX 5 4 -7 10
BITMAP
07C300
039200
D21860
5DEA00
ENDCHAR
STARTCHAR brevetildecomb
ENCODING -1
SWIDTH 0 0
DWIDTH 0 0
BBX 6 5 -8 10
BITMAP
09D61A
1A19E4
000000
0D2186
05DEA0
ENDCHAR
STARTCHAR cyrillichookleft
ENCODING -1
SWIDTH 205 0
DWIDTH 3 0
BBX 3 3 0 -3
BITMAP
1B40
05C0
8E70
ENDCHAR
STARTCHAR cyrillicbighookUC
ENCODING -1
SWIDTH 205 0
DWIDTH 3 0
BBX 3 4 0 -3
BITMAP
04D0
04D0
37D0
BE60
ENDCHAR
STARTCHAR cyrillicbighookLC
ENCODING -1
SWIDTH 205 0
DWIDTH 3 0
BBX 3 4 0 -3
BITMAP
04D0
04D0
38C0
BE60
ENDCHAR
STARTCHAR one.pnum
ENCODING -1
SWIDTH 396 0
DWIDTH 6 0
BBX 5 12 0 0
BITMAP
005E80
19DC80
4A1B80
000B80
000B80
000B80
000B80
000B80
000B80
000B80
000B80
000B80
ENDCHAR
STARTCHAR zero.os
ENCODING -1
SWIDTH 566 0
DWIDTH 9 0
BBX 9 9 0 0
BITMAP
005DFD6000
04F726F500
0B90008D00
0E50004F10
1F40002F20
0F50004F10
0C90008D00
04F726F500
005DFD6000
ENDCHAR
STARTCHAR one.os
ENCODING -1
SWIDTH 369 0
DWIDTH 6 0
BBX 5 9 0 0
BITMAP
006E70
1ABC70
590C70
000C70
000C70
000C70
000C70
000C70
000C70
ENDCHAR
STARTCHAR two.os
ENCODING -1
SWIDTH 509 0
DWIDTH 8 0
BBX 8 9 0 0
BITMAP
05BEEB30
3E633AE0
000002F2
000005E1
00004E60
0007E500
01BC2000
3DB33332
AFFFFFFA
ENDCHAR
STARTCHAR three.os
ENCODING -1
SWIDTH 571 0
DWIDTH 9 0
BBX 9 12 0 -3
BITMAP
03AEFD7000
1C8425E700
0000008C00
000000AB00
000027E400
008FFD5000
001237E700
0000005F10
0000003F30
0000006F10
394236E900
29DFEC6000
ENDCHAR
STARTCHAR four.os
ENCODING -1
SWIDTH 569 0
DWIDTH 9 0
BBX 9 12 0 -3
BITMAP
00000AF200
00005DF200
0002E5F200
000B92F200
006D12F200
02E302F200
0B7002F200
7C0002F200
CFFFFFFFC0
111114F210
000003F200
000003F200
ENDCHAR
STARTCHAR five.os
ENCODING -1
SWIDTH 571 0
DWIDTH 9 0
BBX 8 12 1 -3
BITMAP
4FFFFF60
5D333310
7B000000
8A000000
99000000
AEEFD710
14236EB0
000005F2
000002F3
000005F1
95336E80
8DEEC500
ENDCHAR
STARTCHAR six.os
ENCODING -1
SWIDTH 571 0
DWIDTH 9 0
BBX 9 12 0 0
BITMAP
0005CEF600
008E622200
04F4000000
0AB0000000
0D70000000
0F6AEEA200
1FD612AD00
1F60001F40
0E50000E50
0A90002F30
02E824CB00
003BFD9100
ENDCHAR
STARTCHAR seven.os
ENCODING -1
SWIDTH 571 0
DWIDTH 9 0
BBX 9 12 0 -3
BITMAP
4FFFFFFF50
1333336F30
0000009B00
000001E500
000007D000
00000D7000
00005E1000
0000C90000
0003F30000
000AB00000
002F500000
008D000000
ENDCHAR
STARTCHAR eight.os
ENCODING -1
SWIDTH 571 0
DWIDTH 9 0
BBX 9 12 0 0
BITMAP
007DFD8100
07E414D900
0B80006D00
0AA0008C00
03E927E300
003FFF3000
03E94AE400
0D80007E10
2F20000F40
1F40002F30
0AC413CB00
018DFD9100
ENDCHAR
STARTCHAR nine.os
ENCODING -1
SWIDTH 571 0
DWIDTH 9 0
BBX 9 12 0 -3
BITMAP
007DEC5000
07E526E500
0E50006D00
2F20001F20
1F40002F40
0AC314CF40
019EEB4F30
0000004F10
0000008D00
000001E700
01225DB000
04FFC70000
ENDCHAR
STARTCHAR g.alt
ENCODING -1
SWIDTH 612 0
DWIDTH 10 0
BBX 9 13 0 -4
BITMAP
006DFC5A70
04F724DE70
0C90003F70
0F50000E70
1F40000D70
0F50000E70
0C90003F70
05F724CE70
006DFD5D70
0000000E60
0000002F40
047324CC00
03BEFEA200
ENDCHAR
STARTCHAR gcircumflex.alt
ENCODING -1
SWIDTH 612 0
DWIDTH 10 0
BBX 9 17 0 -4
BITMAP
0003FB0000
001C7D6000
009802D300
0000000000
006DFC5A70
04F724DE70
0C90003F70
0F50000E70
1F40000D70
0F50000E70
0C90003F70
05F724CE70
006DFD5D70
0000000E60
0000002F40
047324CC00
03BEFEA200
ENDCHAR
STARTCHAR gbreve.alt
ENCODING -1
SWIDTH 612 0
DWIDTH 10 0
BBX 9 16 0 -4
BITMAP
007812C200
001BED6000
0000000000
006DFC5A70
04F724DE70
0C90003F70
0F50000E70
1F40000D70
0F50000E70
0C90003F70
05F724CE70
006DFD5D70
0000000E60
0000002F40
047324CC00
03BEFEA200
ENDCHAR
STARTCHAR gdot.alt
ENCODING -1
SWIDTH 612 0
DWIDTH 10 0
BBX 9 16 0 -4
BITMAP
0000D50000
0000C40000
0000000000
006DFC5A70
04F724DE70
0C90003F70
0F50000E70
1F40000D70
0F50000E70
0C90003F70
05F724CE70
006DFD5D70
0000000E60
0000002F40
047324CC00
03BEFEA200
ENDCHAR
STARTCHAR gcommaaccent.alt
ENCODING -1
SWIDTH 612 0
DWIDTH 10 0
BBX 9 17 0 -4
BITMAP
00002C0000
0000980000
0000E50000
0000000000
006DFC5A70
04F724DE70
0C90003F70
0F50000E70
1F40000D70
0F50000E70
0C90003F70
05F724CE70
006DFD5D70
0000000E60
0000002F40
047324CC00
03BEFEA200
ENDCHAR
ENDFONT
